<?xml version="1.0" encoding="UTF-8"?>
<!DOCTYPE svg PUBLIC "-//W3C//DTD SVG 1.1//EN" "http://www.w3.org/Graphics/SVG/1.1/DTD/svg11.dtd">
<!-- Creator: CorelDRAW -->
<svg class="svg" xmlns="http://www.w3.org/2000/svg" xml:space="preserve" width="11.0492cm" height="9.32129cm" style="shape-rendering:geometricPrecision; text-rendering:geometricPrecision; image-rendering:optimizeQuality; fill-rule:evenodd; clip-rule:evenodd"
viewBox="0 0 9.85023 8.30979"
 xmlns:xlink="http://www.w3.org/1999/xlink">
 <defs>
  <style type="text/css">
   <![CDATA[
    .str1 {stroke:#0A0B0C;stroke-width:0.0178297}
    .str0 {stroke:#1F1A17;stroke-width:0.0178297}
    .fil0 {fill:#0A0B0C}
   ]]>
  </style>
 </defs>
 <g id="Ebene_x0020_1">
  <metadata id="CorelCorpID_0Corel-Layer"/>
  <path class="fil0 str0" d="M0.88528 1.90165l8.08114 0c0.125057,0 0.227373,0.102342 0.227373,0.227373l0 5.29696c0,0.125031 -0.102342,0.227373 -0.227373,0.227373l-8.08114 0c-0.125031,0 -0.227373,-0.102316 -0.227373,-0.227373l0 -5.29696c0,-0.125057 0.102316,-0.227373 0.227373,-0.227373zm-0.584671 -0.647512l9.24901 0c0.160432,0 0.291694,0.131271 0.291694,0.291694l0 6.46334c0,0.160423 -0.131271,0.291694 -0.291694,0.291694l-9.24901 0c-0.160423,0 -0.291694,-0.131262 -0.291694,-0.291694l0 -6.46334c0,-0.160432 0.131262,-0.291694 0.291694,-0.291694z"/>
  <path class="fil0 str1" d="M1.42736 1.25414l0 -0.921474c0,-0.178065 0.145686,-0.323752 0.323752,-0.323752l8.91485e-006 0c0.178065,0 0.323752,0.145695 0.323752,0.323752l0 0.921474c0,0.178056 -0.145695,0.323752 -0.323752,0.323752l-8.91485e-006 0c-0.178056,0 -0.323752,-0.145686 -0.323752,-0.323752z"/>
  <path class="fil0 str1" d="M7.77537 1.25414l0 -0.921474c0,-0.178065 0.145686,-0.323752 0.323752,-0.323752l8.91485e-006 0c0.178065,0 0.323752,0.145695 0.323752,0.323752l0 0.921474c0,0.178056 -0.145695,0.323752 -0.323752,0.323752l-8.91485e-006 0c-0.178056,0 -0.323752,-0.145686 -0.323752,-0.323752z"/>
  <rect class="fil0 str0" x="1.92984" y="3.0348" width="1.21135" height="1.21135"/>
  <rect class="fil0 str0" x="3.52478" y="3.0348" width="1.21135" height="1.21135"/>
  <rect class="fil0 str0" x="5.11972" y="3.0348" width="1.21135" height="1.21135"/>
  <rect class="fil0 str0" x="6.71466" y="3.0348" width="1.21135" height="1.21135"/>
  <rect class="fil0 str0" x="1.92984" y="4.54898" width="1.21135" height="1.21135"/>
  <rect class="fil0 str0" x="3.52478" y="4.54898" width="1.21135" height="1.21135"/>
  <path class="fil0 str0" d="M5.11973 4.54898l1.21134 0 0 1.21134 -1.21134 0 0 -1.21134zm1.12458 0.69912c-0.0405982,-0.0646326 -0.141817,-0.0741448 -0.226036,-0.021253 -0.0842186,0.0529007 -0.119602,0.148218 -0.0790034,0.212842 0.0405982,0.0646416 0.141817,0.0741537 0.226036,0.0212619 0.0842275,-0.0529007 0.119602,-0.148209 0.0790034,-0.212851zm-0.457867 -0.16077c0.224565,0.0956563 0.0213421,0.22567 0.0864829,0.335394 0.424534,0.715024 -1.24889,0.00556286 -0.429651,-0.188041 0.0971273,-0.0229557 0.118603,-0.243001 0.343168,-0.147354zm-0.40091 -0.270405c0.0757227,-0.00955672 0.147238,0.062707 0.159701,0.161377 0.012463,0.0986784 -0.038842,0.186445 -0.114565,0.196011 -0.0757316,0.00955672 -0.147247,-0.062707 -0.159709,-0.161368 -0.012454,-0.0986784 0.0388509,-0.186445 0.114574,-0.19602zm0.386138 -0.236921c0.0888989,0.0168669 0.144634,0.125699 0.124469,0.243045 -0.0201743,0.117346 -0.108618,0.198828 -0.197517,0.18197 -0.0888989,-0.0168669 -0.144643,-0.125699 -0.124469,-0.243045 0.0201654,-0.117346 0.108618,-0.198837 0.197517,-0.18197zm0.463002 0.235762c-0.0681094,-0.057474 -0.191794,-0.0335822 -0.276209,0.0533464 -0.0844147,0.0869287 -0.0976265,0.204034 -0.0295171,0.261508 0.0681094,0.0574651 0.191794,0.0335822 0.276209,-0.0533464 0.0844058,-0.0869376 0.0976265,-0.204034 0.0295171,-0.261508z"/>
  <rect class="fil0 str0" x="1.92984" y="6.06315" width="1.21135" height="1.21135"/>
  <rect class="fil0 str0" x="3.52478" y="6.06315" width="1.21135" height="1.21135"/>
  <rect class="fil0 str0" x="5.11972" y="6.06315" width="1.21135" height="1.21135"/>
  <rect class="fil0 str0" x="6.71466" y="6.06315" width="1.21135" height="1.21135"/>
  <path class="fil0 str0" d="M6.71466 4.54898l1.21134 0 0 1.21134 -1.21134 0 0 -1.21134zm1.12458 0.69912c-0.0405982,-0.0646326 -0.141817,-0.0741448 -0.226036,-0.021253 -0.0842186,0.0529007 -0.119602,0.148218 -0.0790034,0.212842 0.0405982,0.0646416 0.141817,0.0741537 0.226036,0.0212619 0.0842275,-0.0529007 0.119602,-0.148209 0.0790034,-0.212851zm-0.457867 -0.16077c0.224565,0.0956563 0.0213421,0.22567 0.0864829,0.335394 0.424534,0.715024 -1.24889,0.00556286 -0.429651,-0.188041 0.0971273,-0.0229557 0.118603,-0.243001 0.343168,-0.147354zm-0.40091 -0.270405c0.0757227,-0.00955672 0.147238,0.062707 0.159701,0.161377 0.012463,0.0986784 -0.038842,0.186445 -0.114565,0.196011 -0.0757316,0.00955672 -0.147247,-0.062707 -0.159709,-0.161368 -0.012454,-0.0986784 0.0388509,-0.186445 0.114574,-0.19602zm0.386138 -0.236921c0.0888989,0.0168669 0.144634,0.125699 0.124469,0.243045 -0.0201743,0.117346 -0.108618,0.198828 -0.197517,0.18197 -0.0888989,-0.0168669 -0.144643,-0.125699 -0.124469,-0.243045 0.0201654,-0.117346 0.108618,-0.198837 0.197517,-0.18197zm0.463002 0.235762c-0.0681094,-0.057474 -0.191794,-0.0335822 -0.276209,0.0533464 -0.0844147,0.0869287 -0.0976265,0.204034 -0.0295171,0.261508 0.0681094,0.0574651 0.191794,0.0335822 0.276209,-0.0533464 0.0844058,-0.0869376 0.0976265,-0.204034 0.0295171,-0.261508z"/>
 </g>
</svg>
