<?xml version="1.0" encoding="UTF-8"?>
<!DOCTYPE svg PUBLIC "-//W3C//DTD SVG 1.1//EN" "http://www.w3.org/Graphics/SVG/1.1/DTD/svg11.dtd">
<!-- Creator: CorelDRAW -->
<svg class="svg" xmlns="http://www.w3.org/2000/svg" xml:space="preserve" width="11.0567cm" height="9.32308cm" style="shape-rendering:geometricPrecision; text-rendering:geometricPrecision; image-rendering:optimizeQuality; fill-rule:evenodd; clip-rule:evenodd"
viewBox="0 0 9.8576 8.31198"
 xmlns:xlink="http://www.w3.org/1999/xlink">
 <defs>
  <style type="text/css">
   <![CDATA[
    .str0 {stroke:#1F1A17;stroke-width:0.017831}
    .str1 {stroke:#0C0C0C;stroke-width:0.017831}
    .fil0 {fill:#0A0B0C}
    .fil1 {fill:#0C0C0C}
   ]]>
  </style>
 </defs>
 <g id="Ebene_x0020_1">
  <metadata id="CorelCorpID_0Corel-Layer"/>
  <path class="fil0 str0" d="M4.91373 1.11063l3.5131 2.19397 0 4.67408c0,0.178399 -0.145982,0.32439 -0.32439,0.32439l-6.34725 0c-0.178408,0 -0.32439,-0.145973 -0.32439,-0.32439l0 -4.67408 3.48292 -2.19397zm0.145911 1.73107c0.354774,0.0672941 0.577206,0.50163 0.496717,0.969925 -0.080489,0.468286 -0.433471,0.793469 -0.788236,0.726175 -0.354765,-0.0672941 -0.577206,-0.50163 -0.496717,-0.969916 0.080489,-0.468286 0.433471,-0.793478 0.788236,-0.726184zm1.84769 0.94086c-0.271798,-0.22936 -0.765395,-0.134027 -1.10226,0.212884 -0.336854,0.346911 -0.389607,0.814243 -0.1178,1.0436 0.271806,0.229351 0.765404,0.134018 1.10226,-0.212893 0.336854,-0.346911 0.389607,-0.814243 0.1178,-1.04359zm0.0384614 1.72533c-0.162003,-0.257934 -0.565946,-0.295914 -0.902051,-0.0848219 -0.336096,0.211101 -0.477282,0.591471 -0.315278,0.849405 0.162012,0.257934 0.565955,0.295923 0.902051,0.0848219 0.336096,-0.211101 0.477282,-0.591462 0.315278,-0.849405zm-3.42711 -1.72067c0.30219,-0.0381583 0.587584,0.250222 0.637315,0.643983 0.0497217,0.39377 -0.155014,0.744042 -0.457204,0.782209 -0.302199,0.0381583 -0.587593,-0.250222 -0.637315,-0.643983 -0.0497306,-0.39377 0.155014,-0.744051 0.457204,-0.782209zm1.59992 1.07909c0.896158,0.381717 0.0851518,0.900562 0.345127,1.33843 1.6942,2.85346 -4.98394,0.0221996 -1.71464,-0.750399 0.387636,-0.0915977 0.473341,-0.969746 1.36951,-0.58803z"/>
  <polygon class="fil1 str1" points="4.94075,0.0105024 0.0122588,3.10461 0.357181,3.65411 4.92882,0.784509 9.50044,3.65411 9.84536,3.10461 "/>
 </g>
</svg>
