<?xml version="1.0" encoding="UTF-8"?>
<!DOCTYPE svg PUBLIC "-//W3C//DTD SVG 1.1//EN" "http://www.w3.org/Graphics/SVG/1.1/DTD/svg11.dtd">
<!-- Creator: CorelDRAW -->
<svg class="svg" xmlns="http://www.w3.org/2000/svg" xml:space="preserve" width="11.0567cm" height="6.6076cm" style="shape-rendering:geometricPrecision; text-rendering:geometricPrecision; image-rendering:optimizeQuality; fill-rule:evenodd; clip-rule:evenodd"
viewBox="0 0 9.8576 5.891"
 xmlns:xlink="http://www.w3.org/1999/xlink">
 <defs>
  <style type="text/css">
   <![CDATA[
    .str0 {stroke:#1F1A17;stroke-width:0.017831}
    .str1 {stroke:#0C0C0C;stroke-width:0.017831}
    .fil0 {fill:#0A0B0C}
    .fil1 {fill:#0C0C0C}
   ]]>
  </style>
 </defs>
 <g id="Ebene_x0020_1">
  <metadata id="CorelCorpID_0Corel-Layer"/>
  <path class="fil0 str0" d="M0.888687 0.656474l8.08172 0c0.125066,0 0.22739,0.102341 0.22739,0.22739l0 4.12327c0,0.125049 -0.102341,0.22739 -0.22739,0.22739l-8.08172 0c-0.125049,0 -0.22739,-0.102323 -0.22739,-0.22739l0 -4.12327c0,-0.125066 0.102323,-0.22739 0.22739,-0.22739zm-0.584713 -0.647559l9.24968 0c0.160443,0 0.291715,0.131272 0.291715,0.291715l0 5.28974c0,0.160443 -0.131272,0.291715 -0.291715,0.291715l-9.24968 0c-0.160443,0 -0.291715,-0.131272 -0.291715,-0.291715l0 -5.28974c0,-0.160443 0.131272,-0.291715 0.291715,-0.291715z"/>
  <polygon class="fil1 str1" points="4.94075,3.66141 0.0122588,0.567301 0.357181,0.0178042 4.92882,2.88741 9.50044,0.0178042 9.84536,0.567301 "/>
 </g>
</svg>
