<?xml version="1.0" encoding="UTF-8"?>
<!DOCTYPE svg PUBLIC "-//W3C//DTD SVG 1.1//EN" "http://www.w3.org/Graphics/SVG/1.1/DTD/svg11.dtd">
<!-- Creator: CorelDRAW -->
<svg class="svg" xmlns="http://www.w3.org/2000/svg" xml:space="preserve" width="11.0492cm" height="9.32129cm" style="shape-rendering:geometricPrecision; text-rendering:geometricPrecision; image-rendering:optimizeQuality; fill-rule:evenodd; clip-rule:evenodd"
viewBox="0 0 9.85023 8.30979"
 xmlns:xlink="http://www.w3.org/1999/xlink">
 <defs>
  <style type="text/css">
   <![CDATA[
    .str0 {stroke:#1F1A17;stroke-width:0.0178297}
    .fil0 {fill:#0C0C0C}
    .fil1 {fill:#0C0C0C;fill-rule:nonzero}
   ]]>
  </style>
 </defs>
 <g id="Ebene_x0020_1">
  <metadata id="CorelCorpID_0Corel-Layer"/>
  <path class="fil0 str0" d="M0.726123 5.79506l0 2.21412c0,0.160432 0.13128,0.291694 0.291694,0.291694l8.5318 0c0.160414,0 0.291694,-0.13128 0.291694,-0.291694l0 -7.70857c0,-0.160414 -0.131271,-0.291694 -0.291694,-0.291694l-8.5318 0c-0.160405,0 -0.291694,0.131289 -0.291694,0.291694l0 2.33654 0.648992 0 0 -1.75335c0,-0.125057 0.102316,-0.227373 0.227373,-0.227373l7.36393 0c0.125057,0 0.227373,0.10236 0.227373,0.227373l0 6.54219c0,0.125013 -0.10236,0.227373 -0.227373,0.227373l-7.36393 0c-0.124986,0 -0.227373,-0.102316 -0.227373,-0.227373l0 -1.63093 -0.648992 0z"/>
  <path class="fil1 str0" d="M0.00891485 5.25751l3.54337 0 0 1.06699 3.54337 -2.13399 -3.54337 -2.13399 0 1.06699 -3.54337 0 0 2.134zm1.77167 0m1.77169 0.533491m1.77167 -0.5335m0 -2.13399m-1.77167 -0.5335m-1.77169 0.5335m-1.77167 1.067"/>
 </g>
</svg>
