<?xml version="1.0" encoding="UTF-8"?>
<!DOCTYPE svg PUBLIC "-//W3C//DTD SVG 1.1//EN" "http://www.w3.org/Graphics/SVG/1.1/DTD/svg11.dtd">
<!-- Creator: CorelDRAW X7 -->
<svg xmlns="http://www.w3.org/2000/svg" xml:space="preserve" width="500px" height="500px" class="svg" version="1.1" style="shape-rendering:geometricPrecision; text-rendering:geometricPrecision; image-rendering:optimizeQuality; fill-rule:evenodd; clip-rule:evenodd"
viewBox="0 0 500 500"
 xmlns:xlink="http://www.w3.org/1999/xlink">
 <defs>
  <style type="text/css">
   <![CDATA[
    .fil0 {fill:#FEFEFE}
   ]]>
  </style>
 </defs>
 <g id="Layer_x0020_1">
  <metadata id="CorelCorpID_0Corel-Layer"/>
  <rect class="fil0" x="61" y="188" width="85.1991" height="74.229"/>
  <rect class="fil0" x="61" y="280" width="85.1991" height="74.229"/>
  <rect class="fil0" x="61" y="372" width="85.1991" height="74.229"/>
  <rect class="fil0" x="163" y="188" width="85.1991" height="74.229"/>
  <rect class="fil0" x="163" y="280" width="85.1991" height="74.229"/>
  <rect class="fil0" x="163" y="372" width="85.1991" height="74.229"/>
  <rect class="fil0" x="260" y="188" width="85.1991" height="74.229"/>
  <rect class="fil0" x="260" y="372" width="85.1991" height="74.229"/>
  <rect class="fil0" x="359" y="188" width="85.1991" height="74.229"/>
  <rect class="fil0" x="359" y="372" width="85.1991" height="74.229"/>
  <g id="_2439679015808">
   <path class="fil0" d="M265 341l0 2c-2,3 2,11 6,12l2 1c7,2 14,0 17,1 3,1 4,3 9,5l4 1c5,2 13,-4 14,-7 3,-9 -4,-11 -6,-17 -2,-4 -2,-13 -9,-15l-4 -1c-7,-3 -13,7 -17,8 -5,2 -12,1 -16,10z"/>
   <path class="fil0" d="M294 308l1 0c6,2 12,0 14,-4l0 0c3,-8 -2,-10 1,-19 0,-1 -1,-4 -3,-5l-1 0c-10,-3 -29,23 -12,28z"/>
   <path class="fil0" d="M312 307l-1 3c-1,3 1,7 5,8l3 2c5,1 15,-5 16,-9 3,-6 4,-17 -3,-19 -5,-2 -6,4 -10,7 -3,1 -8,5 -10,8z"/>
   <path class="fil0" d="M262 310c-3,7 -3,14 5,17 5,1 12,-2 14,-6l1 -2c1,-5 -1,-6 -3,-10 -2,-3 -1,-8 -5,-9 -3,-1 -11,6 -12,10z"/>
   <path class="fil0" d="M319 329l0 0c-2,5 0,10 4,11 8,3 16,-1 19,-8l1 -2c1,-3 2,-9 -2,-10l-1 0c-2,-1 -8,2 -12,3 -3,0 -8,2 -9,6z"/>
   <path class="fil0" d="M312 277c-1,1 -1,2 -3,1l-1 0c-1,-1 -2,-1 -1,-3 1,-3 6,-6 9,-5l-4 7z"/>
   <path class="fil0" d="M272 294c-1,2 0,2 2,3 2,0 2,0 3,-1l3 -8c-3,0 -6,3 -8,6z"/>
   <path class="fil0" d="M347 317c-2,2 -2,2 -4,1 -2,-1 -2,-1 -1,-3l5 -6c2,2 2,6 0,8z"/>
   <path class="fil0" d="M331 286c0,1 0,2 2,3l0 0c2,0 3,0 3,-1 1,-3 0,-8 -3,-9l-2 7z"/>
  </g>
  <g id="_2439633039008">
   <path class="fil0" d="M365 341l-1 2c-1,3 3,11 7,12l2 1c7,2 13,0 17,1 3,1 4,3 9,5l4 1c5,2 12,-4 14,-7 3,-9 -4,-11 -6,-17 -2,-4 -2,-13 -9,-15l-4 -1c-7,-3 -13,7 -17,8 -6,2 -13,1 -16,10z"/>
   <path class="fil0" d="M394 308l1 0c5,2 12,0 13,-4l1 0c3,-8 -2,-10 1,-19 0,-1 -1,-4 -3,-5l-1 0c-10,-3 -29,23 -12,28z"/>
   <path class="fil0" d="M412 307l-1 3c-1,3 1,7 5,8l3 2c5,1 14,-5 16,-9 2,-6 3,-17 -3,-19 -5,-2 -6,4 -10,7 -3,1 -9,5 -10,8z"/>
   <path class="fil0" d="M361 310c-2,7 -2,14 6,17 5,1 12,-2 14,-6l0 -2c2,-5 0,-6 -2,-10 -2,-3 -1,-8 -5,-9 -3,-1 -11,6 -13,10z"/>
   <path class="fil0" d="M419 329l-1 0c-1,5 1,10 5,11 7,3 16,-1 19,-8l1 -2c1,-3 1,-9 -2,-10l-2 0c-1,-1 -7,2 -11,3 -3,0 -8,2 -9,6z"/>
   <path class="fil0" d="M412 277c-1,1 -1,2 -3,1l-1 0c-2,-1 -2,-1 -1,-3 1,-3 5,-6 8,-5l-3 7z"/>
   <path class="fil0" d="M372 294c-1,2 0,2 2,3 1,0 2,0 3,-1l3 -8c-3,0 -6,3 -8,6z"/>
   <path class="fil0" d="M447 317c-2,2 -3,2 -5,1 -1,-1 -1,-1 0,-3l5 -6c1,2 1,6 0,8z"/>
   <path class="fil0" d="M431 286c0,1 0,2 2,3l0 0c2,0 2,0 3,-1 1,-3 0,-8 -3,-9l-2 7z"/>
  </g>
  <path class="fil0" d="M434 111l31 0c9,0 16,7 16,17l0 351c0,9 -7,17 -16,17l-425 0c-10,0 -17,-8 -17,-17l0 -351c0,-10 7,-17 17,-17l31 0 0 -75c0,-11 10,-20 21,-20l0 0c11,0 21,9 21,20l0 75 280 0 0 -75c0,-11 9,-20 21,-20l0 0c11,0 20,9 20,20l0 75zm24 359l-412 0c-4,0 -8,-4 -8,-9l0 -304c0,-5 4,-9 8,-9l412 0c5,0 9,4 9,9l0 304c0,5 -4,9 -9,9z"/>
 </g>
</svg>
