<?xml version="1.0" encoding="UTF-8"?>
<!DOCTYPE svg PUBLIC "-//W3C//DTD SVG 1.1//EN" "http://www.w3.org/Graphics/SVG/1.1/DTD/svg11.dtd">
<!-- Creator: CorelDRAW X7 -->
<svg xmlns="http://www.w3.org/2000/svg" xml:space="preserve" width="500px" height="500px" version="1.1" style="shape-rendering:geometricPrecision; text-rendering:geometricPrecision; image-rendering:optimizeQuality; fill-rule:evenodd; clip-rule:evenodd"
viewBox="0 0 500 500"
 xmlns:xlink="http://www.w3.org/1999/xlink">
 <defs>
  <style type="text/css">
   <![CDATA[
    .str0 {stroke:#FEFEFE;stroke-width:0.900003}
    .fil3 {fill:none}
    .fil0 {fill:#FEFEFE}
    .fil1 {fill:black}
    .fil2 {fill:#FEFEFE;fill-rule:nonzero}
   ]]>
  </style>
 </defs>
 <g id="Layer_x0020_1">
  <metadata id="CorelCorpID_0Corel-Layer"/>
  <rect class="fil0 str0" x="21" y="86" width="460" height="265" rx="28" ry="28"/>
  <g id="_1548797885360">
   <path class="fil1 str0" d="M49 252l0 1c0,2 3,5 4,5l1 0c3,0 5,-3 7,-3 1,0 2,1 4,1l2 0c2,0 4,-3 4,-5 -1,-4 -4,-4 -6,-6 -1,-2 -2,-6 -5,-6l-2 0c-3,0 -4,5 -5,6 -2,2 -5,3 -4,7z"/>
   <path class="fil1 str0" d="M54 233l0 0c2,0 5,-2 4,-4l0 0c0,-4 -2,-4 -2,-8 -1,-1 -2,-2 -2,-2l-1 0c-4,0 -7,14 1,14z"/>
   <path class="fil1 str0" d="M60 230l0 1c0,2 2,4 4,4l1 0c2,0 5,-5 4,-7 0,-3 -1,-8 -4,-8 -2,0 -1,3 -3,5 0,1 -2,3 -2,5z"/>
   <path class="fil1 str0" d="M42 238c0,4 1,7 5,7 2,0 4,-2 4,-4l0 -1c0,-2 -1,-3 -3,-4 -1,-1 -1,-3 -3,-3 -1,0 -3,4 -3,5z"/>
   <path class="fil1 str0" d="M67 239l0 0c0,2 1,4 3,4 3,0 6,-3 6,-6l0 -1c0,-2 -1,-4 -3,-4l0 0c-1,0 -3,2 -4,3 -1,0 -3,2 -2,4z"/>
   <path class="fil1 str0" d="M55 217c0,0 0,1 -1,1l0 0c-1,0 -1,-1 -1,-1 0,-2 1,-4 2,-4l0 4z"/>
   <path class="fil1 str0" d="M43 230c0,1 0,1 1,1 1,0 1,0 1,-1l0 -4c-1,1 -2,2 -2,4z"/>
   <path class="fil1 str0" d="M75 230c0,1 -1,1 -1,0 -1,0 -1,0 -1,-1l0 -3c1,0 2,2 2,4z"/>
   <path class="fil1 str0" d="M64 218c0,0 0,1 1,1l0 0c1,0 1,0 1,-1 0,-2 -2,-4 -3,-4l1 4z"/>
  </g>
  <g id="_1548797884432">
   <path class="fil1 str0" d="M238 272l0 -1c0,-2 -3,-5 -5,-5l0 0c-4,0 -5,2 -7,2 -1,0 -2,0 -4,0l-2 0c-2,0 -4,3 -4,5 0,4 3,4 5,6 2,2 3,6 6,6l2 0c3,0 4,-5 5,-6 2,-2 4,-3 4,-7z"/>
   <path class="fil1 str0" d="M233 291l0 0c-3,0 -5,2 -5,4l0 0c1,4 3,4 3,8 0,1 1,2 2,2l0 0c5,0 7,-14 0,-14z"/>
   <path class="fil1 str0" d="M226 294l0 -1c0,-2 -1,-4 -3,-4l-1 0c-3,0 -5,4 -5,7 0,3 2,8 5,8 2,0 1,-3 2,-5 1,-1 3,-3 2,-5z"/>
   <path class="fil1 str0" d="M245 285c0,-3 -2,-6 -5,-6 -2,0 -4,2 -4,4l0 1c0,2 1,3 2,4 2,1 2,3 4,3 1,0 3,-4 3,-6z"/>
   <path class="fil1 str0" d="M220 285l0 0c0,-2 -1,-4 -3,-4 -4,0 -6,3 -6,6l0 1c0,2 1,4 2,4l1 0c1,0 2,-2 4,-3 1,-1 2,-2 2,-4z"/>
   <path class="fil1 str0" d="M232 307c0,0 0,-1 1,-1l0 0c1,0 1,1 1,1 0,2 -1,4 -2,4l0 -4z"/>
   <path class="fil1 str0" d="M244 294c0,-1 -1,-1 -2,-1 0,0 0,0 0,1l0 4c1,-1 2,-2 2,-4z"/>
   <path class="fil1 str0" d="M212 294c0,-1 0,-1 1,-1 1,1 1,1 1,1l-1 4c-1,0 -1,-2 -1,-4z"/>
   <path class="fil1 str0" d="M223 306c0,-1 0,-1 -1,-1l0 0c-1,0 -1,0 -1,1 0,1 1,3 3,4l-1 -4z"/>
  </g>
  <g id="_1548797878736">
   <path class="fil1 str0" d="M77 241l0 1c-2,1 -2,5 -1,6l1 1c2,2 5,2 6,3 1,1 1,2 2,4l2 1c1,1 5,0 6,-1 3,-3 1,-5 1,-8 0,-2 2,-6 0,-8l-1 -1c-2,-3 -6,1 -8,1 -3,0 -5,-2 -8,1z"/>
   <path class="fil1 str0" d="M94 231l0 1c2,1 5,2 6,0l0 0c3,-3 1,-4 4,-8 0,-1 1,-2 0,-3l0 0c-3,-3 -15,5 -10,10z"/>
   <path class="fil1 str0" d="M101 234l-1 1c-1,1 -1,3 0,4l1 1c2,2 6,1 8,-1 2,-2 4,-7 2,-9 -1,-1 -3,1 -5,2 -1,0 -4,1 -5,2z"/>
   <path class="fil1 str0" d="M82 227c-2,3 -4,6 -1,8 1,2 4,2 6,0l0 -1c2,-1 1,-3 1,-4 0,-2 1,-4 0,-5 -1,-1 -5,1 -6,2z"/>
   <path class="fil1 str0" d="M99 244l0 1c-2,1 -2,4 -1,5 3,2 7,2 9,0l1 -1c1,-1 2,-4 1,-5l-1 0c0,-1 -3,0 -4,-1 -2,0 -4,0 -5,1z"/>
   <path class="fil1 str0" d="M107 221c-1,0 -1,0 -2,0l0 -1c0,0 0,0 0,-1 1,-1 3,-2 4,-1l-2 3z"/>
   <path class="fil1 str0" d="M89 222c-1,0 -1,1 0,1 0,1 1,1 1,0l3 -2c-1,-1 -3,-1 -4,1z"/>
   <path class="fil1 str0" d="M111 244c0,1 -1,0 -1,0 -1,-1 0,-1 0,-2l3 -2c0,1 0,3 -2,4z"/>
   <path class="fil1 str0" d="M112 228c0,0 -1,1 0,1l0 0c1,1 1,1 1,0 1,-1 2,-3 1,-4l-2 3z"/>
  </g>
  <g id="_1548797875024">
   <path class="fil1 str0" d="M210 283l0 -1c1,-1 1,-5 0,-6l0 -1c-3,-2 -5,-2 -6,-3 -1,-1 -1,-2 -3,-4l-1 -1c-1,-2 -5,-1 -7,1 -2,3 0,5 0,8 -1,2 -2,6 0,8l1 1c2,2 6,-1 8,-1 2,0 5,2 8,-1z"/>
   <path class="fil1 str0" d="M193 293l-1 -1c-1,-1 -4,-2 -5,0l-1 0c-2,3 -1,4 -4,8 0,0 0,2 1,3l0 0c3,3 15,-5 10,-10z"/>
   <path class="fil1 str0" d="M186 290l1 -1c1,-1 1,-3 0,-5l-1 -1c-2,-1 -6,0 -8,2 -2,2 -4,7 -2,8 1,2 3,-1 5,-1 1,0 4,-1 5,-2z"/>
   <path class="fil1 str0" d="M205 297c2,-3 4,-6 1,-8 -1,-2 -5,-2 -6,0l0 1c-2,1 -1,2 -1,4 0,2 -2,4 0,5 0,1 5,-1 6,-2z"/>
   <path class="fil1 str0" d="M188 279l0 0c1,-1 2,-4 0,-5 -2,-3 -6,-2 -8,0l-1 1c-1,1 -2,4 -1,5l0 0c1,0 4,0 5,0 1,1 4,1 5,-1z"/>
   <path class="fil1 str0" d="M180 303c1,0 1,0 2,0l0 1c0,0 0,0 0,1 -1,1 -3,1 -4,1l2 -3z"/>
   <path class="fil1 str0" d="M198 302c1,0 1,-1 0,-1 -1,-1 -1,-1 -1,0l-3 2c1,1 3,0 4,-1z"/>
   <path class="fil1 str0" d="M175 280c1,-1 1,-1 2,0 0,1 0,1 0,2l-3 2c-1,-1 0,-3 1,-4z"/>
   <path class="fil1 str0" d="M175 296c0,0 0,-1 0,-1l0 0c-1,-1 -1,-1 -2,0 -1,1 -1,3 0,4l2 -3z"/>
  </g>
  <g id="_1548797872752">
   <path class="fil1 str0" d="M146 225l-1 0c-2,0 -5,3 -5,5l0 1c0,3 3,5 3,6 0,1 -1,2 -1,4l0 2c0,2 3,4 5,4 4,0 4,-3 6,-5 2,-1 6,-3 6,-6l0 -2c0,-3 -5,-3 -6,-4 -2,-2 -3,-5 -7,-5z"/>
   <path class="fil1 str0" d="M165 230l0 1c0,2 2,4 4,4l0 0c4,0 4,-2 8,-3 1,0 2,-1 2,-2l0 0c0,-4 -14,-7 -14,0z"/>
   <path class="fil1 str0" d="M168 237l-1 0c-2,0 -4,1 -4,3l0 2c0,2 5,4 7,4 3,0 8,-2 8,-4 0,-3 -3,-2 -5,-3 -1,-1 -3,-2 -5,-2z"/>
   <path class="fil1 str0" d="M160 218c-4,1 -7,2 -7,5 0,3 2,5 4,5l1 -1c2,0 3,-1 4,-2 1,-1 3,-2 3,-4 0,-1 -4,-3 -5,-3z"/>
   <path class="fil1 str0" d="M159 243l0 0c-2,0 -4,2 -4,4 0,3 3,5 6,5l1 0c2,0 4,-1 4,-2l0 -1c0,0 -2,-2 -3,-3 0,-2 -2,-3 -4,-3z"/>
   <path class="fil1 str0" d="M181 232c0,-1 -1,-1 -1,-2l0 0c0,-1 1,-1 1,-1 2,0 4,1 4,3l-4 0z"/>
   <path class="fil1 str0" d="M168 220c-1,0 -1,0 -1,1 0,0 0,1 1,1l4 0c-1,-2 -2,-2 -4,-2z"/>
   <path class="fil1 str0" d="M168 251c-1,0 -1,0 -1,-1 1,-1 1,-1 2,-1l3 1c0,1 -2,2 -4,1z"/>
   <path class="fil1 str0" d="M180 240c0,0 -1,0 -1,1l0 0c0,1 0,1 1,1 2,0 3,-1 4,-2l-4 0z"/>
  </g>
  <g id="_1548797869040">
   <path class="fil1 str0" d="M141 299l1 0c1,0 4,-3 4,-5l0 -1c0,-3 -2,-5 -2,-6 0,-1 1,-2 1,-4l0 -2c0,-2 -3,-4 -5,-4 -5,0 -4,3 -7,5 -1,1 -5,3 -5,6l0 2c0,3 5,3 6,4 2,2 2,5 7,5z"/>
   <path class="fil1 str0" d="M122 294l0 -1c0,-2 -2,-4 -4,-4l0 0c-4,0 -4,2 -9,3 0,0 -1,1 -1,2l0 0c0,4 14,7 14,0z"/>
   <path class="fil1 str0" d="M119 287l1 0c2,0 3,-2 3,-3l0 -2c0,-2 -4,-4 -6,-4 -3,0 -8,2 -8,4 0,3 3,2 5,3 1,1 3,2 5,2z"/>
   <path class="fil1 str0" d="M127 305c4,0 7,-1 7,-4 0,-3 -2,-5 -4,-5l-1 0c-3,1 -3,2 -4,3 -1,1 -4,2 -4,4 0,1 5,3 6,2z"/>
   <path class="fil1 str0" d="M128 281l0 0c2,0 4,-2 4,-4 0,-3 -3,-5 -6,-5l-1 0c-2,0 -5,1 -5,2l0 1c0,0 3,2 3,3 1,2 3,3 5,3z"/>
   <path class="fil1 str0" d="M105 292c1,1 1,1 1,1l0 1c0,0 0,1 -1,1 -1,0 -3,-1 -3,-3l3 0z"/>
   <path class="fil1 str0" d="M119 304c1,0 1,0 1,-1 0,-1 0,-1 -1,-1l-4 0c0,1 2,2 4,2z"/>
   <path class="fil1 str0" d="M118 273c1,0 1,0 1,1 0,1 0,1 -1,1l-4 -1c1,-1 3,-2 4,-1z"/>
   <path class="fil1 str0" d="M107 284c0,0 1,0 1,-1l0 -1c0,0 -1,0 -1,0 -2,0 -4,1 -4,2l4 0z"/>
  </g>
  <g id="_1548797867152">
   <path class="fil1 str0" d="M188 218l-1 0c-1,-1 -5,0 -6,1l-1 1c-1,3 0,6 -1,7 -1,1 -2,1 -3,3l-1 2c-1,1 1,5 3,6 4,2 5,-1 8,-2 2,0 6,1 8,-2l1 -1c1,-3 -3,-6 -3,-8 -1,-2 0,-5 -4,-7z"/>
   <path class="fil1 str0" d="M202 232l0 0c-2,2 -1,5 1,6l0 0c3,2 4,0 9,2 0,0 2,0 2,-1l0 0c2,-4 -9,-13 -12,-7z"/>
   <path class="fil1 str0" d="M201 239l-1 0c-1,-1 -4,-1 -4,1l-1 1c-1,2 1,6 3,7 3,1 8,3 9,0 1,-2 -2,-2 -2,-4 -1,-1 -2,-4 -4,-5z"/>
   <path class="fil1 str0" d="M203 219c-3,-2 -7,-2 -8,1 -2,2 0,5 1,6l1 0c2,1 3,0 5,0 2,0 4,0 5,-1 0,-1 -3,-5 -4,-6z"/>
   <path class="fil1 str0" d="M190 240l0 0c-2,-1 -4,-1 -5,1 -2,3 0,7 2,8l1 1c2,0 5,1 5,0l1 -1c0,0 -1,-3 -1,-5 0,-1 -1,-3 -3,-4z"/>
   <path class="fil1 str0" d="M215 241c0,0 0,0 0,-1l0 0c1,-1 1,-1 2,-1 1,1 2,3 1,4l-3 -2z"/>
   <path class="fil1 str0" d="M210 224c-1,0 -1,0 -2,1 0,0 0,1 1,1l3 2c0,-1 -1,-3 -2,-4z"/>
   <path class="fil1 str0" d="M194 252c-1,-1 -1,-1 0,-2 1,0 1,0 1,0l3 3c-1,0 -3,0 -4,-1z"/>
   <path class="fil1 str0" d="M210 248c-1,0 -1,0 -1,1l0 0c-1,0 -1,1 0,1 1,1 4,0 4,-1l-3 -1z"/>
  </g>
  <g id="_1548797864144">
   <path class="fil1 str0" d="M99 306l1 0c1,1 5,0 6,-1l0 -1c2,-3 1,-6 2,-7 0,-1 2,-1 3,-3l1 -2c1,-1 -1,-5 -3,-6 -4,-2 -5,1 -8,1 -2,1 -6,0 -8,3l-1 1c-1,3 3,6 3,8 1,2 0,5 4,7z"/>
   <path class="fil1 str0" d="M85 292l0 0c1,-2 1,-5 -1,-6l0 0c-4,-2 -5,0 -9,-2 0,0 -2,0 -2,1l-1 0c-2,4 9,13 13,7z"/>
   <path class="fil1 str0" d="M85 285l2 0c1,1 3,1 4,-1l1 -1c1,-2 -1,-6 -3,-7 -3,-1 -8,-3 -9,0 -2,2 1,2 2,4 1,1 2,4 3,5z"/>
   <path class="fil1 str0" d="M84 305c3,1 6,2 8,-1 1,-2 0,-5 -2,-6l0 0c-3,-1 -4,0 -5,0 -2,0 -4,0 -5,1 -1,1 2,5 4,6z"/>
   <path class="fil1 str0" d="M96 284l1 0c1,1 4,0 5,-1 2,-3 0,-7 -3,-8l-1 -1c-1,0 -4,-1 -5,0l0 1c0,0 1,3 1,4 0,2 1,4 2,5z"/>
   <path class="fil1 str0" d="M71 283c1,0 1,0 1,1l-1 0c0,1 0,1 -1,1 -1,-1 -2,-3 -2,-4l3 2z"/>
   <path class="fil1 str0" d="M77 299c1,1 1,1 2,0 0,-1 0,-1 -1,-1l-3 -2c0,1 0,3 2,3z"/>
   <path class="fil1 str0" d="M93 272c0,0 0,1 0,1 -1,1 -1,1 -2,1l-3 -3c1,0 3,0 5,1z"/>
   <path class="fil1 str0" d="M77 276c0,0 1,0 1,-1l0 0c1,-1 1,-1 0,-1 -1,-1 -4,-1 -5,0l4 2z"/>
  </g>
  <g id="_1548797858736">
   <path class="fil1 str0" d="M138 219l-1 -1c-1,-1 -4,-2 -6,-2l-1 1c-2,1 -3,4 -4,5 -1,0 -2,0 -4,1l-2 1c-2,1 -2,5 -1,7 3,3 5,2 8,3 2,0 5,3 8,2l1 -1c3,-2 1,-6 2,-8 0,-3 2,-5 0,-8z"/>
   <path class="fil1 str0" d="M143 238l0 0c-2,1 -3,4 -2,5l0 1c2,3 4,2 6,6 1,0 3,0 3,0l1 0c3,-2 -2,-16 -8,-12z"/>
   <path class="fil1 str0" d="M139 244l-1 -1c-1,-2 -3,-2 -4,-2l-2 1c-2,1 -1,6 0,8 1,2 5,6 8,4 1,-1 -1,-3 0,-5 0,-1 0,-4 -1,-5z"/>
   <path class="fil1 str0" d="M151 227c-2,-3 -5,-5 -8,-3 -2,1 -3,4 -2,6l1 0c1,2 3,2 4,3 2,0 3,2 5,1 1,-1 0,-6 0,-7z"/>
   <path class="fil1 str0" d="M129 239l0 0c-1,-2 -4,-3 -5,-2 -3,2 -4,6 -2,8l1 1c1,2 3,4 4,3l0 -1c1,0 1,-3 2,-4 1,-1 1,-3 0,-5z"/>
   <path class="fil1 str0" d="M150 253c0,-1 0,-1 1,-2l0 0c0,0 1,0 1,0 1,2 1,4 0,5l-2 -3z"/>
   <path class="fil1 str0" d="M154 235c-1,-1 -1,-1 -2,0 0,0 -1,0 0,1l2 3c1,-1 1,-2 0,-4z"/>
   <path class="fil1 str0" d="M126 251c0,-1 0,-1 1,-1 1,0 1,0 1,0l2 4c-2,0 -3,-1 -4,-3z"/>
   <path class="fil1 str0" d="M142 256c0,-1 -1,-1 -1,0l-1 0c0,0 0,0 0,1 1,1 3,2 4,2l-2 -3z"/>
  </g>
  <g id="_1548797857040">
   <path class="fil1 str0" d="M149 305l0 1c1,1 5,2 7,2l0 -1c3,-1 4,-4 5,-5 1,-1 2,0 4,-1l2 -1c1,-1 1,-5 0,-7 -2,-3 -5,-2 -7,-3 -2,-1 -6,-3 -8,-2l-2 1c-2,2 0,6 -1,8 0,3 -3,4 0,8z"/>
   <path class="fil1 str0" d="M144 286l0 0c2,-1 3,-4 2,-6l0 0c-2,-3 -4,-2 -7,-6 0,0 -2,-1 -2,0l-1 0c-3,2 1,16 8,12z"/>
   <path class="fil1 str0" d="M148 280l1 1c0,2 3,2 4,2l1 -1c2,-1 2,-6 1,-8 -2,-2 -5,-6 -8,-5 -2,2 0,4 0,6 0,1 0,4 1,5z"/>
   <path class="fil1 str0" d="M136 297c2,3 5,5 8,3 2,-1 2,-4 1,-6l0 -1c-2,-2 -3,-1 -5,-2 -1,0 -3,-2 -4,-1 -1,1 -1,5 0,7z"/>
   <path class="fil1 str0" d="M158 285l0 0c1,2 3,3 5,2 3,-2 3,-6 2,-8l-1 -1c-1,-2 -3,-4 -4,-3l-1 0c0,1 0,4 -1,5 -1,1 -1,3 0,5z"/>
   <path class="fil1 str0" d="M137 271c0,1 0,1 -1,2l0 0c-1,0 -1,0 -1,-1 -1,-1 -1,-3 0,-4l2 3z"/>
   <path class="fil1 str0" d="M133 289c0,1 1,1 2,0 0,0 0,0 0,-1l-2 -3c-1,0 -1,2 0,4z"/>
   <path class="fil1 str0" d="M160 273c1,1 1,1 0,1 -1,0 -1,0 -2,-1l-1 -3c1,0 3,1 3,3z"/>
   <path class="fil1 str0" d="M145 268c0,0 0,1 1,0l0 0c1,0 1,0 1,-1 -1,-1 -3,-2 -5,-2l3 3z"/>
  </g>
  <g id="_1548797853296">
   <path class="fil1 str0" d="M234 224l-1 -1c0,-1 -4,-3 -5,-3l-1 0c-3,1 -4,4 -6,4 -1,0 -2,0 -4,0l-2 1c-2,0 -3,4 -2,6 1,4 4,3 6,5 2,1 4,4 7,3l2 0c3,-1 2,-6 3,-7 1,-3 4,-4 3,-8z"/>
   <path class="fil1 str0" d="M234 244l-1 0c-2,0 -4,3 -3,5l0 0c1,4 3,3 5,7 0,1 2,2 2,1l1 0c4,-1 3,-15 -4,-13z"/>
   <path class="fil1 str0" d="M228 249l0 -2c-1,-1 -3,-3 -4,-2l-2 0c-2,1 -3,5 -2,7 1,3 3,8 6,7 2,-1 1,-3 1,-5 1,-1 2,-4 1,-5z"/>
   <path class="fil1 str0" d="M244 235c-2,-3 -4,-6 -7,-5 -2,1 -4,4 -3,6l0 0c1,3 3,3 4,4 1,0 3,2 4,2 1,0 2,-5 2,-7z"/>
   <path class="fil1 str0" d="M220 242l0 -1c-1,-2 -3,-3 -5,-3 -3,1 -5,5 -4,8l1 1c0,1 2,4 3,3l1 0c0,0 1,-3 2,-4 1,-1 2,-3 2,-4z"/>
   <path class="fil1 str0" d="M237 260c0,-1 0,-1 0,-1l1 0c0,0 1,0 1,0 0,2 0,4 -2,4l0 -3z"/>
   <path class="fil1 str0" d="M245 244c-1,-1 -1,-1 -2,-1 0,0 -1,1 0,1l1 4c1,-1 1,-2 1,-4z"/>
   <path class="fil1 str0" d="M214 253c0,-1 0,-2 1,-2 1,0 1,0 1,1l1 4c-2,0 -3,-2 -3,-3z"/>
   <path class="fil1 str0" d="M228 261c0,0 -1,-1 -1,-1l-1 0c0,1 0,1 0,1 0,2 2,3 3,3l-1 -3z"/>
  </g>
  <g id="_1548797849360">
   <path class="fil1 str0" d="M53 300l0 0c1,2 5,4 6,4l1 0c3,-1 4,-4 6,-4 1,0 2,0 4,0l2 -1c2,0 3,-4 2,-6 -1,-4 -4,-3 -6,-5 -2,-1 -5,-4 -8,-4l-1 1c-3,1 -2,6 -3,7 -2,2 -4,4 -3,8z"/>
   <path class="fil1 str0" d="M53 280l1 0c2,-1 3,-3 3,-5l0 0c-2,-4 -4,-3 -5,-7 -1,-1 -2,-2 -3,-2l0 0c-4,2 -3,16 4,14z"/>
   <path class="fil1 str0" d="M59 275l0 2c1,1 2,3 4,2l2 0c2,-1 3,-6 2,-7 -1,-3 -4,-8 -6,-7 -2,0 -1,3 -2,5 0,1 -1,4 0,5z"/>
   <path class="fil1 str0" d="M43 288c1,4 3,7 7,6 2,-1 3,-4 3,-6l-1 0c0,-3 -2,-3 -3,-4 -2,0 -3,-3 -5,-2 -1,0 -1,5 -1,6z"/>
   <path class="fil1 str0" d="M67 282l0 1c1,2 3,3 5,3 3,-1 4,-5 3,-8l0 -1c-1,-1 -2,-4 -3,-3l-1 0c0,0 -2,3 -3,4 -1,1 -2,3 -1,4z"/>
   <path class="fil1 str0" d="M50 264c0,0 0,1 -1,1l0 0c-1,0 -1,0 -1,0 -1,-2 0,-4 1,-5l1 4z"/>
   <path class="fil1 str0" d="M42 280c0,1 1,1 2,1 0,-1 0,-1 0,-1l-1 -4c-1,1 -1,2 -1,4z"/>
   <path class="fil1 str0" d="M73 271c0,1 0,2 -1,2 -1,0 -1,-1 -1,-1l-1 -4c1,0 3,2 3,3z"/>
   <path class="fil1 str0" d="M59 263c0,0 0,1 1,1l0 -1c1,0 1,0 1,-1 -1,-1 -2,-3 -4,-2l2 3z"/>
  </g>
  <g>
   <path class="fil1" d="M417 164c-1,1 -17,18 -17,18 -10,16 15,7 17,7 8,0 28,6 18,-9 -3,-5 -12,-18 -18,-16z"/>
   <path id="1" class="fil2" d="M400 182l-1 0 0 0 0 0 1 0 0 -1 0 0 0 0 1 -1 0 0 1 -1 1 -1 0 0 1 -1 1 -1 0 -1 1 0 1 -1 1 -1 1 -1 0 -1 1 0 1 -1 1 -1 0 -1 1 0 1 -1 0 -1 1 0 0 -1 1 0 0 0 0 -1 0 0 1 0 0 1 0 0 0 0 0 0 -1 0 0 1 -1 0 0 1 -1 0 -1 1 0 1 -1 0 -1 1 0 1 -1 1 -1 1 -1 0 -1 1 0 1 -1 1 -1 1 -1 0 0 1 -1 1 0 0 -1 1 -1 1 0 0 0 0 -1 1 0 0 0 0 0 0 0 0zm17 7l0 1 0 0 0 0 0 0 -1 0 0 0 -1 0 -1 0 -1 1 -1 0 -1 0 -1 0 -1 0 -1 1 -1 0 -1 0 -1 0 -1 0 -1 0 -1 0 -1 0 -1 0 -1 0 0 -1 -1 0 0 -1 -1 0 0 -1 0 -1 0 -1 0 -1 1 -1 0 -2 1 -1 1 0 -1 2 -1 1 0 1 0 1 0 1 0 1 0 0 0 1 1 0 0 1 1 0 0 0 1 0 1 0 1 1 1 0 1 -1 1 0 1 0 1 0 1 0 1 0 1 -1 1 0 1 0 1 0 1 0 0 -1 1 0 1 0 0 0 0 0 0 0zm18 -9l1 0 0 0 1 1 0 2 1 1 0 1 0 1 0 1 0 0 0 1 0 1 -1 0 0 1 -1 0 -1 0 0 0 -1 0 -1 1 -1 0 -1 0 -1 0 -1 -1 -1 0 -1 0 -1 0 -1 0 -1 0 -1 0 -1 0 -1 0 -1 0 -1 0 -1 0 -1 0 0 -1 1 0 1 0 1 0 1 0 1 0 1 0 1 0 1 0 1 1 1 0 1 0 1 0 1 0 1 0 1 0 1 0 1 0 0 0 1 0 1 -1 0 0 1 0 0 -1 0 0 1 -1 0 0 0 -1 -1 -1 0 -1 0 -1 -1 -1 -1 -2 0 0zm-18 -15l0 -1 0 0 0 0 1 0 1 0 0 0 1 0 1 0 0 1 1 0 1 0 0 1 1 0 1 1 0 1 1 0 1 1 1 0 0 1 1 1 0 1 1 0 1 1 0 1 1 0 0 1 1 1 0 1 1 0 0 1 1 0 0 1 0 0 1 1 -1 0 0 0 -1 -1 0 0 0 -1 -1 0 0 -1 -1 -1 0 0 -1 -1 0 -1 -1 -1 0 0 -1 -1 -1 -1 0 0 -1 -1 -1 -1 0 0 -1 -1 -1 -1 0 0 -1 -1 -1 0 0 0 -1 -1 -1 0 0 0 -1 0 0 -1 -1 0 -1 0 0 1 0 0z"/>
  </g>
  <g>
   <path class="fil1" d="M444 144c-11,8 -22,30 -2,30 17,0 14,-38 2,-30z"/>
   <path id="1" class="fil2" d="M442 173l0 1 0 0 -2 0 -2 0 -1 0 -1 -1 -1 0 -1 -1 -1 -1 -1 -1 -1 0 0 -1 0 -1 0 -2 0 -1 0 -1 0 -1 0 -1 0 -2 1 -1 0 -1 1 -1 0 -2 1 -1 1 -1 1 -1 1 -1 0 -1 1 -2 1 -1 1 -1 1 0 1 -1 1 -1 1 1 -1 0 -1 1 -1 1 -1 1 -1 1 -1 1 -1 1 -1 1 0 1 -1 2 -1 1 -1 1 0 1 -1 1 0 2 0 1 -1 1 0 1 0 1 0 1 0 1 1 1 0 1 1 1 0 1 1 0 1 1 1 0 1 1 2 0 1 0 2 0 0 0zm2 -28l-1 -1 0 0 1 -1 2 0 1 0 1 0 1 0 1 1 0 0 1 1 1 1 0 1 1 2 0 1 1 1 0 2 0 1 0 2 0 1 0 2 0 2 0 1 -1 2 0 1 -1 2 -1 1 0 1 -1 1 -1 1 -1 1 -2 1 -1 1 -2 0 -1 0 0 -1 1 0 2 0 1 -1 1 0 1 -1 1 -1 1 -1 1 -1 0 -2 1 -1 0 -1 1 -2 0 -1 0 -2 0 -2 0 -1 0 -2 0 -1 0 -2 0 -1 -1 -1 0 -1 -1 -2 0 0 -1 -1 -1 -1 -1 0 0 0 -1 -1 -1 1 -1 0 -1 1 0 0z"/>
  </g>
  <g>
   <path class="fil1" d="M390 144c-7,7 -6,40 12,29 15,-9 -6,-34 -12,-29z"/>
   <path id="1" class="fil2" d="M402 172l0 1 0 0 -1 1 -2 1 -1 0 -2 0 -1 0 -1 0 -2 0 -1 -1 -1 -1 0 -1 -1 0 -1 -2 -1 -1 0 -1 0 -1 -1 -2 0 -1 0 -2 0 -1 0 -2 0 -1 0 -2 0 -1 0 -2 0 -1 1 -2 0 -1 1 -1 0 -1 1 -1 0 -1 1 -1 1 1 -1 0 -1 1 0 1 -1 1 0 1 -1 1 0 2 0 1 0 2 -1 1 0 2 0 1 0 2 0 1 1 2 0 1 0 1 1 2 0 1 1 1 0 1 1 1 1 1 1 1 1 0 1 0 1 1 1 0 1 -1 2 0 1 -1 2 -1 0 0zm-11 -27l-1 -1 0 0 1 0 0 -1 1 0 1 0 1 1 1 0 1 0 1 1 1 1 1 1 1 1 1 1 1 1 1 1 1 1 0 1 1 1 1 2 0 1 1 1 0 2 1 1 0 2 0 1 0 1 0 1 -1 2 0 1 -1 1 -1 1 -1 1 -2 1 0 -1 1 0 1 -1 1 -1 1 -1 1 -1 0 -2 0 -1 0 -1 0 -1 0 -2 0 -1 -1 -1 0 -2 -1 -1 -1 -1 0 -2 -1 -1 -1 -1 -1 -1 -1 -1 -1 -1 -1 -1 -1 -1 -1 0 0 -1 -1 0 -1 -1 -1 0 -1 0 0 0 -1 0 0 1 0 0z"/>
  </g>
  <g>
   <path class="fil1" d="M432 119c1,3 9,2 11,14 1,7 -2,14 -10,14 -16,-1 -16,-28 -1,-28z"/>
   <path id="1" class="fil2" d="M442 133l0 0 0 -1 0 -1 0 -1 0 -1 -1 -1 0 0 0 -1 -1 -1 0 0 -1 -1 0 0 0 -1 -1 0 0 0 -1 -1 0 0 0 0 -1 -1 0 0 -1 0 0 0 -1 -1 0 0 0 0 -1 0 0 -1 0 0 -1 0 0 0 0 -1 0 0 -1 0 1 -1 0 1 0 0 1 0 0 0 0 1 0 0 1 0 0 0 0 1 1 0 0 0 1 0 0 1 1 0 0 0 0 0 1 1 0 0 1 1 0 0 1 0 0 1 0 1 1 0 0 1 1 0 0 1 0 1 0 1 1 1 0 1 0 1 0 0 -1 0zm-9 13l0 0 1 0 0 0 1 0 1 0 0 0 1 0 0 0 1 -1 0 0 1 0 0 -1 1 0 0 0 1 -1 0 0 0 -1 0 0 1 -1 0 0 0 -1 0 0 0 -1 0 0 1 -1 0 -1 0 0 0 -1 0 0 0 -1 0 -1 -1 0 0 -1 1 0 0 0 0 1 0 1 0 1 0 0 0 1 0 1 0 0 0 1 0 0 0 1 0 1 0 0 -1 1 0 0 0 1 -1 0 0 1 0 0 -1 1 0 0 -1 0 0 1 -1 0 0 0 -1 0 0 1 -1 0 -1 0 -1 0 0 0 -1 0 0 0 0 -1zm-2 -27l1 0 -1 0 -2 0 -1 1 -1 0 -1 1 -1 0 0 1 -1 1 -1 1 0 1 -1 1 0 1 0 2 0 1 -1 1 0 1 0 2 1 1 0 1 0 1 1 1 0 2 1 1 0 1 1 1 1 0 1 1 1 1 1 0 1 1 2 0 1 0 0 1 -2 0 -1 -1 -1 0 -1 -1 -2 0 0 -1 -1 -1 -1 -1 -1 -1 -1 -1 0 -1 0 -2 -1 -1 0 -1 0 -1 0 -2 0 -1 0 -1 0 -2 0 -1 1 -1 0 -1 1 -1 0 -1 1 -1 1 -1 1 -1 1 -1 1 0 1 0 1 -1 2 0 0 0 -1 1zm1 -1l0 0 0 0 0 0z"/>
  </g>
  <g>
   <path class="fil1" d="M430 115c-2,0 -3,0 -5,1 0,-2 0,-4 0,-7 3,1 5,3 5,6z"/>
   <path id="1" class="fil2" d="M426 116l-1 0 0 0 1 0 0 0 0 0 0 0 0 -1 0 0 0 0 1 0 0 0 0 0 0 0 0 0 0 0 0 0 1 0 0 0 0 0 0 0 0 0 0 0 0 0 1 0 0 0 0 0 0 0 0 0 0 0 1 0 0 0 0 0 0 0 0 0 0 0 0 0 0 0 -1 0 0 0 0 0 0 0 0 0 0 0 -1 0 0 0 0 0 0 0 0 0 0 0 0 1 0 0 -1 0 0 0 0 0 0 0 0 0 0 0 0 0 0 0 0 0 -1 0 0 0 0 0 0 0 0 1 0 0 -1 -1 1 0zm0 1l-1 0 0 -1 1 1zm-1 -8l1 0 0 0 0 1 0 0 0 0 0 0 0 1 0 0 0 0 0 0 0 0 0 1 0 0 0 0 -1 0 0 1 1 0 0 0 0 0 0 0 0 1 0 0 0 0 0 0 0 1 0 0 0 0 0 0 0 0 0 1 0 0 0 0 0 0 -1 0 0 0 0 0 0 0 0 0 0 -1 0 0 0 0 0 0 0 -1 0 0 0 0 0 0 0 0 0 -1 0 0 0 0 0 0 0 -1 0 0 0 0 0 0 0 -1 0 0 0 0 0 0 0 -1 0 0 0 0 0 0 0 0 0 -1 0 0 1 0 -1 0zm0 0l0 0 1 0 -1 0zm5 6l0 0 0 0 0 -1 0 0 0 0 0 0 0 0 -1 -1 0 0 0 0 0 0 0 -1 0 0 0 0 0 0 0 0 0 -1 -1 0 0 0 0 0 0 0 0 -1 0 0 -1 0 0 0 0 0 0 0 0 0 -1 0 0 0 0 0 0 -1 -1 0 1 0 0 0 0 0 0 0 1 0 0 0 0 0 0 0 1 1 0 0 0 0 0 0 0 0 1 0 0 1 0 0 0 0 0 0 0 0 1 1 0 0 0 0 0 0 0 1 0 0 0 0 0 0 0 1 0 0 0 0 1 0 0 1 0 0 -1 0 0 0zm1 0l0 0 -1 0 1 0z"/>
  </g>
  <g>
   <path class="fil1" d="M393 143c-2,0 -2,0 -4,1 0,-2 0,-4 0,-6 2,0 4,2 4,5z"/>
   <path id="1" class="fil2" d="M389 144l0 -1 0 0 0 0 0 0 0 0 0 0 1 0 0 0 0 0 0 0 0 0 0 0 0 0 0 0 0 -1 1 0 0 0 0 0 0 0 0 0 0 0 0 0 0 0 0 0 1 0 0 0 0 0 0 0 0 0 0 0 1 0 0 0 0 0 0 1 0 0 0 0 -1 0 0 0 0 0 0 0 0 0 0 0 0 0 -1 0 0 0 0 0 0 0 0 0 0 0 0 0 0 0 0 0 0 0 0 0 -1 0 0 0 0 0 0 0 0 0 0 0 0 1 0 0 0 0 0 0 -1 0 0 0 0 0 0 0zm0 0l0 0 0 0 0 0zm0 -6l0 0 0 0 0 0 0 0 0 1 0 0 0 0 0 0 0 0 0 1 0 0 0 0 0 0 0 0 0 0 0 1 0 0 0 0 0 0 0 0 0 1 0 0 0 0 0 0 0 0 0 0 0 1 0 0 0 0 0 0 0 0 0 1 0 0 0 0 0 0 0 -1 0 0 0 0 0 0 0 0 0 0 -1 -1 0 0 0 0 0 0 0 0 0 -1 0 0 0 0 0 0 0 0 0 -1 0 0 0 0 0 0 0 0 0 0 0 -1 0 0 0 0 1 0 0 0 0 -1 0 0 0 0 0 0 0 0 0 0zm0 0l0 -1 0 1 0 0zm4 4l0 1 -1 -1 0 0 0 0 0 0 0 0 0 -1 0 0 0 0 0 0 0 0 0 0 0 -1 0 0 0 0 0 0 -1 0 0 0 0 -1 0 0 0 0 0 0 0 0 0 0 -1 0 0 0 0 0 0 -1 0 0 0 0 -1 0 0 0 0 0 0 0 0 0 1 0 0 0 0 0 0 0 0 0 1 0 0 0 0 0 0 0 0 1 0 0 1 0 0 0 0 0 0 0 0 0 0 1 0 0 1 0 0 0 0 0 0 1 0 0 0 0 0 0 0 0 0 1 0 0 0 0 0 0 0 1 0 0 0 -1zm0 1l0 0 0 0 0 0z"/>
  </g>
  <g>
   <path class="fil1" d="M409 119c-1,3 -9,2 -11,14 -1,7 2,14 10,14 16,-1 16,-28 1,-28z"/>
   <path id="1" class="fil2" d="M399 133l-1 0 0 0 0 -1 0 -1 1 -1 0 -1 0 -1 1 -1 0 0 0 -1 1 0 0 -1 0 -1 1 0 0 0 1 -1 0 0 1 -1 0 0 1 0 0 0 0 -1 1 0 0 0 1 0 0 -1 0 0 1 0 0 0 0 -1 0 0 1 0 0 0 0 -1 1 1 -1 0 0 0 0 1 0 0 -1 0 0 0 0 1 -1 0 0 0 0 0 -1 1 0 0 -1 0 0 0 0 1 -1 0 0 0 -1 1 0 0 -1 0 0 1 0 0 -1 1 0 0 0 1 -1 1 0 0 0 1 -1 1 0 1 0 1 0 1 0 0zm9 13l0 1 0 0 -1 0 0 0 -1 0 -1 0 0 0 -1 -1 -1 0 0 0 -1 0 0 -1 -1 0 0 0 -1 -1 0 0 0 -1 -1 0 0 -1 0 0 0 -1 -1 0 0 -1 0 -1 0 0 0 -1 0 0 0 -1 0 -1 0 0 0 -1 0 -1 0 -1 0 0 1 0 0 1 0 0 -1 1 0 1 0 0 0 1 1 0 0 1 0 1 0 0 0 1 0 0 0 1 0 0 1 1 0 0 0 1 1 0 0 1 0 0 1 0 0 1 1 0 0 0 1 1 0 0 1 0 0 0 1 0 1 0 0 0 1 0 0 0zm2 -27l-1 -1 0 0 2 0 1 1 1 0 1 0 1 1 1 1 1 1 1 1 0 1 1 1 0 1 1 1 0 1 0 2 0 1 0 1 0 2 0 1 0 1 0 1 -1 2 0 1 -1 1 -1 1 -1 1 0 1 -1 1 -1 0 -2 1 -1 0 -1 1 -2 0 0 -1 2 0 1 0 1 -1 1 0 1 -1 1 -1 1 0 1 -1 0 -1 1 -1 0 -2 1 -1 0 -1 0 -1 1 -1 0 -2 0 -1 0 -1 -1 -1 0 -2 0 -1 -1 -1 0 -1 -1 -1 -1 -1 0 -1 -1 0 -1 -1 -1 0 -1 -1 -1 0 -2 0 1 0zm-1 -1l0 0 0 0 0 0z"/>
  </g>
  <g>
   <path class="fil1" d="M411 115c2,0 3,0 5,1 0,-2 0,-4 0,-7 -3,1 -5,3 -5,6z"/>
   <path id="1" class="fil2" d="M415 116l1 0 -1 1 0 0 0 -1 0 0 0 0 0 0 0 0 -1 0 0 0 0 0 0 0 0 0 0 0 0 0 0 0 -1 0 0 0 0 -1 0 0 0 0 0 0 0 0 0 0 0 0 -1 0 0 0 0 0 0 0 0 0 0 0 -1 0 0 0 0 0 0 0 0 0 0 0 1 0 0 0 0 0 0 0 0 0 0 0 1 0 0 0 0 0 0 0 0 0 0 0 0 0 1 0 0 0 0 0 0 0 0 0 0 0 0 0 1 0 0 0 0 0 0 0 0 1 0 0 0 0 1 0 0 0 0 0 -1 0zm1 0l0 1 -1 0 1 -1zm0 -7l0 0 0 0 0 0 0 1 0 0 0 0 0 0 0 0 0 1 0 0 0 0 0 0 0 1 0 0 0 0 0 0 0 1 0 0 0 0 0 0 0 1 0 0 0 0 0 0 0 0 0 1 0 0 0 0 0 0 0 1 0 0 0 0 0 0 0 0 -1 0 0 0 0 0 0 0 0 -1 0 0 0 0 0 0 1 0 0 -1 0 0 0 0 0 0 0 -1 0 0 0 0 0 0 0 0 0 -1 0 0 0 0 0 0 0 -1 0 0 0 0 0 0 0 0 -1 -1 0 0 0 0 0 0 0 -1 0 0 1 0zm0 0l0 0 0 0 0 0zm-5 6l0 0 0 0 0 0 0 -1 0 0 0 0 0 0 0 -1 0 0 0 0 0 0 0 -1 0 0 0 0 1 0 0 -1 0 0 0 0 0 0 0 0 0 -1 1 0 0 0 0 0 0 0 1 0 0 -1 0 0 0 0 0 0 1 0 0 0 0 0 1 0 0 0 -1 0 0 1 0 0 0 0 0 0 -1 0 0 0 0 0 0 0 0 0 -1 0 0 1 0 0 0 0 0 0 0 0 -1 1 0 0 0 0 0 0 0 0 0 1 0 0 0 0 0 0 0 1 -1 0 0 0 0 0 0 0 0 1 0 0 0 0zm0 0l-1 0 1 0 0 0z"/>
  </g>
  <g>
   <path class="fil1" d="M446 142c2,0 3,0 4,1 0,-2 1,-4 0,-6 -2,1 -3,3 -4,5z"/>
   <path id="1" class="fil2" d="M450 143l1 0 -1 0 0 0 0 0 0 0 -1 0 0 0 0 0 0 0 0 0 0 0 0 -1 0 0 0 0 0 0 0 0 -1 0 0 0 0 0 0 0 0 0 0 0 0 0 0 0 0 0 0 0 -1 0 0 0 0 0 0 0 0 0 0 0 0 0 -1 0 0 -1 1 0 0 0 0 0 0 0 0 0 0 0 1 0 0 1 0 0 0 0 0 0 0 0 0 0 0 0 0 0 1 0 0 0 0 0 0 0 0 0 0 0 0 0 0 0 0 0 1 0 0 0 0 0 0 0 0 0 0 0 0 1 0 0 0 0zm1 0l-1 1 0 -1 1 0zm-1 -5l0 -1 1 0 0 0 0 1 0 0 0 0 0 0 0 0 0 1 0 0 0 0 0 0 0 0 0 0 0 1 0 0 0 0 0 0 0 0 0 1 0 0 0 0 0 0 0 0 0 0 0 1 0 0 0 0 0 0 0 0 0 0 0 1 0 0 0 0 -1 0 0 0 0 0 0 -1 0 0 0 0 0 0 0 0 0 0 0 -1 0 0 0 0 0 0 0 0 0 -1 0 0 0 0 0 0 0 0 0 0 0 -1 0 0 0 0 0 0 0 0 0 0 0 -1 0 0 0 0 0 0 0 0 0 0 0 -1 0 1zm0 -1l0 0 1 0 -1 0zm-4 4l0 1 0 0 0 0 0 -1 0 0 0 0 0 0 0 0 0 -1 0 0 1 0 0 0 0 0 0 -1 0 0 0 0 0 0 0 0 0 0 1 -1 0 0 0 0 0 0 0 0 0 0 0 0 1 -1 0 0 0 0 0 0 0 0 1 0 0 0 0 0 0 1 0 0 0 0 0 0 -1 0 0 0 0 0 0 0 0 0 0 0 0 0 -1 0 0 1 0 0 0 0 0 0 0 0 0 0 0 0 0 0 -1 1 0 0 0 0 0 0 0 0 0 1 0 0 0 0 0 0 0 0 0 0 0 1 0 0 -1 -1zm0 1l0 0 0 0 0 0z"/>
  </g>
  <rect class="fil3 str0" x="373" y="103" width="90.0003" height="105" rx="15" ry="15"/>
 </g>
</svg>
