<?xml version="1.0" encoding="UTF-8"?>
<!DOCTYPE svg PUBLIC "-//W3C//DTD SVG 1.1//EN" "http://www.w3.org/Graphics/SVG/1.1/DTD/svg11.dtd">
<!-- Creator: CorelDRAW X7 -->
<svg xmlns="http://www.w3.org/2000/svg" xml:space="preserve" width="500px" height="500px" class="svg" version="1.1" style="shape-rendering:geometricPrecision; text-rendering:geometricPrecision; image-rendering:optimizeQuality; fill-rule:evenodd; clip-rule:evenodd"
viewBox="0 0 500 500"
 xmlns:xlink="http://www.w3.org/1999/xlink">
 <defs>
  <style type="text/css">
   <![CDATA[
    .str0 {stroke:#2B2A29;stroke-width:0.900003}
    .fil1 {fill:none}
    .fil0 {fill:#FEFEFE}
   ]]>
  </style>
 </defs>
 <g id="Layer_x0020_1">
  <metadata id="CorelCorpID_0Corel-Layer"/>
  <path class="fil0 str0" d="M421 494l-338 0c-11,0 -20,-8 -20,-19l0 -271 189 -139 189 140 0 270c0,11 -9,19 -20,19zm-193 -170c-3,-1 -92,22 -93,23 -66,34 29,56 38,61 24,14 69,78 75,7 2,-22 2,-85 -20,-91zm126 -10c-48,2 -132,53 -72,93 52,36 128,-95 72,-93zm-160 -111c-38,6 -110,116 -29,119 65,2 57,-124 29,-119zm185 73c-13,25 -35,42 -59,23 -88,-73 138,-159 59,-23zm-136 -96c-19,21 -27,47 -1,62 100,58 101,-183 1,-62z"/>
  <path class="fil1 str0" d="M252 52l-203 148c-9,7 -21,4 -29,-4l0 0c-8,-8 -4,-22 5,-28l227 -168 228 168c9,6 12,20 4,28l0 0c-8,8 -20,11 -29,4l-203 -148z"/>
 </g>
</svg>
