<?xml version="1.0" encoding="UTF-8"?>
<!DOCTYPE svg PUBLIC "-//W3C//DTD SVG 1.1//EN" "http://www.w3.org/Graphics/SVG/1.1/DTD/svg11.dtd">
<!-- Creator: CorelDRAW X7 -->
<svg xmlns="http://www.w3.org/2000/svg" xml:space="preserve" width="500px" height="500px" class="svg" version="1.1" style="shape-rendering:geometricPrecision; text-rendering:geometricPrecision; image-rendering:optimizeQuality; fill-rule:evenodd; clip-rule:evenodd"
viewBox="0 0 500 500"
 xmlns:xlink="http://www.w3.org/1999/xlink">
 <defs>
  <style type="text/css">
   <![CDATA[
    .str0 {stroke:#2B2A29;stroke-width:0.900003}
    .str1 {stroke:black;stroke-width:0.900003}
    .fil0 {fill:none}
    .fil1 {fill:#FEFEFE}
   ]]>
  </style>
 </defs>
 <g id="Layer_x0020_1">
  <metadata id="CorelCorpID_0Corel-Layer"/>
  <path class="fil0 str0" d="M252 52l-203 148c-9,7 -21,4 -29,-4l0 0c-8,-8 -4,-22 5,-28l227 -168 228 168c9,6 12,20 4,28l0 0c-8,8 -20,11 -29,4l-203 -148z"/>
  <path class="fil1 str1" d="M315 243c-1,0 -40,10 -40,10 -29,14 12,24 16,26 10,6 30,33 32,3 1,-9 1,-36 -8,-39zm-148 43l1 3c3,5 15,9 20,7l3 -1c9,-5 11,-14 15,-16 4,-1 8,0 14,-3l5 -3c6,-3 6,-16 3,-21 -7,-12 -15,-7 -24,-11 -6,-3 -16,-12 -25,-7l-5 2c-9,5 -3,20 -5,25 -2,8 -9,14 -2,25zm26 28c0,1 2,2 2,3l0 1c1,1 0,1 -1,2 0,0 0,1 0,2 0,3 2,8 6,6l1 0c2,-1 2,-4 1,-6l0 -1c-1,-2 -8,-8 -9,-7l0 0 0 0zm-112 -152l0 0 0 -3 -1 0 0 1 1 2zm-1 0l0 0 0 -3 -1 0 0 1 1 2zm289 76c-21,1 -57,23 -31,41 22,15 55,-41 31,-41zm-69 -47c-16,3 -47,50 -12,51 28,1 24,-53 12,-51zm79 0c-1,6 9,13 0,30 -6,12 -15,19 -26,11 -19,-15 7,-54 26,-41zm2 -6c-4,-2 -4,-3 -8,-2 2,-4 4,-8 7,-11 3,3 3,9 1,13zm-76 6c-3,-2 -3,-3 -6,-2 1,-3 3,-6 6,-9 2,3 2,7 0,11zm45 -20c-5,4 -15,-4 -28,11 -9,9 -13,21 -1,28 21,13 48,-26 29,-39zm6 -4c3,3 3,3 4,7 3,-3 6,-7 7,-11 -4,-2 -8,1 -11,4zm19 70c3,2 3,3 4,5 2,-2 4,-5 5,-8 -3,-1 -6,1 -9,3zm-222 -12l2 -1c6,-3 10,-11 6,-17l0 -1c-6,-11 -12,-7 -20,-20 -2,-1 -6,-3 -9,-2l-1 0c-12,6 1,52 22,41zm15 -19l2 4c2,4 9,7 14,5l4 -2c7,-4 7,-19 4,-25 -5,-8 -17,-21 -24,-17 -7,4 0,11 -1,17 -1,4 -2,14 1,18zm-41 52c6,10 14,17 24,12 7,-3 10,-13 6,-19l-1 -2c-4,-7 -8,-6 -14,-8 -5,-2 -10,-7 -15,-5 -3,2 -2,17 0,22zm72 -35l0 0c4,6 11,10 17,7 9,-4 12,-17 7,-26l-2 -3c-3,-5 -9,-11 -13,-9l-2 1c-1,1 -3,10 -6,14 -2,4 -4,11 -1,16zm-66 -47c0,1 1,3 -2,4l0 0c-2,1 -3,1 -4,-1 -3,-4 -2,-12 1,-14l5 11zm-15 55c2,3 3,3 5,2 2,-1 3,-2 2,-4l-6 -11c-3,3 -3,9 -1,13zm91 -47c1,3 1,4 -2,5 -2,0 -3,0 -4,-2l-4 -12c4,0 9,4 10,9zm-50 -17c2,1 3,2 5,1l1 -1c2,-1 2,-2 1,-4 -2,-4 -9,-7 -13,-6l6 10zm179 200c-8,0 -4,-8 -26,-3 -7,2 -15,5 -22,10 -23,20 6,30 21,37 13,5 35,24 45,-1 5,-11 -9,-44 -18,-43zm29 -30c-11,23 -5,8 -16,18 -6,6 -5,17 3,20 11,3 24,-32 13,-38zm-12 -11c-7,3 -32,25 -19,34 13,9 24,-36 19,-34zm21 34c-9,19 -6,7 -16,16 -5,6 -2,17 4,18 18,1 16,-30 12,-34zm-48 -8l3 -6c2,-4 -1,-5 2,-11 2,-4 5,-7 5,-9 1,-8 -12,4 -14,6 -6,7 -10,7 -10,18 1,13 12,6 14,2zm-15 -21c-7,1 -29,21 -13,29 6,3 11,-5 12,-10 0,-7 3,-19 1,-19zm-120 90c6,-3 13,-5 18,-10 3,-3 5,-5 6,-9 0,-3 1,-9 -1,-13 -1,-4 -7,-5 -10,-6 -3,-1 -7,-2 -10,-4 -2,-1 -6,-5 -9,-5 -2,0 -4,0 -6,0 -1,0 -4,0 -5,0 -3,1 -6,3 -8,5 0,0 0,0 -1,0 -1,1 -3,3 -4,4 -2,2 -3,4 -3,6 0,0 0,1 0,2 0,0 0,1 1,2 0,1 0,2 0,3 0,5 -1,9 -2,13 -1,2 -1,4 -2,6 -2,4 -3,6 0,10 1,1 2,2 3,2 10,4 25,-1 33,-6zm-24 -63l0 2c2,4 4,6 6,8 2,1 3,1 5,2 1,0 3,0 5,-1l0 0c2,0 4,-3 5,-4 1,-2 2,-4 2,-6 1,-4 2,-10 -1,-16l0 0c-2,-5 -5,-8 -8,-11 -1,-1 -2,-2 -4,-3 -2,0 -4,0 -6,1l-1 0c-3,1 -4,3 -5,5 -1,2 -1,4 -1,7 0,2 0,5 0,7 0,3 1,6 3,9zm51 -2l-2 -6c0,0 -2,-5 -3,-6 0,-1 -1,-3 -2,-4 -2,-3 -3,-6 -7,-5 -2,1 -3,2 -3,3 0,1 -1,2 -1,3 0,0 0,1 0,2 -1,1 -1,3 -1,4 -1,1 -1,3 -1,4 -1,2 -1,3 -2,4 0,2 -1,3 -1,5 0,1 -1,3 -1,4 0,0 -1,1 -1,2 0,0 0,2 1,2l0 1c1,4 6,6 9,8 2,0 3,1 5,2 1,2 3,2 5,1l0 0c4,-1 7,-6 7,-10 1,-2 1,-3 0,-6 0,-2 0,-3 -1,-4 0,0 -1,-4 -1,-4zm-92 47c0,1 1,2 2,3 1,0 2,1 3,2 1,1 2,1 3,2 1,1 4,2 6,2 5,1 7,1 10,-5 0,-2 1,-3 2,-5 0,-3 1,-10 0,-13 -2,-4 -8,-7 -11,-8 -3,-1 -10,-4 -13,-3 -1,1 -2,2 -2,2 -2,5 -4,19 0,23zm-4 -30c4,-1 4,-4 3,-7l-1 -2c-1,-2 -2,-4 -3,-5 -1,0 -2,-1 -2,-2 -1,0 -1,-2 -2,-2 -1,0 -1,8 -1,10 1,3 3,9 6,8zm13 -40l1 1c0,2 3,4 4,3l1 0c2,-1 4,-3 3,-6 -1,-1 -1,-2 -2,-4 -3,-3 -2,0 -5,-6 0,0 0,0 0,0 -1,1 -3,10 -2,12zm25 -25l0 0c-1,2 1,5 1,7 0,1 0,5 0,6l0 0c0,0 2,1 2,1 1,1 2,1 3,1l1 -1c3,-1 2,-2 1,-5l0 -1c-1,-2 -2,-3 -3,-5 -1,0 -2,-1 -2,-2 -1,0 -1,0 -3,-1zm4 51l0 2c2,4 2,7 1,10 0,2 -1,3 -2,4 -1,1 -3,3 -4,4l0 0c-2,0 -6,0 -7,-1 -2,0 -4,-1 -6,-2 -3,-3 -7,-7 -9,-12l-1 -1c-1,-5 -1,-10 -1,-13 1,-2 1,-3 2,-5 1,-2 2,-3 4,-4l1 0c3,-1 5,-1 7,0 2,1 4,3 5,4 2,2 4,4 5,6 2,2 3,6 5,8zm255 81l-338 0c-11,0 -20,-9 -20,-20l0 -216 189 -139 189 140 0 215c0,11 -9,20 -20,20z"/>
  <rect class="fil0 str0" x="22" y="440" width="458.965" height="54.9888" rx="27" ry="27"/>
 </g>
</svg>
