<?xml version="1.0" encoding="UTF-8"?>
<!DOCTYPE svg PUBLIC "-//W3C//DTD SVG 1.1//EN" "http://www.w3.org/Graphics/SVG/1.1/DTD/svg11.dtd">
<!-- Creator: CorelDRAW X7 -->
<svg xmlns="http://www.w3.org/2000/svg" xml:space="preserve" width="500px" height="500px" class="svg" version="1.1" style="shape-rendering:geometricPrecision; text-rendering:geometricPrecision; image-rendering:optimizeQuality; fill-rule:evenodd; clip-rule:evenodd"
viewBox="0 0 500 500"
 xmlns:xlink="http://www.w3.org/1999/xlink">
 <defs>
  <style type="text/css">
   <![CDATA[
    .fil0 {fill:#FEFEFE}
   ]]>
  </style>
 </defs>
 <g id="Layer_x0020_1">
  <metadata id="CorelCorpID_0Corel-Layer"/>
  <path class="fil0" d="M394 195c-1,0 -26,26 -26,27 -15,24 22,11 26,10 12,0 42,10 27,-13 -4,-7 -18,-27 -27,-24z"/>
  <path class="fil0" d="M434 165c-16,11 -32,44 -3,44 26,0 21,-56 3,-44z"/>
  <path class="fil0" d="M354 165c-11,10 -10,59 18,43 22,-13 -10,-51 -18,-43z"/>
  <path class="fil0" d="M416 127c2,5 14,4 16,21 2,11 -1,21 -14,20 -23,-1 -24,-41 -2,-41z"/>
  <path class="fil0" d="M414 121c-4,0 -5,0 -7,2 -1,-3 -1,-7 0,-11 4,1 6,5 7,9z"/>
  <path class="fil0" d="M358 162c-3,1 -4,1 -6,2 0,-3 -1,-6 0,-9 3,1 5,4 6,7z"/>
  <path class="fil0" d="M382 127c-2,5 -14,4 -16,21 -2,11 2,21 15,20 23,-1 23,-41 1,-41z"/>
  <path class="fil0" d="M385 121c3,0 4,0 7,2 0,-3 1,-7 0,-11 -4,1 -7,5 -7,9z"/>
  <path class="fil0" d="M438 161c3,0 3,0 6,2 0,-3 0,-6 0,-8 -4,0 -6,3 -6,6z"/>
  <path class="fil0" d="M352 103l88 0c13,0 23,10 23,23l0 111c0,13 -10,23 -23,23l-88 0c-13,0 -24,-10 -24,-23l0 -111c0,-13 11,-23 24,-23zm-303 -17l405 0c15,0 27,12 27,27l0 210c0,15 -12,28 -27,28l-405 0c-15,0 -28,-13 -28,-28l0 -210c0,-15 13,-27 28,-27zm-12 123l245 0 0 119 -245 0 0 -119z"/>
 </g>
</svg>
