<?xml version="1.0" encoding="UTF-8"?>
<!DOCTYPE svg PUBLIC "-//W3C//DTD SVG 1.1//EN" "http://www.w3.org/Graphics/SVG/1.1/DTD/svg11.dtd">
<!-- Creator: CorelDRAW X7 -->
<svg xmlns="http://www.w3.org/2000/svg" xml:space="preserve" width="500px" height="500px" class="svg" version="1.1" style="shape-rendering:geometricPrecision; text-rendering:geometricPrecision; image-rendering:optimizeQuality; fill-rule:evenodd; clip-rule:evenodd"
viewBox="0 0 500 500"
 xmlns:xlink="http://www.w3.org/1999/xlink">
 <defs>
  <style type="text/css">
   <![CDATA[
   <![CDATA[
    .str1 {stroke:#2B2A29;stroke-width:0.900003}
    .str0 {stroke:black;stroke-width:0.900003}
    .fil0 {fill:#FEFEFE}
    .fil1 {fill:black}
    .fil2 {fill:black;fill-rule:nonzero}
   ]]>
  </style>
 </defs>
 <g id="Layer_x0020_1">
  <metadata id="CorelCorpID_0Corel-Layer"/>
  <rect class="fil0 str0" x="61" y="188" width="85.1991" height="74.229"/>
  <rect class="fil0 str0" x="61" y="280" width="85.1991" height="74.229"/>
  <rect class="fil0 str0" x="61" y="372" width="85.1991" height="74.229"/>
  <rect class="fil0 str0" x="163" y="188" width="85.1991" height="74.229"/>
  <rect class="fil0 str0" x="163" y="280" width="85.1991" height="74.229"/>
  <rect class="fil0 str0" x="163" y="372" width="85.1991" height="74.229"/>
  <rect class="fil0 str0" x="260" y="188" width="85.1991" height="74.229"/>
  <rect class="fil0 str0" x="260" y="280" width="85.1991" height="74.229"/>
  <rect class="fil0 str0" x="260" y="372" width="85.1991" height="74.229"/>
  <rect class="fil0 str0" x="359" y="188" width="85.1991" height="74.229"/>
  <rect class="fil0 str0" x="359" y="280" width="85.1991" height="74.229"/>
  <rect class="fil0 str0" x="359" y="372" width="85.1991" height="74.229"/>
  <g id="_1548797439456">
   <g>
    <path class="fil1" d="M278 333l-1 1c-1,3 2,8 4,9l2 1c5,1 9,-1 11,0 2,1 3,2 7,3l2 1c4,1 9,-2 10,-5 2,-6 -3,-7 -4,-11 -1,-3 -1,-9 -6,-10l-3 -1c-5,-2 -9,5 -11,6 -4,1 -9,0 -11,6z"/>
    <path id="1" class="fil2" d="M277 334l0 -1 1 0 0 1 0 1 -1 -1zm4 9l0 0 0 0 0 0 0 0 -1 0 0 0 0 0 0 -1 -1 0 0 0 0 0 0 -1 -1 0 0 0 0 0 0 -1 0 0 0 0 -1 -1 0 0 0 0 0 -1 0 0 0 -1 0 0 0 0 0 -1 -1 0 0 0 0 -1 0 0 1 0 0 0 0 -1 1 1 -1 0 0 0 0 0 0 0 0 1 0 0 0 0 0 1 0 0 1 0 0 1 0 0 0 0 0 1 0 0 0 0 0 0 1 1 0 0 0 0 0 1 0 0 1 0 0 0 0 1 0 0 0 0 1 0 0 0 0 0 0 1 0 0 0 0zm2 1l-2 -1 0 0 2 0 0 0 0 1zm12 0l-1 1 0 0 0 -1 0 0 0 0 -1 0 0 0 0 0 0 0 -1 0 0 0 0 0 -1 0 0 0 0 0 -1 1 0 0 0 0 -1 0 0 0 -1 0 0 0 0 0 -1 0 0 0 -1 0 0 0 -1 0 0 -1 0 0 -1 0 0 0 -1 0 0 0 0 -1 0 0 1 0 0 0 1 1 0 0 1 0 0 0 0 0 1 0 0 0 1 0 0 0 0 0 1 0 0 0 1 0 0 0 0 0 1 0 0 0 0 0 1 0 0 0 0 -1 1 0 0 0 0 0 0 0 1 1 0 0 0 0 1 0 0 0zm6 3l-1 1 0 0 0 0 0 0 0 0 -1 -1 0 0 0 0 -1 0 0 0 0 0 0 0 0 0 -1 -1 0 0 0 0 0 0 0 0 0 0 -1 0 0 0 0 0 0 -1 0 0 0 0 -1 0 0 0 0 0 0 0 0 0 0 0 0 0 -1 0 0 0 1 -1 0 0 0 0 0 0 0 0 0 0 1 0 0 0 0 0 0 0 0 1 0 0 1 0 0 0 0 0 0 0 0 0 0 0 1 0 0 1 0 0 0 0 0 0 0 0 1 0 0 0 0 0 0 1 1 0 0 0 0 0 0 0 1 0 0 0zm2 2l-3 -1 1 -1 3 1 0 0 -1 1zm10 -6l0 0 0 0 0 1 0 0 0 0 0 1 0 0 -1 0 0 0 0 1 0 0 -1 0 0 0 0 1 -1 0 0 0 0 0 -1 1 0 0 -1 0 0 0 0 0 -1 1 0 0 0 0 -1 0 0 0 -1 0 0 0 0 0 -1 0 0 0 0 0 -1 0 1 -1 0 0 0 0 0 0 1 0 0 0 0 0 1 0 0 0 0 0 1 0 0 0 0 0 1 -1 0 0 0 0 1 0 0 0 0 -1 1 0 0 0 0 0 1 0 0 -1 0 0 0 0 1 0 0 -1 0 0 0 0 0 0 0 -1 1 0 0 0zm-5 -11l1 0 0 0 0 0 1 1 0 0 0 0 0 1 0 0 1 0 0 0 0 1 0 0 1 0 0 1 0 0 0 0 0 0 1 1 0 0 0 0 0 1 0 0 1 0 0 1 0 0 0 1 0 0 0 0 0 1 0 0 0 1 0 0 0 1 -1 0 0 0 0 0 0 -1 0 0 0 -1 0 0 0 -1 0 0 0 0 0 -1 0 0 0 0 0 -1 0 0 -1 0 0 0 0 -1 0 0 0 0 -1 -1 0 0 0 0 0 0 -1 -1 0 0 0 0 0 -1 -1 0 0 0 0 -1 0 0 0 0 -1 -1 0 0zm-5 -10l0 -1 0 0 1 1 0 0 0 0 1 0 0 0 1 1 0 0 0 0 0 1 1 0 0 0 0 1 0 0 0 0 1 1 0 0 0 1 0 0 0 0 0 1 0 0 0 1 0 0 1 0 0 1 0 0 0 0 0 1 0 0 0 0 0 1 0 0 -1 0 0 0 0 0 0 -1 0 0 0 0 0 -1 0 0 0 0 0 -1 0 0 -1 0 0 -1 0 0 0 -1 0 0 0 0 0 -1 0 0 -1 0 0 -1 0 0 0 0 0 -1 -1 0 0 0 0 -1 0 0 -1 0 0 0 0 0 -1 -1 0 0 0 0zm-3 -2l3 1 0 1 -3 -1 0 -1zm-11 7l-1 -1 0 0 1 0 0 0 0 0 0 0 1 -1 0 0 0 0 1 0 0 -1 0 0 1 0 0 0 0 -1 1 0 0 0 0 -1 1 0 0 0 0 0 1 -1 0 0 1 0 0 0 1 0 0 -1 0 0 1 0 0 0 1 0 0 0 1 0 0 0 0 1 0 0 -1 0 0 0 -1 0 0 0 0 0 -1 0 0 0 -1 0 0 1 0 0 -1 0 0 0 0 1 -1 0 0 0 -1 0 0 1 0 0 -1 0 0 1 0 0 -1 0 0 0 0 1 0 0 -1 0 0 0 0 1 -1 0 0 0 0 0 0 0zm-11 6l-1 0 0 0 0 -1 1 0 0 0 0 -1 0 0 1 -1 0 0 0 0 1 -1 0 0 0 0 1 0 0 -1 1 0 0 0 0 0 1 0 0 0 0 0 1 -1 0 0 1 0 0 0 0 0 1 0 0 0 1 0 0 0 0 0 1 -1 0 0 0 0 1 1 -1 0 0 0 0 0 -1 1 0 0 -1 0 0 0 0 0 -1 0 0 0 -1 0 0 0 0 0 -1 0 0 1 0 0 -1 0 0 0 0 0 -1 0 0 1 0 0 -1 0 0 0 0 1 -1 0 0 0 0 1 0 0 -1 0 0 1 0 0 0 0z"/>
   </g>
   <g>
    <path class="fil1" d="M297 311l1 0c4,1 8,0 9,-3l0 0c2,-6 -1,-6 1,-13 0,-1 -1,-3 -2,-3l0 0c-7,-3 -20,15 -9,19z"/>
    <path id="1" class="fil2" d="M298 311l-1 0 0 -1 1 1 0 0zm9 -3l1 0 0 0 -1 1 0 0 0 0 0 0 0 1 0 0 -1 0 0 0 0 0 0 1 -1 0 0 0 0 0 -1 0 0 0 0 1 -1 0 0 0 0 0 -1 0 0 0 0 0 -1 0 0 0 -1 0 0 0 0 0 -1 0 0 0 0 0 -1 0 0 -1 0 0 0 0 1 0 0 0 0 0 1 0 0 0 1 0 0 0 0 0 1 0 0 0 0 0 1 0 0 0 0 0 0 0 1 0 0 -1 0 0 1 0 0 0 0 0 0 0 1 0 0 -1 0 0 0 0 0 0 0 0 1 -1 0 0 0 0 0 0zm0 0l0 0 0 0 0 0zm1 0l0 0 -1 0 0 0 1 0 0 0zm0 0l0 0 0 0 0 0zm0 -13l1 0 0 0 0 1 -1 0 0 1 0 0 0 1 0 0 0 1 0 0 0 0 0 1 0 0 0 0 0 1 0 0 0 0 0 1 0 0 0 0 0 1 0 0 0 0 0 1 0 0 0 0 0 1 0 0 0 1 0 0 0 0 0 1 0 0 0 1 -1 0 0 -1 0 0 0 -1 0 0 1 -1 0 0 0 0 0 -1 0 0 0 0 0 -1 0 0 -1 0 0 0 0 -1 0 0 0 0 0 -1 0 0 0 0 0 -1 0 0 0 -1 0 0 0 0 0 -1 0 0 0 -1 0 0 1 -1 0 0 0 -1 0 0zm1 0l0 0 0 0 0 0zm-3 -3l0 -1 0 0 0 0 0 0 1 0 0 1 0 0 0 0 0 0 0 0 0 0 0 0 1 0 0 0 0 1 0 0 0 0 0 0 0 0 0 0 0 0 0 1 0 0 0 0 0 0 0 0 1 0 0 0 0 1 0 0 0 0 0 0 0 0 0 0 -1 0 0 0 0 0 0 0 0 0 0 0 0 0 0 0 0 0 0 -1 0 0 0 0 -1 0 0 0 0 0 0 0 0 0 0 -1 0 0 0 0 0 0 0 0 0 0 0 0 0 0 -1 0 0 -1 0 0 0 0 0 0 0 0 0 0 0 0 0 0zm0 -1l0 0 0 1 -1 0 0 0 1 -1zm-9 19l0 1 0 0 -1 0 -1 -1 -1 0 0 -1 -1 -1 0 0 -1 -1 0 -1 0 -1 0 -1 0 -1 1 -1 0 -1 0 0 1 -1 0 -1 1 -1 0 -1 1 -1 1 -1 0 0 1 -1 1 -1 1 0 0 -1 1 0 1 -1 1 0 0 0 1 0 1 0 1 0 -1 1 0 0 -1 0 0 0 -1 0 -1 0 -1 1 0 0 -1 0 -1 1 0 1 -1 0 -1 1 0 1 -1 0 -1 1 0 1 -1 1 0 1 0 1 -1 1 0 0 0 1 0 1 0 1 0 0 0 1 1 1 0 0 1 1 0 0 1 1 1 0 0 0z"/>
   </g>
   <g>
    <path class="fil1" d="M310 310l-1 2c-1,2 0,5 3,6l2 1c4,1 10,-4 11,-6 2,-4 3,-12 -2,-13 -3,-1 -4,3 -7,4 -1,1 -5,4 -6,6z"/>
    <path id="1" class="fil2" d="M309 312l0 -2 1 0 -1 2 0 0zm3 5l0 1 0 0 0 0 -1 0 0 0 0 0 0 0 -1 0 0 -1 0 0 0 0 0 0 0 0 -1 -1 0 0 0 0 0 0 0 -1 0 0 0 0 0 0 0 0 -1 -1 0 0 0 0 0 0 0 -1 0 0 0 0 0 0 0 -1 0 0 0 0 1 0 0 0 0 0 0 0 0 0 0 1 0 0 0 0 0 0 0 0 0 1 0 0 0 0 0 0 0 0 0 1 1 0 0 0 0 0 0 0 0 1 0 0 0 0 0 0 1 0 0 1 0 0 0 0 0 0 0 0 1 0 0 0 0 0 0 0 0 0zm2 2l-2 -1 0 -1 3 1 0 0 -1 1zm11 -7l1 1 0 0 0 0 -1 0 0 1 0 0 0 0 0 1 -1 0 0 0 0 1 -1 0 0 0 0 0 -1 1 0 0 -1 0 0 1 0 0 -1 0 0 0 -1 0 0 1 -1 0 0 0 0 0 -1 0 0 0 -1 0 0 0 -1 0 0 0 0 0 -1 0 1 -1 0 0 0 0 1 0 0 0 0 0 1 0 0 0 0 0 1 0 0 0 1 0 0 0 0 -1 1 0 0 0 1 0 0 0 0 -1 1 0 0 0 0 -1 1 0 0 0 0 0 1 -1 0 0 0 0 0 0 1 -1 0 0 0 0 0 -1 0 0zm-2 -12l1 -1 0 0 0 0 0 1 1 0 0 0 0 0 1 1 0 0 0 0 0 1 0 0 1 1 0 0 0 1 0 0 0 1 0 0 0 1 0 0 0 1 0 0 0 1 0 0 0 1 0 0 0 1 0 0 -1 1 0 0 0 0 0 1 0 0 0 1 -1 -1 0 0 0 0 0 -1 0 0 1 -1 0 0 0 -1 0 0 0 0 0 -1 0 0 0 -1 0 0 0 -1 0 0 0 -1 0 0 0 -1 0 0 0 -1 0 0 0 0 0 -1 -1 0 0 0 0 -1 0 0 -1 0 0 0 0 -1 0 0 -1 0 0 0zm-6 5l-1 -1 0 0 0 0 1 0 0 -1 0 0 0 0 1 0 0 0 0 -1 0 0 0 0 0 0 1 0 0 -1 0 0 0 0 0 0 1 -1 0 0 0 0 0 0 0 0 1 0 0 -1 0 0 0 0 1 0 0 0 0 0 1 0 0 0 0 0 1 0 -1 1 0 0 0 0 -1 0 0 0 0 0 0 0 0 0 -1 0 0 0 0 0 0 0 0 1 0 0 -1 0 0 0 0 0 0 0 0 1 -1 0 0 0 0 0 0 1 0 0 0 0 -1 0 0 1 0 0 0 0 -1 0 0 0 0 1 0 0 0 0zm-7 5l-1 0 0 0 0 -1 1 0 0 0 0 0 0 0 0 -1 0 0 1 0 0 0 0 0 0 -1 0 0 1 0 0 0 0 0 0 -1 1 0 0 0 0 0 0 0 1 -1 0 0 0 0 0 0 1 0 0 0 0 0 0 -1 1 0 0 0 0 0 0 0 1 1 -1 0 0 0 0 0 0 0 0 0 -1 0 0 1 0 0 0 0 -1 0 0 0 0 0 0 0 -1 1 0 0 0 0 0 0 -1 0 0 1 0 0 0 0 0 0 -1 0 0 1 0 0 0 0 0 0 0 0 -1 0 0 1 0 0 0 0 0 0z"/>
   </g>
   <g>
    <path class="fil1" d="M275 312c-2,5 -2,10 4,11 3,2 8,0 9,-3l1 -2c1,-3 -1,-4 -2,-6 -1,-2 -1,-6 -4,-7 -1,0 -7,5 -8,7z"/>
    <path id="1" class="fil2" d="M279 323l-1 1 0 0 0 0 -1 -1 0 0 0 0 -1 0 0 -1 -1 0 0 0 0 0 0 -1 -1 0 0 -1 0 0 0 0 0 -1 0 0 0 -1 0 0 -1 0 0 -1 0 0 1 -1 0 0 0 -1 0 0 0 -1 0 0 0 -1 0 0 0 0 1 -1 0 0 0 0 0 0 0 1 0 0 0 1 0 0 0 1 0 0 -1 0 0 1 0 0 0 1 0 0 0 0 0 1 0 0 1 1 0 0 0 0 0 1 0 0 0 0 0 1 1 0 0 0 0 1 0 0 1 0 0 0 0 0 1 1 0 0 1 0 0 0zm9 -3l1 0 0 0 -1 0 0 0 0 1 0 0 0 0 0 0 -1 1 0 0 0 0 -1 0 0 1 0 0 0 0 -1 0 0 0 0 0 -1 1 0 0 -1 0 0 0 0 0 -1 0 0 0 0 0 -1 0 0 0 -1 0 0 0 0 0 -1 0 0 0 -1 0 1 -1 0 0 0 0 1 0 0 0 0 0 1 0 0 0 1 0 0 0 0 0 1 0 0 0 0 0 1 0 0 0 0 0 1 0 0 -1 0 0 0 0 1 0 0 0 0 0 0 -1 1 0 0 0 0 0 0 -1 0 0 1 0 0 0 0 0 0 0zm1 -1l0 1 -1 0 0 -2 0 0 1 1zm-3 -7l1 -1 0 0 0 1 0 0 1 0 0 0 0 0 0 1 0 0 0 0 0 0 0 0 1 1 0 0 0 0 0 0 0 0 0 1 0 0 0 0 0 0 0 0 0 1 0 0 0 0 1 0 0 1 -1 0 0 0 0 0 0 1 0 0 0 0 0 1 -1 -1 0 0 0 0 0 0 1 -1 0 0 0 0 0 0 0 -1 0 0 0 0 0 0 0 0 -1 -1 0 0 0 0 0 0 0 0 0 0 0 -1 0 0 0 0 0 0 0 0 -1 0 0 -1 0 0 0 0 0 0 0 0 0 -1 0 0 -1 0 0 0zm-3 -6l1 -1 0 0 0 0 0 0 0 0 1 0 0 1 0 0 0 0 0 0 1 0 0 1 0 0 0 0 0 0 0 0 0 1 0 0 0 0 0 0 0 1 0 0 1 0 0 0 0 1 0 0 0 0 0 0 0 0 0 1 0 0 0 0 0 0 0 0 -1 1 0 0 0 -1 0 0 0 0 0 0 0 0 0 -1 0 0 0 0 0 0 0 -1 0 0 0 0 0 0 -1 -1 0 0 0 0 0 0 0 0 0 -1 0 0 0 0 0 0 0 0 0 0 -1 -1 0 0 0 0 0 0 0 0 0 0 -1 0 0 0zm-8 6l0 0 0 0 0 -1 0 0 0 0 0 0 0 -1 1 0 0 0 0 -1 0 0 1 0 0 0 0 -1 1 0 0 0 0 -1 1 0 0 0 0 0 1 -1 0 0 0 0 1 0 0 0 0 -1 1 0 0 0 0 0 1 0 0 0 0 0 0 0 1 0 -1 1 0 0 0 0 0 0 0 0 -1 0 0 0 0 0 0 0 -1 0 0 1 0 0 -1 0 0 0 0 0 0 1 -1 0 0 0 0 0 -1 1 0 0 0 0 -1 1 0 0 0 0 0 0 -1 1 0 0 0 0 0 0 0 1 0 0 -1 0 0 0z"/>
   </g>
   <g>
    <path class="fil1" d="M314 325l0 0c-1,3 0,7 3,8 5,1 11,-1 13,-6l1 -1c0,-3 1,-6 -2,-7l-1 0c0,-1 -5,2 -7,2 -3,0 -6,2 -7,4z"/>
    <path id="1" class="fil2" d="M314 325l0 0 1 0 -1 1 0 -1 0 0zm3 7l0 1 0 0 0 0 -1 0 0 0 0 0 0 -1 -1 0 0 0 0 0 0 0 -1 -1 0 0 0 0 0 0 0 -1 0 0 0 0 -1 0 0 -1 0 0 0 0 0 0 0 -1 0 0 0 0 0 -1 0 0 0 0 0 -1 0 0 0 0 0 0 1 -1 0 1 0 0 0 0 0 0 0 1 0 0 0 0 0 0 0 1 0 0 0 0 0 0 0 1 0 0 0 0 0 0 0 1 1 0 0 0 0 0 0 0 0 1 0 0 0 0 1 0 0 0 0 1 0 0 0 0 0 0 1 0 0 0 0 0 0 0zm12 -5l1 0 0 0 0 1 0 0 0 1 -1 0 0 0 0 1 0 0 -1 1 0 0 -1 0 0 0 0 1 -1 0 0 0 -1 0 0 1 -1 0 0 0 0 0 -1 0 0 0 -1 1 0 0 -1 0 -1 0 0 0 -1 0 0 0 -1 0 0 -1 -1 0 0 0 0 -1 1 0 0 1 1 0 0 0 1 0 0 0 1 0 0 0 0 0 1 0 0 0 1 -1 0 0 1 0 0 0 1 0 0 0 0 -1 1 0 0 0 1 0 0 0 0 -1 1 0 0 0 0 -1 0 0 1 0 0 -1 0 0 0 0 0 -1 0 0zm2 -1l-1 1 -1 0 1 -1 0 0 1 0zm-2 -7l1 0 0 0 0 0 0 0 0 0 0 0 1 0 0 0 0 1 0 0 0 0 0 0 0 0 0 1 1 0 0 0 0 0 0 1 0 0 0 0 0 1 0 0 0 0 0 0 0 1 -1 0 0 0 0 0 0 1 0 0 0 0 0 0 0 1 0 0 -1 0 0 -1 0 0 0 0 0 0 0 0 1 -1 0 0 0 0 0 0 0 -1 0 0 0 0 0 0 0 -1 0 0 0 0 0 0 0 -1 0 0 0 0 0 0 -1 0 0 -1 0 0 0 0 0 0 0 0 0 0 0 0 0 0 -1 -1 0 0 0 0zm0 -1l1 1 -1 0 -1 0 0 0 1 -1zm-8 3l0 -1 0 0 0 0 0 0 0 0 1 0 0 0 0 0 0 0 1 0 0 0 0 0 1 0 0 0 0 -1 1 0 0 0 0 0 0 0 1 0 0 0 0 0 0 0 1 0 0 -1 0 0 0 0 1 0 0 0 0 0 0 0 0 0 0 0 1 0 -1 1 0 0 0 0 0 0 0 0 0 0 0 0 0 0 -1 0 0 0 0 0 0 0 -1 1 0 0 0 0 0 0 -1 0 0 0 0 0 -1 0 0 0 0 0 0 1 -1 0 0 0 0 0 -1 0 0 0 0 0 0 0 -1 0 0 0 0 0 0 0zm-6 4l-1 0 0 0 0 0 0 -1 0 0 0 0 0 0 1 -1 0 0 0 0 0 0 0 0 1 0 0 -1 0 0 0 0 0 0 1 0 0 0 0 0 0 -1 1 0 0 0 0 0 0 0 1 0 0 0 0 0 0 0 1 0 0 0 0 0 0 -1 1 0 0 1 0 0 -1 0 0 0 0 0 0 1 -1 0 0 0 0 0 0 0 -1 0 0 0 0 0 0 0 0 0 -1 0 0 1 0 0 0 0 -1 0 0 0 0 0 0 0 0 1 0 0 -1 0 0 0 0 0 0 0 0 1 0 0 0 0 0 0 0 0z"/>
   </g>
   <g>
    <path class="fil1" d="M310 290c-1,0 -1,1 -3,0l0 0c-1,0 -1,-1 -1,-2 1,-2 4,-4 6,-3l-2 5z"/>
    <path id="1" class="fil2" d="M308 290l0 0 0 0 0 0 0 0 0 0 0 0 0 0 0 0 0 0 0 0 0 0 0 0 0 0 0 0 0 0 1 0 0 0 0 0 0 0 0 0 0 0 0 0 0 0 0 0 0 0 0 0 0 -1 0 0 0 0 0 0 0 0 0 0 0 0 1 1 0 0 0 0 0 0 0 0 0 0 0 0 0 0 0 0 -1 0 0 0 0 0 0 0 0 0 0 1 0 0 0 0 0 0 0 0 0 0 0 0 0 0 -1 0 0 0 0 0 0 0 0 0 0 0 0 0 0 0 0 0 -1 0 0 0 0 0 1 -1zm-1 0l0 0 1 0 -1 1 0 -1zm-1 -1l0 0 0 0 0 0 0 0 0 0 0 0 0 0 0 0 0 0 0 0 0 0 0 0 0 0 0 0 0 0 0 0 0 0 0 0 0 0 0 0 0 0 0 0 0 0 0 0 0 0 1 0 0 0 0 0 0 0 0 1 0 0 0 0 0 0 0 0 0 0 0 0 -1 0 0 0 0 0 0 0 0 0 0 0 0 0 0 0 0 0 0 0 0 0 0 0 0 0 0 0 -1 0 0 -1 0 0 0 0 0 0 0 0 0 0 0 0 0 0 0 0 0 0 0 0 0 -1 0 0 1 0 0 0 0 0 0 1zm6 -4l0 0 0 0 0 0 -1 0 0 0 0 0 0 0 0 0 -1 0 0 0 0 0 0 1 0 0 -1 0 0 0 0 0 0 0 0 0 -1 0 0 0 0 1 0 0 0 0 -1 0 0 0 0 0 0 0 0 1 0 0 0 0 0 0 -1 0 0 1 0 -1 0 0 0 0 0 0 0 -1 0 0 0 0 0 0 1 0 0 -1 0 0 0 0 0 0 1 0 0 0 0 -1 0 0 0 0 1 0 0 0 0 0 0 0 1 0 0 0 0 -1 0 0 1 0 0 0 0 0 0 0 1 0 0 0 0 0 0 1 0 0zm0 -1l1 1 -1 0 0 -1zm-2 6l0 0 -1 -1 3 -4 0 0 -2 5zm0 0l0 0 0 0 0 0z"/>
   </g>
   <g>
    <path class="fil1" d="M282 301c0,1 0,2 2,2 1,1 1,0 1,-1l3 -5c-2,0 -5,2 -6,4z"/>
    <path id="1" class="fil2" d="M284 303l-1 1 0 0 0 -1 0 0 0 0 0 0 0 0 0 0 0 0 -1 0 0 0 0 0 0 0 0 0 0 0 0 0 0 0 0 0 0 -1 0 0 0 0 0 0 0 0 0 0 0 0 0 0 0 0 0 -1 0 0 0 0 0 0 0 0 0 0 0 0 1 0 0 0 0 0 0 0 0 0 0 1 0 0 0 0 0 0 -1 0 0 0 0 0 0 0 1 0 0 0 0 0 0 0 0 0 0 0 0 0 0 0 0 0 0 0 0 0 0 0 0 0 0 0 0 0 0 1 0 0 0 0 1 0 0 0 0 0zm1 -1l1 1 0 0 0 0 0 0 0 0 0 0 0 0 0 0 0 0 -1 0 0 0 0 0 0 0 0 1 0 0 0 0 0 0 0 0 0 0 0 0 0 0 0 0 -1 0 0 0 0 0 0 0 0 0 0 0 0 0 0 0 0 0 0 0 -1 0 0 0 1 -1 0 0 0 0 0 0 0 0 0 0 0 0 0 0 0 0 0 0 0 0 0 0 1 0 0 0 0 0 0 0 0 0 0 0 0 0 0 0 0 0 0 0 0 0 0 0 0 0 0 0 0 0 0 0 0 0 0 0 0 -1 0 0 0 0 0 0zm3 -5l-2 6 -1 -1 2 -5 1 0 0 0zm0 0l0 0 0 0 0 0zm-5 4l-1 0 0 0 0 -1 0 0 0 0 0 0 1 0 0 -1 0 0 0 0 0 0 0 0 1 0 0 -1 0 0 0 0 0 0 0 0 1 0 0 0 0 0 0 -1 0 0 1 0 0 0 0 0 0 0 1 0 0 0 0 0 0 0 0 0 1 0 0 0 0 1 0 0 -1 0 0 0 0 0 0 0 0 0 0 0 -1 0 0 0 0 0 0 0 0 0 -1 0 0 0 0 1 0 0 0 0 0 0 -1 0 0 0 0 0 0 0 0 1 0 0 0 0 -1 0 0 0 0 0 0 0 0 1 0 0 0 0 0 0z"/>
   </g>
   <g>
    <path class="fil1" d="M333 317c-1,1 -1,1 -3,1 -1,-1 -1,-1 0,-2l3 -5c2,2 2,4 0,6z"/>
    <path id="1" class="fil2" d="M331 317l0 0 0 0 0 0 0 0 0 0 0 1 0 0 0 0 0 0 1 0 0 0 0 0 0 0 0 0 0 0 0 0 0 0 0 0 0 0 0 0 0 0 0 0 0 0 0 0 0 -1 0 0 0 0 1 0 0 0 0 0 0 0 0 0 0 0 1 0 0 1 -1 0 0 0 0 0 0 0 0 0 0 0 0 0 0 0 0 0 0 0 0 0 -1 0 0 1 0 0 0 0 0 0 0 0 0 0 0 0 0 0 -1 0 0 -1 0 0 0 0 0 0 0 0 0 0 0 0 0 0 -1 0 0 0 0 0 1 -1zm-1 -1l0 0 0 0 0 0 0 0 0 0 0 0 0 0 0 0 0 1 0 0 0 0 0 0 0 0 0 0 0 0 0 0 0 0 0 0 0 0 0 0 0 0 0 0 0 0 0 0 0 0 0 0 0 0 0 0 0 0 0 0 1 0 0 0 0 0 -1 1 0 0 0 0 0 0 0 0 0 0 0 0 0 0 0 0 0 -1 -1 0 0 0 0 0 0 0 0 0 0 0 0 0 0 0 0 0 0 0 0 0 0 -1 0 0 0 0 0 0 0 0 0 0 0 0 0 0 0 0 0 0 1 0 0 0 0 0 0 0zm3 -5l1 0 0 0 -4 5 0 0 3 -5zm0 0l0 -1 1 1 -1 0zm0 6l0 0 0 0 0 0 0 -1 0 0 0 0 0 0 1 0 0 -1 0 0 0 0 0 0 0 0 0 -1 0 0 0 0 0 0 0 0 0 0 0 -1 0 0 0 0 0 0 0 0 0 -1 0 0 -1 0 0 0 0 0 0 0 0 0 0 -1 0 0 1 0 0 0 0 0 0 0 0 0 0 1 0 0 0 0 0 0 0 0 1 1 0 0 0 0 0 0 0 1 0 0 0 0 0 0 0 0 0 1 0 0 0 0 0 0 -1 1 0 0 0 0 0 0 0 0 0 1 0 0 0 0 0 0 0 0 0 0 -1 0z"/>
   </g>
   <g>
    <path class="fil1" d="M322 296c0,0 0,1 2,1l0 1c1,0 2,0 2,-1 1,-2 0,-5 -2,-6l-2 5z"/>
    <path id="1" class="fil2" d="M324 297l0 1 0 0 -1 0 0 0 0 0 0 0 0 0 0 0 0 0 0 -1 0 0 0 0 -1 0 0 0 0 0 0 0 0 0 0 0 0 0 0 0 0 0 0 0 0 0 0 -1 0 0 0 0 0 0 0 0 0 0 0 0 0 0 0 0 0 0 0 0 1 0 0 0 0 0 0 0 0 0 0 0 0 0 0 0 0 0 0 0 0 0 0 0 0 0 0 0 0 0 0 0 0 0 0 1 0 0 0 0 0 0 0 0 0 0 0 0 0 0 0 0 0 0 0 0 0 0 1 0 0 0 0 0 0 0 0 0zm0 1l0 0 0 -1 0 0 0 1zm2 -1l0 0 0 0 0 0 0 0 0 0 0 0 0 0 0 1 0 0 0 0 0 0 0 0 0 0 0 0 0 0 0 0 0 0 0 0 -1 0 0 0 0 0 0 0 0 0 0 0 0 0 0 0 0 0 0 0 0 0 -1 0 0 0 0 0 0 0 0 0 0 -1 0 0 1 0 0 0 0 0 0 0 0 0 0 0 0 0 0 0 0 0 0 0 0 0 0 0 0 0 0 0 0 0 0 0 0 0 0 0 0 0 0 0 0 0 0 0 0 0 0 0 0 0 1 0 0 0 0 0 0 0 0 0 0 0 0 0zm-2 -6l-1 0 1 -1 0 0 0 0 1 1 0 0 0 0 0 0 0 0 0 0 1 1 0 0 0 0 0 0 0 0 0 1 0 0 0 0 0 0 1 1 0 0 0 0 0 0 0 1 0 0 0 0 0 0 0 1 0 0 0 0 0 0 0 1 0 0 -1 0 0 0 0 0 0 -1 0 0 0 0 0 0 0 0 0 -1 0 0 0 0 0 0 0 0 0 -1 0 0 0 0 0 0 0 -1 -1 0 0 0 0 0 0 0 0 -1 0 0 0 0 0 0 0 0 0 0 -1 0 0 -1 0 0 0 0 0 0 0 0 0 0zm-1 0l1 -1 0 0 -1 1zm-1 5l1 -5 1 0 -1 5 -1 0 0 0zm0 0l0 0 0 0 0 0z"/>
   </g>
  </g>
  <g>
   <g>
    <path class="fil1" d="M378 333l-1 1c-1,3 2,8 4,9l2 1c5,1 9,-1 11,0 2,1 3,2 7,3l3 1c3,1 8,-2 9,-5 2,-6 -3,-7 -4,-11 -1,-3 -1,-9 -6,-10l-3 -1c-5,-2 -9,5 -11,6 -4,1 -9,0 -11,6z"/>
    <path id="1" class="fil2" d="M377 334l0 -1 1 0 0 1 0 1 -1 -1zm5 9l-1 0 0 0 0 0 0 0 -1 0 0 0 0 0 0 -1 0 0 -1 0 0 0 0 -1 0 0 -1 0 0 0 0 -1 0 0 0 0 -1 -1 0 0 0 0 0 -1 0 0 0 -1 0 0 0 0 0 -1 0 0 0 0 0 -1 0 0 0 0 0 0 0 -1 1 1 0 0 0 0 0 0 -1 0 0 1 0 0 1 0 0 1 0 0 0 0 0 1 0 0 0 0 0 1 0 0 0 0 1 0 0 1 0 0 0 0 0 1 1 0 0 0 0 0 0 1 0 0 1 0 0 0 0 0 0 0 0 1 1 0 0 0zm1 1l-2 -1 1 0 1 0 0 0 0 1zm12 0l-1 1 0 0 0 -1 0 0 0 0 -1 0 0 0 0 0 0 0 -1 0 0 0 0 0 0 0 -1 0 0 0 -1 1 0 0 0 0 -1 0 0 0 0 0 -1 0 0 0 -1 0 0 0 -1 0 0 0 0 0 -1 -1 0 0 -1 0 0 0 -1 0 0 0 0 -1 0 0 1 0 0 0 1 1 0 0 1 0 0 0 1 0 0 0 0 0 1 0 0 0 1 0 0 0 0 0 1 0 0 0 0 0 1 0 0 0 0 0 1 0 0 0 0 -1 1 0 0 0 0 0 1 0 0 1 0 0 0 0 1 0 0 0zm6 3l0 1 0 0 -1 0 0 0 0 0 -1 -1 0 0 0 0 0 0 -1 0 0 0 0 0 0 0 0 -1 -1 0 0 0 0 0 0 0 0 0 -1 0 0 0 0 0 0 -1 0 0 0 0 0 0 -1 0 0 0 0 0 0 0 0 0 0 0 0 0 -1 0 1 -1 0 0 0 0 0 0 0 0 1 0 0 0 0 0 0 0 0 0 0 1 1 0 0 0 0 0 0 0 0 0 0 0 1 0 0 0 0 1 0 0 0 0 0 0 1 0 0 0 0 0 0 0 1 1 0 0 0 0 0 0 1 0 0 0 0 0zm2 2l-2 -1 0 -1 3 1 0 0 -1 1zm10 -6l1 0 0 0 -1 1 0 0 0 0 0 1 0 0 -1 0 0 0 0 1 0 0 -1 0 0 0 0 1 -1 0 0 0 0 0 -1 1 0 0 0 0 -1 0 0 0 -1 1 0 0 0 0 -1 0 0 0 0 0 -1 0 0 0 -1 0 0 0 0 0 -1 0 1 -1 0 0 0 0 1 0 0 0 0 0 1 0 0 0 0 0 1 0 0 0 0 0 1 0 0 -1 0 0 1 0 0 0 0 0 1 -1 0 0 0 0 1 0 0 0 0 -1 0 0 1 0 0 0 0 -1 0 0 0 0 0 0 1 -1 0 0 0 0zm-4 -11l0 0 0 0 1 0 0 1 0 0 0 0 0 1 0 0 1 0 0 0 0 1 0 0 1 0 0 1 0 0 0 0 1 0 0 1 0 0 0 0 0 1 1 0 0 0 0 1 0 0 0 1 0 0 0 0 0 1 0 0 0 1 0 0 0 1 0 0 -1 0 0 0 0 -1 0 0 0 -1 0 0 0 -1 0 0 0 0 0 -1 0 0 0 0 0 -1 0 0 -1 0 0 0 0 -1 0 0 0 0 -1 -1 0 0 0 0 0 0 -1 -1 0 0 0 0 0 -1 0 0 -1 0 0 -1 0 0 0 0 0 -1 0 0zm-6 -10l0 -1 0 0 1 1 0 0 1 0 0 0 0 0 1 1 0 0 0 0 1 1 0 0 0 0 0 1 0 0 1 0 0 1 0 0 0 1 0 0 0 0 0 1 0 0 1 1 0 0 0 0 0 1 0 0 0 0 0 1 0 0 0 0 0 1 0 0 0 0 -1 0 0 0 0 -1 0 0 0 0 0 -1 0 0 0 0 0 -1 0 0 0 0 -1 -1 0 0 0 -1 0 0 0 0 0 -1 0 0 0 0 -1 -1 0 0 0 0 0 -1 0 0 -1 0 0 -1 0 0 -1 0 0 0 0 0 -1 -1 0 0 0 0zm-3 -2l3 1 0 1 -3 -1 0 0 0 -1zm-11 7l0 -1 0 0 0 0 0 0 0 0 1 0 0 -1 0 0 0 0 1 0 0 -1 0 0 1 0 0 0 0 -1 1 0 0 0 0 -1 1 0 0 0 1 0 0 -1 0 0 1 0 0 0 1 0 0 -1 1 0 0 0 0 0 1 0 0 0 1 0 0 0 0 1 0 0 -1 0 0 0 -1 0 0 0 0 0 -1 0 0 0 0 0 -1 1 0 0 -1 0 0 0 0 1 -1 0 0 0 0 0 -1 1 0 0 0 0 -1 1 0 0 0 0 -1 0 0 1 0 0 -1 0 0 0 0 1 -1 0 0 0 0 0 0 0zm-11 6l-1 0 0 0 1 -1 0 0 0 0 0 -1 1 0 0 -1 0 0 1 0 0 -1 0 0 1 0 0 0 0 -1 1 0 0 0 0 0 1 0 0 0 1 0 0 -1 0 0 1 0 0 0 1 0 0 0 0 0 1 0 0 0 1 0 0 -1 0 0 1 0 0 1 -1 0 0 0 0 0 -1 1 0 0 0 0 -1 0 0 0 -1 0 0 0 0 0 -1 0 0 0 -1 0 0 1 0 0 -1 0 0 0 0 0 -1 0 0 1 0 0 -1 0 0 0 0 1 0 0 -1 0 0 1 0 0 0 0 -1 1 0 0 0 0z"/>
   </g>
   <g>
    <path class="fil1" d="M397 311l1 0c4,1 8,0 9,-3l0 0c3,-6 -1,-6 2,-13 -1,-1 -2,-3 -3,-3l0 0c-7,-3 -20,15 -9,19z"/>
    <path id="1" class="fil2" d="M398 311l-1 0 0 -1 1 1 0 0zm9 -3l1 0 0 0 0 1 -1 0 0 0 0 0 0 1 0 0 -1 0 0 0 0 0 0 1 -1 0 0 0 0 0 -1 0 0 0 0 1 -1 0 0 0 0 0 -1 0 0 0 0 0 -1 0 0 0 0 0 -1 0 0 0 -1 0 0 0 0 0 -1 0 0 -1 0 0 1 0 0 0 0 0 1 0 0 0 0 0 1 0 0 0 0 0 1 0 0 0 0 0 1 0 0 0 0 0 1 0 0 0 0 -1 0 0 1 0 0 0 0 0 0 0 1 0 0 -1 0 0 0 0 0 0 1 0 0 -1 0 0 0 0 0 0zm0 0l0 0 0 0 0 0zm1 0l0 0 -1 0 0 0 1 0 0 0zm0 0l0 0 0 0 0 0zm0 -13l1 0 0 0 0 1 0 0 -1 1 0 0 0 1 0 0 0 1 0 0 0 0 0 1 0 0 0 0 0 1 0 0 0 0 0 1 0 0 0 0 0 1 1 0 0 0 0 1 0 0 0 0 0 1 0 0 0 1 -1 0 0 0 0 1 0 0 0 1 -1 0 0 -1 0 0 1 -1 0 0 0 -1 0 0 0 0 0 -1 0 0 0 0 0 -1 0 0 0 0 0 0 -1 -1 0 0 0 0 0 -1 0 0 0 0 0 -1 0 0 0 -1 0 0 0 0 0 -1 0 0 0 -1 1 0 0 -1 0 0 0 -1 0 0zm1 0l0 0 0 0 0 0zm-3 -3l0 -1 0 0 0 0 1 0 0 0 0 1 0 0 0 0 0 0 0 0 0 0 1 0 0 0 0 0 0 1 0 0 0 0 0 0 0 0 0 0 0 0 0 1 0 0 1 0 0 0 0 0 0 0 0 0 0 1 0 0 0 0 0 0 0 0 0 0 -1 0 0 0 0 0 0 0 0 0 0 0 0 0 0 0 0 0 0 -1 0 0 0 0 0 0 0 0 -1 0 0 0 0 0 0 -1 0 0 0 0 0 0 0 0 0 0 0 0 0 0 0 0 0 -1 -1 0 0 0 0 0 0 0 0 0 0 0 0 0zm0 -1l0 0 0 1 -1 0 0 0 1 -1zm-9 19l0 1 0 0 -1 0 -1 -1 -1 0 0 -1 -1 -1 0 0 -1 -1 0 -1 0 -1 0 -1 0 -1 1 -1 0 -1 0 0 1 -1 0 -1 1 -1 0 -1 1 -1 1 -1 0 0 1 -1 1 -1 1 0 0 -1 1 0 1 -1 1 0 1 0 0 0 1 0 1 0 -1 1 0 0 -1 0 0 0 -1 0 -1 0 0 1 -1 0 -1 0 -1 1 0 1 -1 0 -1 1 0 1 -1 0 0 1 -1 1 0 1 -1 1 0 1 0 1 -1 0 0 1 0 1 0 1 0 0 1 1 0 1 0 0 1 1 1 0 0 1 1 0 0 0z"/>
   </g>
   <g>
    <path class="fil1" d="M410 310l-1 2c-1,2 1,5 3,6l3 1c3,1 9,-4 10,-6 2,-4 3,-12 -1,-13 -4,-1 -4,3 -8,4 -1,1 -5,4 -6,6z"/>
    <path id="1" class="fil2" d="M409 312l0 -2 1 0 0 2 -1 0zm3 5l0 1 0 0 0 0 -1 0 0 0 0 0 0 0 0 0 -1 -1 0 0 0 0 0 0 0 0 0 -1 -1 0 0 0 0 0 0 -1 0 0 0 0 0 0 0 0 0 -1 0 0 -1 0 0 0 0 -1 0 0 0 0 0 0 1 -1 0 0 0 0 0 0 1 0 -1 0 0 0 0 0 0 1 0 0 0 0 0 0 0 0 0 1 0 0 0 0 0 0 1 0 0 1 0 0 0 0 0 0 0 0 0 1 0 0 0 0 1 0 0 0 0 1 0 0 0 0 0 0 1 0 0 0 0 0 0 0 0 0 0 0zm2 2l-2 -1 0 -1 3 1 0 0 -1 1zm11 -7l1 1 0 0 0 0 0 0 -1 1 0 0 0 0 0 1 -1 0 0 0 0 1 -1 0 0 0 0 0 -1 1 0 0 0 0 -1 1 0 0 -1 0 0 0 -1 0 0 1 0 0 -1 0 0 0 -1 0 0 0 -1 0 0 0 0 0 -1 0 0 0 -1 0 1 -1 0 0 0 0 1 0 0 0 0 0 1 0 0 0 1 0 0 0 0 0 1 0 0 0 1 -1 0 0 0 0 1 0 0 0 1 -1 0 0 0 0 1 -1 0 0 0 0 1 0 0 -1 0 0 0 0 1 0 0 -1 0 0 0 0 0 -1 0 0zm-2 -12l1 -1 0 0 0 0 1 1 0 0 0 0 1 0 0 1 0 0 0 0 0 1 1 0 0 1 0 0 0 1 0 0 0 1 0 0 0 1 0 0 0 1 0 0 0 1 0 0 0 1 0 0 0 1 0 0 0 1 -1 0 0 0 0 1 0 0 0 1 -1 -1 0 0 0 0 1 -1 0 0 0 -1 0 0 0 -1 0 0 0 0 0 -1 0 0 0 -1 0 0 0 -1 0 0 0 -1 0 0 0 -1 0 0 0 -1 0 0 0 0 0 -1 -1 0 0 0 0 -1 0 0 0 0 -1 0 0 -1 0 0 -1 0 0 0zm-6 5l-1 -1 0 0 1 0 0 0 0 -1 0 0 0 0 1 0 0 0 0 -1 0 0 0 0 1 0 0 0 0 -1 0 0 0 0 0 0 1 -1 0 0 0 0 0 0 0 0 1 0 0 -1 0 0 0 0 1 0 0 0 0 0 1 0 0 0 0 0 1 0 -1 1 0 0 0 0 0 0 -1 0 0 0 0 0 0 0 0 0 -1 0 0 0 0 0 0 1 0 0 -1 0 0 0 0 0 0 0 0 1 0 0 -1 0 0 0 0 1 0 0 0 0 -1 0 0 1 0 0 0 0 0 0 -1 0 0 1 0 0 0 0zm-7 5l-1 0 0 0 1 -1 0 0 0 0 0 0 0 0 0 -1 0 0 1 0 0 0 0 0 0 -1 1 0 0 0 0 0 0 0 1 -1 0 0 0 0 0 0 1 0 0 -1 0 0 0 0 1 0 0 0 0 0 0 0 1 -1 0 0 0 0 0 0 0 0 1 1 -1 0 0 0 0 0 0 0 0 0 -1 0 0 1 0 0 0 0 0 0 -1 0 0 0 0 0 0 1 -1 0 0 0 0 0 0 0 -1 1 0 0 0 0 0 0 -1 0 0 1 0 0 0 0 0 0 0 0 0 0 -1 1 0 0 0 0 0 0z"/>
   </g>
   <g>
    <path class="fil1" d="M375 312c-2,5 -2,10 4,11 3,2 8,0 9,-3l1 -2c1,-3 -1,-4 -2,-6 -1,-2 -1,-6 -3,-7 -2,0 -8,5 -9,7z"/>
    <path id="1" class="fil2" d="M379 323l0 1 0 0 -1 0 0 -1 -1 0 0 0 -1 0 0 -1 0 0 -1 0 0 0 0 -1 0 0 -1 -1 0 0 0 0 0 -1 0 0 0 -1 0 0 0 0 0 -1 0 0 0 -1 0 0 0 -1 0 0 0 -1 0 0 0 -1 0 0 0 0 1 -1 0 0 1 0 -1 0 0 1 0 0 0 1 0 0 0 1 0 0 0 0 0 1 0 0 0 1 -1 0 1 0 0 1 0 0 0 1 0 0 0 0 0 1 0 0 0 0 0 1 1 0 0 0 0 1 1 0 0 0 0 0 1 0 0 1 0 0 1 0 0 0zm9 -3l1 0 0 0 0 0 -1 0 0 1 0 0 0 0 0 0 -1 1 0 0 0 0 0 0 -1 1 0 0 0 0 -1 0 0 0 0 0 -1 1 0 0 0 0 -1 0 0 0 -1 0 0 0 0 0 -1 0 0 0 0 0 -1 0 0 0 -1 0 0 0 0 0 0 -1 0 0 1 0 0 0 0 0 1 0 0 0 0 0 1 0 0 0 0 0 1 0 0 0 0 0 1 0 0 0 0 0 1 0 0 -1 0 0 1 0 0 0 0 0 0 0 1 -1 0 0 0 0 0 0 0 -1 1 0 0 0 0 0 0 0 0 0zm1 -1l0 1 -1 0 0 -2 1 1 0 0zm-2 -7l0 -1 0 0 0 1 1 0 0 0 0 0 0 0 0 1 0 0 0 0 0 0 1 0 0 1 0 0 0 0 0 0 0 0 0 1 0 0 0 0 0 0 1 0 0 1 0 0 0 0 0 0 0 1 0 0 0 0 0 0 -1 1 0 0 0 0 0 1 -1 -1 0 0 1 0 0 0 0 -1 0 0 0 0 0 0 0 -1 0 0 0 0 0 0 0 0 0 -1 0 0 -1 0 0 0 0 0 0 0 0 -1 0 0 0 0 0 0 0 0 0 0 -1 -1 0 0 0 0 0 0 0 0 0 -1 0 0 0 0 0 0zm-4 -6l1 -1 0 0 0 0 0 0 1 0 0 0 0 1 0 0 0 0 1 0 0 0 0 1 0 0 0 0 0 0 0 0 0 1 0 0 0 0 1 0 0 1 0 0 0 0 0 0 0 1 0 0 0 0 0 0 0 0 0 1 0 0 0 0 0 0 0 0 0 1 -1 0 0 -1 0 0 0 0 0 0 0 0 0 -1 0 0 0 0 0 0 0 -1 0 0 0 0 0 0 0 -1 0 0 -1 0 0 0 0 0 0 -1 0 0 0 0 0 0 0 0 0 0 0 -1 -1 0 0 0 0 0 0 0 0 0 -1 0 0 0zm-7 6l-1 0 0 0 0 -1 0 0 0 0 0 0 1 -1 0 0 0 0 0 -1 1 0 0 0 0 0 0 -1 1 0 0 0 0 -1 1 0 0 0 0 0 1 -1 0 0 0 0 1 0 0 0 0 -1 1 0 0 0 0 0 1 0 0 0 0 0 1 0 0 0 -1 1 0 0 0 0 0 0 0 0 0 0 -1 0 0 0 0 0 0 0 -1 1 0 0 0 0 -1 0 0 0 0 1 -1 0 0 0 0 0 -1 1 0 0 0 0 -1 1 0 0 0 0 0 0 -1 1 0 0 0 0 0 0 0 1 0 0 0 0 0 0z"/>
   </g>
   <g>
    <path class="fil1" d="M414 325l0 0c-1,3 0,7 3,8 5,1 11,-1 13,-6l1 -1c1,-3 1,-6 -1,-7l-1 0c-1,-1 -6,2 -8,2 -3,0 -6,2 -7,4z"/>
    <path id="1" class="fil2" d="M414 325l0 0 1 0 0 1 -1 -1 0 0zm3 7l0 1 0 0 0 0 -1 0 0 0 0 0 0 -1 -1 0 0 0 0 0 0 0 0 -1 -1 0 0 0 0 0 0 -1 0 0 0 0 0 0 0 -1 -1 0 0 0 0 0 0 -1 0 0 0 0 0 -1 0 0 0 0 0 -1 0 0 1 0 0 0 0 -1 1 1 -1 0 0 0 0 0 0 1 0 0 0 0 0 0 0 1 0 0 0 0 0 0 0 1 0 0 0 0 0 0 1 1 0 0 0 0 0 0 0 0 0 1 0 0 0 0 1 0 0 0 0 1 0 0 0 0 1 0 0 0 0 0 0 0 0 0zm13 -5l0 0 0 0 0 1 0 0 0 1 0 0 -1 0 0 1 0 0 -1 1 0 0 0 0 -1 0 0 1 -1 0 0 0 0 0 -1 1 0 0 -1 0 0 0 -1 0 0 0 -1 1 0 0 -1 0 0 0 -1 0 0 0 -1 0 0 0 -1 -1 0 0 -1 0 0 -1 1 0 0 1 1 0 0 0 1 0 0 0 1 0 0 0 1 0 0 0 1 0 0 -1 0 0 1 0 0 0 1 0 0 0 1 -1 0 0 0 0 1 0 0 0 0 -1 1 0 0 0 0 -1 1 0 0 0 0 -1 0 0 0 0 1 -1 0 0zm1 -1l-1 1 0 0 0 -1 0 0 1 0zm-2 -7l1 0 0 0 0 0 0 0 0 0 1 0 0 0 0 0 0 1 0 0 0 0 0 0 1 0 0 1 0 0 0 0 0 0 0 1 0 0 0 0 0 1 0 0 0 0 0 0 0 1 0 0 0 0 0 0 -1 1 0 0 0 0 0 0 0 1 0 0 -1 0 0 -1 0 0 0 0 1 0 0 0 0 -1 0 0 0 0 0 0 0 -1 0 0 0 0 0 0 0 -1 0 0 0 0 0 0 0 -1 0 0 0 0 0 0 0 0 0 -1 -1 0 0 0 0 0 0 0 0 0 0 0 0 0 0 -1 -1 0 0 0zm0 -1l1 1 -1 0 -1 0 0 0 1 -1zm-8 3l0 -1 0 0 0 0 0 0 1 0 0 0 0 0 0 0 1 0 0 0 0 0 0 0 1 0 0 0 0 -1 1 0 0 0 0 0 1 0 0 0 0 0 0 0 1 0 0 0 0 -1 0 0 0 0 1 0 0 0 0 0 0 0 0 0 1 0 0 0 -1 1 0 0 0 0 0 0 0 0 0 0 0 0 0 0 -1 0 0 0 0 0 0 0 0 1 -1 0 0 0 0 0 -1 0 0 0 0 0 0 0 -1 0 0 0 0 1 -1 0 0 0 0 0 0 0 -1 0 0 0 0 0 -1 0 0 0 0 0 0 0zm-6 4l-1 0 0 0 0 0 0 -1 0 0 0 0 1 0 0 -1 0 0 0 0 0 0 0 0 1 0 0 -1 0 0 0 0 1 0 0 0 0 0 0 0 1 -1 0 0 0 0 0 0 1 0 0 0 0 0 0 0 1 0 0 0 0 0 0 0 1 -1 0 0 0 1 0 0 -1 0 0 0 0 0 0 1 0 0 -1 0 0 0 0 0 0 0 -1 0 0 0 0 0 0 0 -1 0 0 1 0 0 0 0 0 0 -1 0 0 0 0 0 0 1 0 0 -1 0 0 0 0 0 0 0 0 1 0 0 0 0 0 0 0 0z"/>
   </g>
   <g>
    <path class="fil1" d="M410 290c-1,0 -1,1 -2,0l-1 0c-1,0 -1,-1 -1,-2 1,-2 4,-4 6,-3l-2 5z"/>
    <path id="1" class="fil2" d="M408 290l0 0 0 0 0 0 0 0 0 0 0 0 0 0 0 0 0 0 0 0 0 0 0 0 1 0 0 0 0 0 0 0 0 0 0 0 0 0 0 0 0 0 0 0 0 0 0 0 0 0 0 0 0 -1 0 0 0 0 0 0 0 0 0 0 1 0 0 1 0 0 0 0 0 0 0 0 0 0 0 0 0 0 0 0 0 0 0 0 -1 0 0 0 0 0 0 1 0 0 0 0 0 0 0 0 0 0 0 0 0 0 0 0 -1 0 0 0 0 0 0 0 0 0 0 0 0 0 0 0 0 0 -1 0 0 0 1 -1zm-1 0l0 0 1 0 -1 1 0 -1zm-1 -1l0 0 0 0 0 0 0 0 0 0 0 0 0 0 0 0 0 0 0 0 0 0 0 0 0 0 0 0 0 0 0 0 0 0 0 0 0 0 0 0 0 0 0 0 1 0 0 0 0 0 0 0 0 0 0 0 0 0 0 1 0 0 0 0 0 0 0 0 0 0 0 0 0 0 0 0 -1 0 0 0 0 0 0 0 0 0 0 0 0 0 0 0 0 0 0 0 0 0 0 0 0 0 0 -1 0 0 0 0 -1 0 0 0 0 0 0 0 1 0 0 0 0 0 0 0 0 -1 0 0 0 0 0 0 0 0 0 1zm6 -4l0 0 0 0 0 0 0 0 -1 0 0 0 0 0 0 0 0 0 -1 0 0 0 0 1 0 0 -1 0 0 0 0 0 0 0 0 0 -1 0 0 0 0 1 0 0 0 0 0 0 -1 0 0 0 0 0 0 1 0 0 0 0 0 0 0 0 -1 1 0 -1 0 0 0 0 0 0 0 -1 0 0 0 0 1 0 0 0 0 -1 0 0 0 0 0 0 1 0 0 0 0 -1 0 0 1 0 0 0 0 0 0 0 1 0 0 0 0 0 0 -1 0 0 1 0 0 0 0 0 0 0 1 0 0 0 0 0 0 1 0 0zm0 -1l1 1 -1 0 0 -1zm-2 6l0 0 -1 -1 3 -4 0 0 -2 5zm0 0l0 0 0 0 0 0z"/>
   </g>
   <g>
    <path class="fil1" d="M383 301c-1,1 -1,2 1,2 1,1 1,0 2,-1l2 -5c-2,0 -5,2 -5,4z"/>
    <path id="1" class="fil2" d="M384 303l-1 1 0 0 0 -1 0 0 0 0 0 0 0 0 0 0 0 0 0 0 -1 0 0 0 0 0 0 0 0 0 0 0 0 0 0 0 0 -1 0 0 0 0 0 0 0 0 0 0 0 0 0 0 0 0 0 -1 0 0 0 0 0 0 0 0 0 0 0 0 1 0 0 0 0 0 0 0 0 0 0 1 0 0 0 0 0 0 0 0 0 0 0 0 0 0 0 0 0 0 0 0 0 0 0 0 0 0 0 0 0 0 0 0 0 0 0 0 0 0 0 0 0 0 0 0 0 1 0 0 1 0 0 0 0 0 0 0zm1 -1l1 1 0 0 0 0 0 0 0 0 0 0 0 0 0 0 0 0 0 0 0 0 -1 0 0 0 0 1 0 0 0 0 0 0 0 0 0 0 0 0 0 0 0 0 0 0 -1 0 0 0 0 0 0 0 0 0 0 0 0 0 0 0 0 0 0 0 -1 0 1 -1 0 0 0 0 0 0 0 0 0 0 0 0 0 0 0 0 1 0 0 0 0 0 0 0 0 0 0 0 0 0 0 0 0 0 0 0 0 0 0 0 0 0 0 0 0 0 0 0 0 0 0 0 0 0 0 0 0 0 0 -1 0 0 0 0 0 0zm3 -5l-2 6 -1 -1 3 -5 0 0 0 0zm0 0l1 0 -1 0 0 0zm-5 4l-1 0 0 0 0 -1 0 0 0 0 1 0 0 0 0 -1 0 0 0 0 0 0 0 0 1 0 0 -1 0 0 0 0 0 0 1 0 0 0 0 0 0 0 0 -1 1 0 0 0 0 0 0 0 0 0 1 0 0 0 0 0 0 0 1 0 0 0 0 0 0 1 0 0 0 0 -1 0 0 0 0 0 0 0 0 0 -1 0 0 0 0 0 0 0 0 0 0 0 -1 0 0 1 0 0 0 0 0 0 0 0 -1 0 0 0 0 0 0 1 0 0 0 0 0 0 -1 0 0 0 0 0 0 1 0 0 0 0 0 0z"/>
   </g>
   <g>
    <path class="fil1" d="M433 317c-1,1 -1,1 -2,1 -1,-1 -2,-1 -1,-2l3 -5c2,2 2,4 0,6z"/>
    <path id="1" class="fil2" d="M431 317l0 0 0 0 0 0 0 0 0 0 0 1 0 0 1 0 0 0 0 0 0 0 0 0 0 0 0 0 0 0 0 0 0 0 0 0 0 0 0 0 0 0 0 0 0 0 0 0 0 -1 1 0 0 0 0 0 0 0 0 0 0 0 0 0 0 0 1 0 0 1 0 0 -1 0 0 0 0 0 0 0 0 0 0 0 0 0 0 0 0 0 0 0 0 0 -1 1 0 0 0 0 0 0 0 0 0 0 0 0 0 0 0 0 -1 -1 0 0 0 0 0 0 0 0 0 0 0 0 0 0 0 0 -1 0 0 0 1 -1zm-1 -1l0 0 0 0 0 0 0 0 0 0 0 0 0 0 0 0 0 1 0 0 0 0 0 0 0 0 0 0 0 0 0 0 0 0 0 0 0 0 0 0 0 0 0 0 0 0 0 0 0 0 0 0 0 0 0 0 1 0 0 0 0 0 0 0 0 0 -1 1 0 0 0 0 0 0 0 0 0 0 0 0 0 0 0 0 0 -1 0 0 0 0 0 0 -1 0 0 0 0 0 0 0 0 0 0 0 0 0 0 0 0 -1 0 0 0 0 0 0 0 0 0 0 0 0 1 0 0 0 0 0 0 0 0 0 0 0 0 0zm3 -5l1 0 0 0 -4 5 0 0 3 -5zm0 0l0 -1 1 1 -1 0zm0 6l0 0 0 0 0 0 0 -1 0 0 0 0 1 0 0 0 0 -1 0 0 0 0 0 0 0 0 0 -1 0 0 0 0 0 0 0 0 0 0 0 -1 0 0 0 0 0 0 0 0 0 -1 0 0 0 0 0 0 -1 0 0 0 0 0 0 -1 0 0 1 0 0 0 0 0 0 0 0 0 0 1 0 0 0 0 1 0 0 0 0 1 0 0 0 0 0 0 0 1 0 0 0 0 0 0 0 0 0 1 0 0 0 0 0 0 0 1 0 0 -1 0 0 0 0 0 0 1 0 0 0 0 0 0 0 0 0 0 -1 0z"/>
   </g>
   <g>
    <path class="fil1" d="M422 296c1,0 1,1 2,1l0 1c1,0 2,0 2,-1 1,-2 0,-5 -2,-6l-2 5z"/>
    <path id="1" class="fil2" d="M424 297l0 1 0 0 0 0 -1 0 0 0 0 0 0 0 0 0 0 0 0 -1 0 0 0 0 0 0 0 0 -1 0 0 0 0 0 0 0 0 0 0 0 0 0 0 0 0 0 0 -1 0 0 0 0 0 0 0 0 0 0 0 0 0 0 0 0 0 0 0 0 1 0 0 0 0 0 0 0 0 0 0 0 0 0 0 0 0 0 0 0 0 0 0 0 0 0 0 0 0 0 0 0 0 0 0 1 0 0 0 0 0 0 0 0 0 0 0 0 0 0 0 0 0 0 1 0 0 0 0 0 0 0 0 0 0 0 0 0zm0 1l0 0 0 -1 0 0 0 1zm2 -1l1 0 0 0 0 0 0 0 -1 0 0 0 0 0 0 1 0 0 0 0 0 0 0 0 0 0 0 0 0 0 0 0 0 0 0 0 0 0 -1 0 0 0 0 0 0 0 0 0 0 0 0 0 0 0 0 0 0 0 0 0 -1 0 0 0 0 0 0 0 0 -1 1 0 0 0 0 0 0 0 0 0 0 0 0 0 0 0 0 0 0 0 0 0 0 0 0 0 0 0 0 0 0 0 0 0 0 0 0 0 0 0 0 0 1 0 0 0 0 0 0 0 0 0 0 0 0 0 0 0 0 0 0 0 0 0 0 0zm-2 -6l0 0 0 -1 0 0 1 0 0 1 0 0 0 0 0 0 0 0 1 0 0 1 0 0 0 0 0 0 0 0 0 1 0 0 1 0 0 0 0 1 0 0 0 0 0 0 0 1 0 0 0 0 0 0 0 1 0 0 0 0 0 0 0 1 0 0 0 0 -1 0 0 0 0 -1 0 0 0 0 0 0 0 0 0 -1 0 0 0 0 0 0 0 0 0 -1 0 0 0 0 0 0 0 -1 0 0 0 0 -1 0 0 0 0 -1 0 0 0 0 0 0 0 0 0 0 -1 0 0 -1 0 0 0 0 0 0 0 0 0 0zm0 0l0 -1 0 0 0 1zm-2 5l2 -5 0 0 -1 5 -1 0 0 0zm0 0l0 0 0 0 0 0z"/>
   </g>
  </g>
  <path class="fil0 str1" d="M434 111l31 0c9,0 16,7 16,17l0 351c0,9 -7,17 -16,17l-425 0c-10,0 -17,-8 -17,-17l0 -351c0,-10 7,-17 17,-17l31 0 0 -75c0,-11 10,-20 21,-20l0 0c11,0 21,9 21,20l0 75 280 0 0 -75c0,-11 9,-20 21,-20l0 0c11,0 20,9 20,20l0 75zm24 372l-412 0c-4,0 -8,-4 -8,-9l0 -342c0,-5 4,-9 8,-9l412 0c5,0 9,4 9,9l0 342c0,5 -4,9 -9,9z"/>
 </g>
</svg>
