<?xml version="1.0" encoding="UTF-8"?>
<!DOCTYPE svg PUBLIC "-//W3C//DTD SVG 1.1//EN" "http://www.w3.org/Graphics/SVG/1.1/DTD/svg11.dtd">
<!-- Creator: CorelDRAW X7 -->
<svg xmlns="http://www.w3.org/2000/svg" xml:space="preserve" width="500px" height="500px" class="svg" version="1.1" style="shape-rendering:geometricPrecision; text-rendering:geometricPrecision; image-rendering:optimizeQuality; fill-rule:evenodd; clip-rule:evenodd"
viewBox="0 0 500 500"
 xmlns:xlink="http://www.w3.org/1999/xlink">
 <defs>
  <style type="text/css">
   <![CDATA[
    .fil0 {fill:#FEFEFE}
    .fil1 {fill:white}
   ]]>
  </style>
 </defs>
 <g id="Layer_x0020_1">
  <metadata id="CorelCorpID_0Corel-Layer"/>
  <path class="fil0" d="M147 399l0 0c0,0 0,0 0,0zm-106 -49l0 0c0,0 0,0 0,-1l1 -4 4 -7c0,0 0,0 0,0l4 -6 4 -5 7 -7c1,-1 1,-1 2,-1 1,-1 1,-1 2,-2 1,0 2,-1 3,-1 1,-1 8,-5 9,-5 0,0 1,-1 2,-1l3 -2 1 0c1,0 1,0 1,-1 1,-2 4,-4 5,-5l0 0c0,0 0,0 0,0l0 0c0,0 0,-1 0,-1 0,0 0,0 1,0l4 -4 1 0c1,-1 2,-1 3,-2 1,-1 1,-1 2,-2 1,0 1,-1 2,-1l3 -4c2,-3 1,-2 3,-5 1,-1 2,-4 2,-6 1,-1 0,-4 0,-6l0 -6c0,-1 0,-2 -1,-3 -1,-3 -1,-5 0,-8 0,0 1,-1 0,-1l-1 1c0,0 -2,2 -3,1 0,0 2,-6 3,-7 0,0 1,0 1,0 0,-1 0,-1 0,-1l-1 -1c-2,-1 -4,-3 -4,-5 0,0 -1,0 -1,0 -1,-1 -1,-2 0,-2l0 0c2,-1 1,0 2,0 1,0 2,-1 3,-1 -1,0 -2,-1 -2,-1l-1 -2c0,0 -1,0 -1,0 0,-1 0,-1 0,-1 -1,-1 -1,-1 0,-1 1,0 1,0 2,0l0 0c0,0 1,0 1,0 0,0 0,-1 1,-1l0 0c-1,-1 0,0 -2,-2 -1,0 -1,0 -1,-1 -1,0 0,0 0,-1 0,0 1,1 1,0l1 0c0,0 0,0 1,0 0,0 1,0 1,-1 1,0 3,-1 3,-1 -1,0 -1,0 -1,0l-2 -1c-1,-1 -1,-1 -1,-1l1 -1c1,0 0,1 5,-1 1,0 2,0 2,-1 1,0 2,-1 2,-1 1,-1 3,-2 3,-2 1,-1 0,-1 1,-2 0,0 0,0 0,0l2 -11c1,-1 1,-2 2,-3 0,-1 1,-6 3,-5 0,0 1,0 1,0 0,1 2,5 2,7 1,1 1,1 1,2 0,1 1,1 1,2 0,-1 2,-3 3,-5 1,-2 1,-3 3,-5 1,-1 2,-1 3,-1 0,1 0,1 1,2 0,1 0,2 0,2 0,1 0,3 0,4 -1,2 -1,5 -1,7 0,0 0,0 0,1l0 0c0,1 1,1 2,1 0,1 1,1 1,1l3 2c0,0 0,0 0,0 0,0 0,0 0,0 0,0 0,0 0,0 2,2 2,3 4,5 2,1 2,1 3,1l4 2c0,0 1,0 1,0 3,2 3,1 5,2 0,0 0,0 0,0 1,1 4,1 4,3 0,1 0,2 -1,3 -1,1 -1,2 -3,4 -2,2 -3,4 -4,5 -2,2 -4,1 -7,0 -1,0 -5,0 -5,2 0,1 1,2 2,2 3,3 7,7 9,10 2,3 1,2 3,5l0 1c2,-1 4,-4 4,-5 2,-2 4,-7 4,-10 0,-1 1,-2 1,-3 0,-1 0,-2 1,-3l3 -12c1,-2 0,-2 1,-3 0,-1 1,-3 2,-4 2,-1 0,-4 4,-7 1,1 1,2 1,3 1,-1 0,-5 0,-6l-1 -4c0,-2 -1,-13 -1,-15 0,-2 -1,-15 -1,-15 1,-1 4,-1 5,-1l13 0c3,0 3,-1 5,-1 3,0 12,0 14,0 0,0 0,2 0,3l1 6c0,1 0,2 0,2l0 -14 37 0c0,0 0,11 0,12 0,0 1,0 1,0 0,-1 0,-12 0,-12l37 0 0 15c1,-1 0,-12 1,-12 0,0 36,1 36,2 0,0 0,0 0,0 1,0 1,-1 1,4 0,2 0,3 -1,5 0,4 0,8 0,11l0 6c0,3 -1,4 -1,5 0,2 0,4 0,5 0,1 -1,5 -1,5 1,-1 1,-1 1,-2 0,-2 0,0 1,-2 0,-1 1,-2 1,-2 2,0 5,3 6,5 1,1 1,2 2,4 0,1 0,2 0,2 0,6 -3,8 -4,17 0,3 2,6 3,9 1,3 2,5 3,8 0,1 1,3 2,4 1,3 6,10 9,11 -1,-1 2,-7 3,-9l8 -13c2,-2 2,-3 3,-5 0,0 -1,1 -2,1 -1,1 -2,2 -3,2 0,0 0,0 -1,0 0,0 0,0 0,0 -1,0 -2,0 -3,0 -4,-2 -2,-3 -4,-3 -3,-1 -7,-3 -8,-5 -1,-1 -2,-2 -2,-3 1,-2 2,-3 3,-4 0,-1 0,-1 1,-1 0,-1 1,-2 1,-3 2,-2 3,-3 3,-6 0,-2 0,-3 1,-5 1,-2 4,-3 5,-4 5,-3 5,0 5,-3l1 -4c0,-2 0,-5 1,-6 0,0 2,1 2,1 1,1 3,4 3,4 1,1 1,1 1,1 1,0 2,-2 2,-2l1 -2c1,-1 1,-1 1,-1 1,0 2,0 3,1l0 0c1,2 1,2 2,4l1 4c0,1 2,1 3,2 2,1 1,1 2,2 1,0 2,1 2,1 2,3 6,8 7,10 0,2 1,4 2,5 1,4 2,8 2,11 0,3 0,4 0,7 0,1 0,3 0,5 0,7 -1,7 1,16 1,2 2,4 3,6 0,1 1,3 2,5 1,1 2,3 3,4 1,2 3,4 4,5 2,3 5,6 9,8 0,0 0,0 0,1 1,0 1,0 2,1l2 1c1,1 3,2 4,3 1,0 0,0 2,1 1,0 3,1 4,2l8 5c1,0 2,1 3,2 1,0 1,1 2,2 1,1 2,2 4,4 2,4 4,9 4,14 0,2 0,4 -1,6l0 2c-1,2 -1,4 -2,5 0,1 -2,4 -2,5 0,1 5,3 6,3 2,2 3,4 3,6 1,1 1,4 1,5 0,1 0,2 0,2 -1,2 -1,5 -1,7 0,2 0,4 0,6 -1,6 -4,13 -8,17l10 0 0 7 -409 0c0,0 0,0 0,0 0,-3 0,-7 0,-7 5,0 9,0 14,0 -1,-1 -1,-1 -2,-1 -1,-2 -2,-3 -2,-5 0,-1 -1,-2 -1,-3 0,-1 0,-2 0,-3 -1,-2 -1,-3 -1,-5 0,-2 1,-4 2,-6 0,-2 0,-4 0,-6 0,-2 1,-3 1,-5 0,-3 0,-4 1,-7 0,-2 3,-4 4,-4 1,-1 2,-2 2,-2 0,-1 1,-2 2,-2l-1 1c0,0 -1,0 -1,0 0,0 0,0 0,0l-4 3 0 1c-1,0 -2,1 -3,1 0,0 -1,1 -1,1 -2,2 -4,3 -6,4 0,0 0,0 0,0 -1,-1 1,-2 1,-3l-2 2 -4 6c-2,2 -3,4 -4,6 -1,2 -3,9 -3,11 0,1 0,1 -1,2 0,-1 -1,-2 -1,-2 0,-3 -3,-9 -3,-12 0,-1 0,-1 0,-2 0,-3 0,-4 0,-7 1,-3 1,-7 1,-10 1,0 1,-1 1,-2 0,0 0,-2 0,-2 0,0 0,1 -1,1 0,1 0,1 -1,2l0 0c0,0 0,0 0,-1zm105 49c0,-1 1,-1 1,0 0,0 -1,0 -1,0zm-54 -1l0 0zm33 0l0 0zm157 -1l0 0zm-161 -4l0 0zm-34 -3l0 0zm305 -4l0 0zm46 -19c0,0 2,-2 2,-2 1,1 3,1 4,2 1,1 3,3 4,5 0,1 1,5 1,6 0,3 0,2 -1,5 -2,3 -2,4 -5,5 -3,2 -8,-1 -13,5 -1,2 -2,4 -2,6l-33 0c1,-1 2,-1 4,-3l2 -2c1,0 1,-1 1,-1 1,0 1,-1 1,-1 1,0 1,-1 1,-1 1,-1 2,-2 2,-2 2,-2 3,-4 4,-5 1,-1 1,-1 2,-1 0,-1 0,-1 0,-1 1,1 0,5 8,8 1,0 1,1 4,1 4,0 7,0 10,-2 2,-2 3,-3 5,-5 2,-4 3,-8 2,-12 0,-3 0,-3 -2,-4 -1,-1 -1,-1 -1,-1zm-381 -7l0 0zm2 -2l0 0 0 0zm0 -1c0,1 1,0 0,1 0,-1 0,-1 0,-1zm1 0l-1 0 1 0zm0 0l0 0zm61 36c1,2 2,4 4,5l1 1c-2,0 -27,0 -32,0 0,0 -2,0 -2,-1 1,0 2,1 1,-1 0,-1 -2,-2 -2,-3l-1 0c-1,-1 -1,-1 -1,-2 0,-1 -1,-1 -2,-2 0,0 -1,-1 -2,-1 -1,0 -1,0 -2,0 -1,0 -2,0 -3,0l-2 -1 0 0 -1 0c0,-1 -1,-2 -1,-2 -1,-1 -1,-2 -1,-3 -1,-2 0,-6 0,-9 0,0 0,0 0,-1 0,0 0,-1 0,-1 0,-1 1,-2 1,-3 1,-4 4,-7 8,-9 0,0 0,0 1,-1 0,0 0,0 1,0 0,-1 1,-1 2,-2 1,0 1,-1 2,-1 2,-1 6,-3 7,-4l1 0c2,-1 4,0 5,1 1,0 4,3 5,3 1,2 3,4 1,6 -1,1 -3,2 -3,5 0,6 4,12 8,16 1,2 2,4 3,5 0,1 0,1 1,2 0,0 2,2 3,3zm-53 -38l0 0zm6 -5l0 0 0 0zm0 -1l0 1 0 -1zm0 0l0 0zm-31 -1c0,-1 0,-1 1,-1 0,1 0,0 -1,1zm1 -1l0 0zm0 0l0 0c0,0 0,0 0,0zm144 -6l0 0zm134 -2l0 0 0 0zm0 0l0 0zm-128 -3l0 0zm-1 -3l0 0c0,0 0,0 0,0zm0 0c0,-1 0,0 0,0l0 0zm0 -1l0 0zm0 0l0 0zm0 0l0 0zm0 0l0 0 0 0zm-143 0l0 0zm143 0l0 0zm0 -1l0 0c0,0 0,0 0,0zm0 0c0,0 0,0 0,0l0 0zm130 -3l0 0zm0 0l0 0zm-131 -8l0 0zm0 0l0 0zm138 -1l0 0zm1 -1l0 0zm61 68c-1,0 -1,0 -1,1 -1,0 -1,0 -2,0 0,1 -1,1 -2,1 -1,1 -4,1 -5,0l0 0c-1,0 -1,0 -1,0 -1,0 -1,0 -2,0 0,-1 -1,-1 -2,-1 -1,0 -2,-1 -3,0l0 0c-3,1 -3,1 -5,4 -1,0 -1,0 -1,1 -1,0 -1,2 -2,2 0,3 0,3 2,4 0,0 0,0 0,0 1,1 0,0 1,1l1 0c-31,0 -62,0 -93,0 0,-1 1,-1 1,-1 1,0 1,0 1,0 1,0 2,-1 3,-1 1,-1 1,-1 3,-1 0,-1 0,-1 0,-1 1,0 1,0 1,0 1,-1 2,-1 3,-2l4 -2c0,-1 0,-1 0,-1 1,-1 5,-4 6,-5 2,-1 4,-4 5,-6 1,-1 2,-2 2,-2 8,-11 13,-26 16,-38 1,5 0,6 3,11 1,3 4,5 6,3 1,-1 2,-1 3,-2 2,-2 3,-8 2,-11 0,-3 2,-5 2,-10 0,-5 13,-13 18,-15 3,-1 7,-3 10,-5 3,-1 3,-2 5,0 1,1 4,2 6,2 3,1 8,2 11,4 3,2 11,11 10,14l-1 6c-2,3 -3,7 -4,10 0,4 -1,8 1,12 2,4 4,5 6,9 2,2 2,2 1,5 0,6 -4,10 -9,14zm-324 -70l0 0zm9 -5l0 0zm2 -1l0 0zm65 0l0 0zm0 0l1 0 1 -1 0 0c1,-1 3,-2 4,-2 3,-1 3,0 7,2 1,1 2,2 3,3 5,3 10,5 15,7 1,1 3,1 4,2 1,1 1,2 1,4 -2,3 2,7 2,8 0,0 0,1 0,2 -1,6 2,4 1,7 -1,3 0,4 2,3l1 -1c0,0 0,0 0,0 1,-1 2,-3 2,-3 0,1 0,3 1,4 1,1 2,-2 3,-3 1,-2 0,-3 1,-5l1 -1c0,1 0,3 1,4 2,10 7,24 12,32 5,7 4,6 10,12 0,1 1,2 2,2 0,1 1,1 2,2 2,2 6,5 8,6 2,1 4,2 5,3 1,0 5,1 5,2 -30,0 -60,0 -90,0l2 0c-1,-1 0,-1 -2,-3 0,-1 -1,-2 -2,-3 -1,-1 -1,-2 -2,-3 -2,-1 -2,-2 -4,-2 -5,-2 -7,2 -14,-7 -2,-3 -5,-11 -4,-15 0,-1 0,-2 0,-3 0,-2 0,-3 0,-4 1,-2 1,-3 1,-4 1,-2 1,-3 1,-5 1,-5 -1,-9 -3,-13 -1,-2 -3,-5 -4,-7 0,-1 -1,-3 -1,-4 0,-1 0,-2 1,-3 4,-6 7,-6 13,-9 3,-1 6,-2 11,-4 1,-1 2,-2 2,0zm0 -2l0 0c0,0 0,0 0,0zm292 0l0 0zm-347 -6l0 0zm335 -1l0 0zm-330 -4l0 0zm258 -1l0 0zm-244 -42l0 0zm258 -7l0 0zm-19 48l1 0 4 -2c0,0 1,0 1,0 1,1 0,2 -1,3 0,0 -2,3 -2,3l-3 3c-1,2 -3,3 -5,5l-11 11 -1 1c-1,0 -1,1 -1,1 0,0 0,0 0,0 -1,0 -1,0 -1,0l-2 4c0,0 0,0 0,0l-1 1c-1,1 -1,2 -2,3 1,-4 1,-12 2,-16 0,-1 0,-2 0,-3l0 -8c0,-3 1,-6 1,-10l1 -18c0,-1 0,-2 0,-3 0,-4 1,-10 1,-15 0,-1 1,-9 1,-11 0,2 0,5 0,6 0,2 0,5 1,7 0,1 0,2 1,4l1 5c1,3 1,3 2,6 0,1 0,2 1,3 0,1 0,2 0,4 1,1 2,4 3,6 1,2 2,5 3,6 2,2 4,5 6,4zm-18 -51l0 0c0,0 0,0 0,0zm0 0l0 0 0 0zm0 0l0 0 0 0zm0 0l0 0 0 0zm0 0l0 0 0 0zm0 0l0 0 0 0zm0 0l0 0zm0 -1c0,0 0,0 0,0l0 0zm0 0l0 0c0,0 0,0 0,0zm0 0c0,0 0,0 0,0l0 0zm0 -1c0,0 0,0 0,0l0 0zm0 0c0,0 0,0 0,0l0 0zm0 -1c0,0 0,0 0,0l0 0zm-165 51c1,0 2,1 3,2l2 1c0,0 1,1 2,2 1,0 1,0 2,1 1,-1 1,-2 2,-4 0,-4 -1,-6 0,-12 1,-4 2,-6 3,-9 1,-2 2,-4 2,-7 1,-7 -1,-5 2,-16 4,-10 0,-7 3,-10 2,-2 1,-3 2,-4 0,2 1,14 1,15 0,5 0,10 1,15l1 19c0,1 0,3 0,4 0,2 0,3 0,4l1 19c1,1 1,2 1,4 0,0 0,3 0,3 0,1 -1,-1 -2,-2 -1,-1 -2,-2 -3,-3 -3,-3 -7,-8 -11,-11 -2,-1 -5,-3 -7,-5 -1,-2 -5,-4 -5,-6zm165 -59l0 0c0,0 0,0 0,0zm0 0l0 0c0,0 0,0 0,0zm0 -1l0 0c0,0 0,0 0,0zm0 0l0 0c0,0 0,0 0,0zm1 0l0 0zm0 0l0 0zm0 -1l0 0zm0 0l0 0 0 0zm0 0c-1,0 -1,0 0,-1 0,1 0,1 0,1zm0 -1l0 0zm0 0l0 0zm0 0l0 0zm-218 -4l0 0zm6 -6l0 0zm68 -1l0 0c0,0 0,0 0,0zm0 0l0 0zm0 0l0 0zm0 0l0 0zm0 0l0 -1 0 1zm0 -1l0 0zm-1 0c1,0 1,0 1,0l-1 0zm0 0l0 0 0 0zm200 -4l0 0z"/>
  <polygon class="fil1" points="359,196 359,196 359,196 "/>
  <polygon class="fil1" points="95,278 95,278 95,278 "/>
  <polygon class="fil1" points="63,300 63,300 63,300 "/>
  <polygon class="fil1" points="41,332 41,332 41,332 "/>
  <polygon class="fil1" points="90,337 90,337 90,337 "/>
  <polygon class="fil1" points="77,369 77,369 77,369 "/>
  <polygon class="fil1" points="293,371 293,371 294,371 "/>
  <polygon class="fil1" points="103,334 103,334 103,334 "/>
  <polygon class="fil1" points="143,178 143,178 143,178 "/>
  <polygon class="fil1" points="109,204 109,204 108,204 "/>
  <polygon class="fil1" points="422,280 422,280 422,280 "/>
  <polygon class="fil1" points="444,294 445,294 444,294 "/>
  <polygon class="fil1" points="70,335 70,335 70,335 "/>
  <polygon class="fil1" points="68,336 68,336 68,336 "/>
  <polygon class="fil1" points="129,178 129,178 129,178 "/>
  <polygon class="fil1" points="389,199 389,199 389,198 "/>
  <polygon class="fil1" points="332,159 332,159 "/>
  <polygon class="fil1" points="166,208 166,208 "/>
  <polygon class="fil1" points="107,209 106,209 "/>
  <polygon class="fil1" points="106,214 106,214 "/>
  <polygon class="fil1" points="103,220 103,220 "/>
  <polygon class="fil1" points="362,230 362,230 "/>
  <polygon class="fil1" points="348,276 347,276 "/>
  <polygon class="fil1" points="83,289 82,289 "/>
  <polygon class="fil1" points="146,290 146,290 "/>
  <polygon class="fil1" points="374,368 374,368 "/>
  <polygon class="fil1" points="78,369 78,369 "/>
  <polygon class="fil1" points="382,369 382,369 "/>
  <path class="fil0" d="M252 52l-203 148c-9,7 -21,4 -29,-4l0 0c-8,-8 -4,-22 5,-28l227 -168 228 168c9,6 12,20 4,28l0 0c-8,8 -20,11 -29,4l-203 -148z"/>
  <rect class="fil0" x="22" y="440" width="458.965" height="54.9888" rx="27" ry="27"/>
 </g>
</svg>
