<?xml version="1.0" encoding="UTF-8"?>
<!DOCTYPE svg PUBLIC "-//W3C//DTD SVG 1.1//EN" "http://www.w3.org/Graphics/SVG/1.1/DTD/svg11.dtd">
<!-- Creator: CorelDRAW X7 -->
<svg xmlns="http://www.w3.org/2000/svg" xml:space="preserve" width="500px" height="500px" version="1.1" style="shape-rendering:geometricPrecision; text-rendering:geometricPrecision; image-rendering:optimizeQuality; fill-rule:evenodd; clip-rule:evenodd"
viewBox="0 0 500 500"
 xmlns:xlink="http://www.w3.org/1999/xlink">
 <defs>
  <style type="text/css">
   <![CDATA[
    .str1 {stroke:#2B2A29;stroke-width:2.36221}
    .str0 {stroke:#FECC00;stroke-width:2.36221}
    .str2 {stroke:#2B2A29;stroke-width:0.900003}
    .fil1 {fill:none}
    .fil2 {fill:#2B2A29}
    .fil0 {fill:#FECC00}
    .fil4 {fill:black}
    .fil3 {fill:#2B2A29;fill-rule:nonzero}
   ]]>
  </style>
 </defs>
 <g id="Layer_x0020_1">
  <metadata id="CorelCorpID_0Corel-Layer"/>
  <path class="fil0 str0" d="M76 96l348 0c34,0 61,28 61,61l0 182c0,33 -27,60 -61,60l-348 0c-34,0 -61,-27 -61,-60l0 -182c0,-33 27,-61 61,-61z"/>
  <line class="fil1 str1" x1="449" y1="248" x2="220" y2= "248" />
  <line class="fil1 str1" x1="449" y1="342" x2="148" y2= "342" />
  <path class="fil2" d="M123 158c-2,-5 -2,-12 -1,-18 7,9 8,14 17,18 2,1 6,1 9,2 1,-11 18,-22 27,-33 17,14 28,45 16,65 14,9 23,21 25,42 -7,-12 -14,-16 -20,-20 10,10 17,32 20,46 -6,-8 -12,-17 -26,-19 8,10 14,30 9,46 -4,-21 -25,-24 -42,-23 0,11 3,21 6,30 -1,1 26,4 24,5 -21,4 -88,4 -104,0 -2,0 25,-4 23,-5 4,-8 6,-18 6,-30 -17,-1 -39,2 -43,23 -5,-16 1,-36 10,-46 -15,2 -21,11 -26,19 3,-14 9,-36 19,-46 -6,4 -13,8 -19,20 3,-33 23,-37 25,-42 -13,-20 -2,-51 15,-65 9,11 25,22 25,33 1,0 3,-1 5,-2z"/>
  <rect class="fil2 str2" x="191" y="116" width="117.776" height="35.7728" rx="18" ry="18"/>
  <path class="fil3" d="M253 234l-5 0 -2 -6 -13 0 -2 6 -6 0 12 -33 4 0 12 33zm-9 -11l-5 -14 -5 14 10 0z"/>
  <polygon id="1" class="fil3" points="278,206 269,206 269,234 264,234 264,206 255,206 255,201 278,201 "/>
  <polygon id="2" class="fil3" points="303,206 295,206 295,234 290,234 290,206 281,206 281,201 303,201 "/>
  <polygon id="3" class="fil3" points="330,234 309,234 309,201 330,201 330,206 314,206 314,215 328,215 328,220 314,220 314,230 330,230 "/>
  <polygon id="4" class="fil3" points="361,234 357,234 342,211 342,234 337,234 337,201 341,201 356,224 356,201 361,201 "/>
  <path id="5" class="fil3" d="M393 218l0 1c0,2 0,3 0,5 0,1 -1,2 -1,4 -1,1 -1,2 -2,3 -2,2 -5,3 -9,3l-11 0 0 -33 11 0c4,0 7,1 9,4 1,0 1,2 2,3 0,1 1,2 1,3 0,2 0,3 0,5l0 2zm-5 0c0,-2 0,-4 0,-5 0,-1 0,-2 0,-3 -1,-1 -1,-1 -2,-2 -1,-1 -3,-2 -5,-2l-6 0 0 24 6 0c2,0 4,-1 5,-3 1,0 2,-2 2,-3 0,-1 0,-4 0,-6z"/>
  <polygon id="6" class="fil3" points="421,234 400,234 400,201 421,201 421,206 405,206 405,215 419,215 419,220 405,220 405,230 421,230 "/>
  <polygon id="7" class="fil3" points="449,234 428,234 428,201 449,201 449,206 433,206 433,215 447,215 447,220 433,220 433,230 449,230 "/>
  <g id="_1775238016112">
   <path class="fil4" d="M219 328l0 1c0,2 3,5 5,5l1 0c4,0 6,-2 8,-2 1,0 2,1 4,1l2 0c3,0 5,-4 5,-6 0,-5 -4,-5 -6,-7 -1,-2 -3,-7 -7,-7l-2 0c-3,0 -4,6 -5,7 -2,2 -5,3 -5,8z"/>
   <path class="fil4" d="M224 306l1 0c3,0 5,-2 5,-4l0 0c0,-5 -3,-5 -3,-10 0,-1 -2,-2 -3,-2l0 0c-5,0 -8,16 0,16z"/>
   <path class="fil4" d="M232 303l0 1c0,2 2,4 4,4l2 0c2,0 5,-5 5,-7 -1,-4 -2,-9 -5,-9 -3,0 -2,3 -3,5 -1,1 -3,4 -3,6z"/>
   <path class="fil4" d="M211 312c0,5 2,8 6,8 2,0 5,-2 5,-5l-1 -1c0,-3 -1,-3 -3,-5 -1,-1 -2,-3 -4,-3 -1,0 -3,5 -3,6z"/>
   <path class="fil4" d="M239 313l0 0c0,3 2,5 4,5 4,0 7,-4 7,-7l0 -2c0,-2 -1,-4 -3,-4l-1 0c0,0 -2,2 -4,3 -1,1 -3,3 -3,5z"/>
   <path class="fil4" d="M226 287c0,1 0,1 -1,1l0 0c-1,0 -1,0 -2,-1 0,-1 2,-4 3,-4l0 4z"/>
   <path class="fil4" d="M212 303c0,1 1,1 2,1 1,0 1,0 1,-1l0 -4c-2,0 -3,2 -3,4z"/>
   <path class="fil4" d="M249 302c0,1 -1,2 -2,1 0,0 -1,0 -1,-1l1 -4c1,1 2,3 2,4z"/>
   <path class="fil4" d="M236 289c0,0 0,1 1,1l1 0c0,0 1,0 1,-1 -1,-2 -2,-4 -4,-4l1 4z"/>
  </g>
  <g id="_1775238011920">
   <path class="fil4" d="M252 316l-1 0c-2,2 -2,7 0,8l0 1c3,2 6,2 7,3 1,1 1,3 3,4l2 2c1,1 6,0 7,-1 3,-4 1,-6 1,-10 0,-2 2,-7 0,-9l-2 -1c-2,-3 -7,1 -9,1 -3,0 -5,-2 -8,2z"/>
   <path class="fil4" d="M271 304l0 1c2,2 5,2 7,0l0 0c3,-4 1,-5 5,-9 0,-1 0,-3 -1,-3l0 -1c-3,-3 -17,6 -11,12z"/>
   <path class="fil4" d="M279 307l-1 1c-1,2 -2,4 0,6l1 1c2,2 7,0 8,-2 3,-2 6,-8 3,-10 -1,-2 -3,1 -5,2 -2,0 -5,1 -6,2z"/>
   <path class="fil4" d="M257 299c-3,3 -4,7 -2,10 2,2 6,1 7,-1l1 0c2,-2 1,-4 1,-6 0,-1 2,-4 0,-5 -1,-1 -6,1 -7,2z"/>
   <path class="fil4" d="M277 319l-1 1c-1,1 -2,4 0,6 3,2 7,2 10,-1l0 -1c2,-1 3,-4 2,-5l-1 0c0,-1 -3,0 -5,-1 -2,0 -4,0 -5,1z"/>
   <path class="fil4" d="M285 292c0,0 -1,1 -1,0l-1 0c0,-1 0,-1 0,-2 2,-1 4,-2 5,-1l-3 3z"/>
   <path class="fil4" d="M265 293c-1,1 -1,1 0,2 0,1 1,1 1,0l3 -3c-1,-1 -3,0 -4,1z"/>
   <path class="fil4" d="M291 319c-1,0 -1,0 -2,-1 0,0 0,-1 0,-1l4 -3c0,2 -1,4 -2,5z"/>
   <path class="fil4" d="M291 300c0,1 0,1 0,2l1 0c0,0 0,0 1,0 1,-1 2,-4 1,-5l-3 3z"/>
  </g>
  <g id="_1775238008976">
   <path class="fil4" d="M331 297l-1 0c-3,0 -6,4 -6,5l0 1c0,4 3,6 3,8 0,1 -2,2 -2,5l0 2c0,2 4,4 7,4 5,0 4,-3 7,-6 2,-1 6,-3 6,-6l0 -2c0,-4 -5,-4 -7,-6 -2,-2 -3,-5 -7,-5z"/>
   <path class="fil4" d="M352 303l0 1c0,2 2,5 5,4l0 0c4,0 4,-2 9,-3 1,0 3,-1 3,-2l0 0c0,-5 -17,-8 -17,0z"/>
   <path class="fil4" d="M356 310l-2 1c-1,0 -4,1 -4,3l0 2c0,3 5,5 8,5 3,0 9,-2 9,-5 0,-3 -3,-2 -5,-3 -2,-1 -4,-3 -6,-3z"/>
   <path class="fil4" d="M346 289c-4,1 -8,2 -8,6 0,3 3,5 5,5l1 0c3,0 3,-2 5,-3 1,-1 4,-2 4,-4 0,-1 -5,-4 -7,-4z"/>
   <path class="fil4" d="M346 318l-1 0c-2,0 -4,2 -4,4 0,3 3,6 7,6l1 0c2,0 5,-1 5,-3l0 0c0,-1 -3,-3 -4,-4 0,-2 -2,-3 -4,-3z"/>
   <path class="fil4" d="M371 305c-1,-1 -1,-1 -1,-2l0 0c0,-1 0,-1 1,-1 2,0 4,1 4,3l-4 0z"/>
   <path class="fil4" d="M356 291c-1,0 -1,0 -1,1 -1,1 0,1 0,1l5 0c-1,-1 -2,-2 -4,-2z"/>
   <path class="fil4" d="M356 327c-1,0 -1,0 -1,-1 0,-1 1,-1 1,-1l5 1c-1,1 -3,2 -5,1z"/>
   <path class="fil4" d="M370 314c-1,1 -1,1 -1,2l0 0c0,1 0,1 1,1 1,0 3,-2 4,-3l-4 0z"/>
  </g>
  <g id="_1775238006064">
   <path class="fil4" d="M379 289l-1 0c-2,-1 -7,0 -8,2l0 0c-2,4 -1,7 -2,8 0,1 -2,2 -3,4l-1 2c-1,2 1,5 3,6 5,3 6,0 9,-1 3,0 7,0 9,-3l1 -1c2,-3 -3,-7 -3,-9 -1,-2 0,-6 -4,-8z"/>
   <path class="fil4" d="M395 305l-1 0c-1,3 -1,6 2,7l0 0c4,2 5,0 10,2 0,0 2,0 3,-1l0 0c2,-4 -10,-15 -14,-8z"/>
   <path class="fil4" d="M394 313l-2 0c-1,-1 -4,-1 -5,1l-1 1c-1,3 2,7 4,8 3,2 9,3 11,1 1,-3 -2,-3 -3,-6 -1,-1 -3,-4 -4,-5z"/>
   <path class="fil4" d="M396 290c-4,-2 -8,-2 -10,1 -1,2 0,6 2,7l1 0c3,2 4,1 6,0 1,0 4,0 5,-1 1,-2 -2,-6 -4,-7z"/>
   <path class="fil4" d="M381 314l0 0c-2,-1 -5,0 -6,1 -2,4 0,8 3,10l1 0c2,1 5,2 6,0l0 0c0,-1 -1,-4 -1,-6 0,-1 -1,-4 -3,-5z"/>
   <path class="fil4" d="M410 316c0,-1 -1,-1 0,-2l0 0c0,-1 1,-1 1,-1 2,1 3,4 3,5l-4 -2z"/>
   <path class="fil4" d="M404 296c-1,0 -2,0 -2,1 -1,1 0,1 0,1l4 2c0,-1 -1,-3 -2,-4z"/>
   <path class="fil4" d="M386 328c-1,-1 -1,-1 0,-2 0,0 1,0 1,0l4 3c-2,1 -4,0 -5,-1z"/>
   <path class="fil4" d="M404 323c-1,0 -1,0 -2,1l0 0c0,1 0,1 1,2 1,1 4,0 5,-1l-4 -2z"/>
  </g>
  <g id="_1775238001456">
   <path class="fil4" d="M321 290l0 -1c-2,-2 -6,-3 -8,-2l0 1c-4,1 -4,5 -6,5 -1,1 -2,1 -4,2l-2 1c-2,1 -2,6 -1,7 3,5 6,3 9,4 2,1 6,4 9,2l2 -1c3,-2 0,-7 1,-9 0,-3 3,-5 0,-9z"/>
   <path class="fil4" d="M327 312l0 0c-3,1 -4,4 -2,6l0 0c2,4 4,3 7,7 1,1 3,1 3,1l1 0c4,-3 -2,-19 -9,-14z"/>
   <path class="fil4" d="M322 319l-1 -2c0,-1 -3,-2 -5,-1l-1 1c-2,1 -2,6 -1,8 2,3 6,7 9,6 2,-1 0,-4 0,-6 0,-2 0,-5 -1,-6z"/>
   <path class="fil4" d="M336 299c-3,-3 -6,-5 -9,-3 -2,1 -3,4 -2,6l1 1c1,3 3,2 5,3 1,0 3,2 5,1 1,-1 1,-6 0,-8z"/>
   <path class="fil4" d="M311 313l0 0c-1,-2 -4,-3 -6,-2 -3,2 -4,6 -2,9l1 1c1,2 3,4 4,3l1 0c1,0 1,-4 2,-5 1,-2 1,-4 0,-6z"/>
   <path class="fil4" d="M335 329c0,-1 0,-1 1,-2l0 0c1,0 1,0 1,0 1,2 1,4 0,5l-2 -3z"/>
   <path class="fil4" d="M340 309c-1,-1 -1,-1 -2,-1 -1,1 -1,1 -1,2l2 3c1,-1 1,-3 1,-4z"/>
   <path class="fil4" d="M308 327c0,-1 0,-1 1,-1 1,-1 1,-1 1,0l2 4c-2,0 -3,-1 -4,-3z"/>
   <path class="fil4" d="M326 332c-1,0 -1,0 -2,0l0 0c-1,1 -1,1 0,2 1,1 3,2 5,2l-3 -4z"/>
  </g>
  <g id="_1775237998832">
   <path class="fil4" d="M431 296l0 -1c-1,-2 -5,-4 -7,-4l-1 1c-3,0 -5,3 -6,4 -2,0 -3,-1 -5,0l-2 1c-2,0 -4,5 -3,7 2,4 5,3 8,5 2,2 4,5 8,5l2 -1c3,-1 2,-6 3,-8 2,-3 4,-4 3,-9z"/>
   <path class="fil4" d="M431 318l-1 1c-2,0 -4,3 -3,5l0 0c1,5 4,4 5,9 1,0 2,1 3,1l1 0c4,-1 3,-18 -5,-16z"/>
   <path class="fil4" d="M425 324l-1 -2c0,-1 -3,-3 -4,-2l-2 0c-3,1 -4,6 -3,8 1,4 4,9 7,8 3,-1 1,-4 2,-6 0,-1 1,-4 1,-6z"/>
   <path class="fil4" d="M442 309c-1,-4 -3,-7 -7,-6 -3,1 -4,4 -3,6l0 1c1,3 2,3 4,4 2,1 3,3 5,2 1,0 2,-5 1,-7z"/>
   <path class="fil4" d="M415 316l0 0c-1,-3 -3,-4 -5,-4 -4,1 -6,5 -5,9l1 1c1,2 2,4 4,4l0 0c1,0 2,-4 3,-5 2,-1 3,-3 2,-5z"/>
   <path class="fil4" d="M434 337c0,0 0,-1 1,-1l1 0c0,-1 1,0 1,0 0,2 0,5 -2,5l-1 -4z"/>
   <path class="fil4" d="M444 319c-1,-1 -1,-1 -2,-1 -1,0 -1,0 -1,1l1 4c2,0 2,-2 2,-4z"/>
   <path class="fil4" d="M409 329c-1,-2 0,-2 1,-2 1,0 1,0 1,1l0 5c-1,-1 -2,-3 -2,-4z"/>
   <path class="fil4" d="M425 338c-1,0 -1,-1 -2,0l0 0c-1,0 -1,0 -1,1 1,2 3,3 4,3l-1 -4z"/>
  </g>
 </g>
</svg>
