<svg xmlns="http://www.w3.org/2000/svg" xml:space="preserve" width="26px" height="30px" version="1.1" style="shape-rendering:geometricPrecision; text-rendering:geometricPrecision; image-rendering:optimizeQuality; fill-rule:evenodd; clip-rule:evenodd"
    viewBox="0 0 9 11"
    xmlns:xlink="http://www.w3.org/1999/xlink">
    <g>
        <g>
            <path class="fil0" d="M4 7c0,0 -3,1 -3,1 -3,2 1,2 2,2 1,1 3,3 2,0 0,-1 0,-3 -1,-3z"/>
            <path class="fil0" d="M9 5c-2,1 -5,3 -2,4 2,1 4,-4 2,-4z"/>
            <path class="fil0" d="M2 2c-2,1 -3,5 0,5 2,0 1,-5 0,-5z"/>
            <path class="fil0" d="M9 4c0,1 -1,2 -2,1 -3,-2 4,-6 2,-1z"/>
            <path class="fil0" d="M4 1c-1,1 -1,2 0,3 4,1 2,-7 0,-3z"/>
        </g>
    </g>
</svg>
