<?xml version="1.0" encoding="UTF-8"?>
<!DOCTYPE svg PUBLIC "-//W3C//DTD SVG 1.1//EN" "http://www.w3.org/Graphics/SVG/1.1/DTD/svg11.dtd">
<!-- Creator: CorelDRAW X7 -->
<svg xmlns="http://www.w3.org/2000/svg" xml:space="preserve" width="485px" height="249px" version="1.1" style="shape-rendering:geometricPrecision; text-rendering:geometricPrecision; image-rendering:optimizeQuality; fill-rule:evenodd; clip-rule:evenodd"
viewBox="0 0 480 247"
 xmlns:xlink="http://www.w3.org/1999/xlink">
 <defs>
  <style type="text/css">
   <![CDATA[
    .fil0 {fill:#2B2A29}
   ]]>
  </style>
 </defs>
 <g id="Layer_x0020_1">
  <metadata id="CorelCorpID_0Corel-Layer"/>
  <g id="_1775101241936">
   <path class="fil0" d="M49 60c0,1 -31,28 -31,28 -30,16 -14,-24 -13,-29 1,-12 -11,-45 16,-29 9,5 32,20 28,30z"/>
   <path class="fil0" d="M293 60c-1,1 -32,28 -32,28 -29,16 -13,-24 -13,-29 1,-12 -11,-45 16,-29 9,5 32,20 29,30z"/>
   <path class="fil0" d="M159 196c-1,1 -32,28 -32,29 -29,15 -13,-25 -13,-30 1,-12 -11,-45 17,-29 8,5 31,21 28,30z"/>
   <path class="fil0" d="M402 196c0,1 -31,28 -32,29 -29,15 -13,-25 -13,-30 1,-12 -11,-45 17,-29 8,5 31,21 28,30z"/>
   <path class="fil0" d="M85 17c-13,17 -53,35 -53,2 1,-28 68,-22 53,-2z"/>
   <path class="fil0" d="M328 17c-13,17 -53,35 -52,2 0,-28 67,-22 52,-2z"/>
   <path class="fil0" d="M195 153c-13,17 -53,35 -53,2 0,-28 67,-22 53,-2z"/>
   <path class="fil0" d="M438 153c-13,17 -53,35 -53,2 1,-28 68,-22 53,-2z"/>
   <path class="fil0" d="M85 104c-12,12 -70,10 -51,-20 16,-25 60,10 51,20z"/>
   <path class="fil0" d="M328 104c-12,12 -70,10 -50,-20 15,-25 60,10 50,20z"/>
   <path class="fil0" d="M195 240c-12,12 -71,10 -51,-20 15,-24 60,10 51,20z"/>
   <path class="fil0" d="M438 240c-12,12 -70,10 -51,-20 16,-24 60,10 51,20z"/>
   <path class="fil0" d="M106 17c-12,-1 -24,2 -23,15 3,47 81,-6 23,-15z"/>
   <path class="fil0" d="M349 17c-12,-1 -23,2 -23,15 3,47 82,-6 23,-15z"/>
   <path class="fil0" d="M215 154c-12,-2 -23,2 -22,14 2,47 81,-6 22,-14z"/>
   <path class="fil0" d="M458 154c-12,-2 -23,2 -22,14 3,47 81,-6 22,-14z"/>
   <path class="fil0" d="M106 90c-12,2 -24,-2 -23,-15 3,-47 81,7 23,15z"/>
   <path class="fil0" d="M349 90c-12,2 -23,-2 -23,-15 3,-47 82,7 23,15z"/>
   <path class="fil0" d="M215 226c-12,2 -23,-2 -22,-15 2,-47 81,7 22,15z"/>
   <path class="fil0" d="M458 226c-12,2 -23,-2 -22,-15 3,-47 81,7 22,15z"/>
  </g>
 </g>
</svg>
