<?xml version="1.0" encoding="UTF-8"?>
<!DOCTYPE svg PUBLIC "-//W3C//DTD SVG 1.1//EN" "http://www.w3.org/Graphics/SVG/1.1/DTD/svg11.dtd">
<!-- Creator: CorelDRAW X7 -->
<svg xmlns="http://www.w3.org/2000/svg" xml:space="preserve" width="500px" height="500px" class="svg"  version="1.1" style="shape-rendering:geometricPrecision; text-rendering:geometricPrecision; image-rendering:optimizeQuality; fill-rule:evenodd; clip-rule:evenodd"
viewBox="0 0 500 500"
 xmlns:xlink="http://www.w3.org/1999/xlink">
 <defs>
  <style type="text/css">
   <![CDATA[
    .str0 {stroke:#2B2A29;stroke-width:0.900003}
    .fil1 {fill:none}
    .fil9 {fill:#FEFEFE}
    .fil8 {fill:#EBECEC}
    .fil3 {fill:#C5C6C6}
    .fil10 {fill:#FECC00}
    .fil0 {fill:#E51A4B}
    .fil7 {fill:#E31E24}
    .fil4 {fill:#CE82B5}
    .fil2 {fill:#009846}
    .fil11 {fill:#FF9966}
    .fil5 {fill:#FEFEFE;fill-rule:nonzero}
    .fil6 {fill:black;fill-rule:nonzero}
   ]]>
  </style>
 </defs>
 <g id="Layer_x0020_1">
  <metadata id="CorelCorpID_0Corel-Layer"/>
  <rect class="fil0" x="128" y="150" width="1.01648" height="55.5552"/>
  <rect class="fil1 str0" x="124" y="150" width="12.0523" height="55.5552"/>
  <rect class="fil0" x="128" y="150" width="1.01648" height="55.5552"/>
  <rect class="fil0" transform="matrix(0.0357351 -0.0478115 -0.566897 -0.423707 127.325 146.267)" width="17.0292" height="78.4963"/>
  <rect class="fil1 str0" transform="matrix(0.423709 -0.566895 -0.566895 -0.423709 124.381 149.967)" width="17.0292" height="78.4963"/>
  <line class="fil1 str0" x1="125" y1="150" x2="133" y2= "141" />
  <path class="fil1 str0" d="M132 140c3,2 4,7 4,10"/>
  <path class="fil1 str0" d="M135 144l-10 6m0 0l11 -3"/>
  <polygon class="fil2 str0" points="45,197 211,197 182,425 74,425 "/>
  <rect class="fil3 str0" x="41" y="188" width="173.791" height="8.92392" rx="59" ry="2"/>
  <polygon class="fil4 str0" points="59,307 48,226 207,226 197,307 "/>
  <path class="fil5" d="M163 297c-5,-1 -8,-2 -11,-2 -3,0 -6,1 -8,3 -3,-2 -4,-3 -6,-4 -2,-1 -4,-1 -6,-1 -3,0 -8,1 -15,3 -7,2 -12,3 -15,3 -5,0 -9,-1 -12,-4 -4,-3 -6,-6 -7,-11 -5,2 -8,4 -10,4 -3,0 -5,-1 -7,-2 -2,-1 -3,-3 -3,-5 0,-5 3,-7 9,-7 3,0 8,1 13,3l6 -10c-4,0 -7,-1 -9,-2 -3,-2 -4,-4 -4,-8 0,-4 2,-9 6,-13 4,-4 8,-6 13,-6 0,0 3,0 8,1 -16,3 -24,9 -24,19 0,2 1,4 3,6 2,1 4,2 6,2 0,0 1,0 1,0 3,-7 6,-13 10,-18 6,-7 11,-10 16,-10 1,0 2,0 3,2 1,1 2,2 2,4 0,4 -3,9 -8,13 -5,4 -9,7 -14,9 -4,7 -7,12 -11,14 1,3 2,5 2,6 1,3 2,4 3,6 3,3 6,4 9,4 4,0 10,-1 18,-3 8,-3 14,-4 19,-4 10,0 17,3 23,8zm-44 -55c0,-2 -1,-3 -2,-3 -3,0 -6,3 -10,10 -3,6 -6,11 -7,15 13,-6 19,-13 19,-22zm-39 40l0 -1c0,-1 -1,-2 -3,-2 -2,-1 -3,-1 -4,-1l-3 0c-3,0 -5,1 -5,3l0 1c0,1 1,1 2,2 1,1 2,1 3,1 5,0 8,-1 10,-3z"/>
  <path id="1" class="fil5" d="M127 255c0,2 0,3 0,3 -1,1 -2,1 -4,1 -1,0 -2,-1 -2,-1l0 -3c0,-1 0,-2 1,-2 2,-1 2,-1 3,-1 2,0 2,1 2,3zm-3 20c0,2 -1,4 -5,7 -3,4 -5,5 -8,5 -2,0 -3,-1 -3,-4 0,-2 1,-4 2,-6l3 -5c0,-1 2,-4 4,-8l7 0c-4,6 -7,12 -8,17l0 0c2,0 3,-1 5,-3 1,-2 2,-4 3,-4l0 0c0,0 0,0 0,1z"/>
  <path id="2" class="fil5" d="M166 278c0,0 -1,2 -2,4 -2,2 -3,3 -4,3 -2,1 -4,2 -6,2 -3,0 -5,-2 -5,-5 0,-1 1,-3 3,-7 2,-4 3,-7 3,-9l0 -1 0 0c0,-1 0,-1 -1,-1 0,0 -2,1 -3,3 -2,1 -3,2 -3,3 -1,1 -2,3 -4,7 -1,5 -2,7 -2,8 0,0 1,1 2,2l-9 0c0,0 0,0 0,-1 0,-2 1,-5 4,-10 2,-4 3,-8 3,-10l0 -1 0 0c0,-1 -1,-1 -1,-1 -1,0 -4,2 -7,6 -1,2 -2,5 -4,8 -1,5 -2,8 -3,9l-8 0 6 -14c1,-1 1,-2 2,-3 1,-1 1,-2 1,-3 0,-1 0,-1 -1,-1 0,0 0,1 -2,2 -1,1 -2,2 -2,2 0,0 0,0 0,0l0 0c0,-1 1,-3 4,-6 2,-2 4,-4 5,-4 2,0 3,2 3,6 0,0 0,0 0,0 0,0 1,-1 3,-2 3,-1 4,-2 6,-2 3,0 4,1 4,4 2,0 3,-1 5,-3 1,-1 3,-1 4,-1 3,0 5,1 5,4 0,2 -1,5 -3,9 -2,4 -3,6 -3,6 0,1 0,1 1,1 2,0 4,-1 7,-2 0,-1 1,-1 2,-3l0 1z"/>
  <path id="3" class="fil5" d="M192 271c0,1 -1,1 -2,1 -1,1 -2,1 -3,1 0,0 -1,0 -1,0 -2,3 -4,6 -6,9 -3,3 -6,5 -9,5 -4,0 -5,-2 -5,-5 0,-4 2,-8 6,-13 4,-5 8,-8 12,-8 3,0 4,1 4,4 0,1 0,3 -1,6 0,0 1,0 1,0 0,0 1,0 2,0 0,0 1,0 1,0 1,0 1,0 1,0zm-6 -5c0,-2 0,-3 -1,-3 -1,0 -2,1 -3,2 -1,0 -2,1 -2,2 0,1 1,2 1,3 1,0 2,1 3,1 0,0 0,0 1,0l0 0c0,0 0,-1 1,-3 0,-1 0,-2 0,-2zm-2 6c-3,0 -4,-1 -5,-3 -1,1 -2,3 -4,5l0 0c0,1 0,2 -1,3 0,1 -1,2 -1,3 0,1 1,2 2,2 3,0 6,-4 9,-10z"/>
  <path class="fil6" d="M161 297c-4,-2 -8,-2 -10,-2 -3,0 -6,1 -9,3 -2,-2 -4,-4 -5,-4 -2,-2 -4,-2 -6,-2 -4,0 -9,1 -15,3 -7,2 -12,3 -16,3 -4,0 -8,-1 -12,-4 -3,-3 -5,-6 -7,-10 -4,2 -7,3 -10,3 -2,0 -4,-1 -6,-2 -3,-1 -4,-3 -4,-5 0,-5 3,-7 9,-7 4,0 8,1 13,3l6 -10c-3,0 -6,-1 -8,-2 -3,-2 -4,-4 -4,-7 0,-5 2,-9 6,-14 4,-4 8,-6 12,-6 1,0 4,0 9,1 -16,3 -24,10 -24,19 0,2 1,4 2,6 2,1 4,2 6,2 1,0 1,0 2,0 3,-7 6,-12 10,-17 5,-8 10,-11 15,-11 2,0 3,1 4,2 1,1 1,3 1,4 0,5 -2,9 -8,14 -4,3 -9,6 -14,8 -3,8 -7,12 -10,15 1,2 2,4 2,5 1,3 2,5 3,6 3,3 5,5 8,5 4,0 11,-2 19,-4 8,-3 14,-4 18,-4 10,0 18,3 23,9zm-43 -56c0,-2 -1,-3 -3,-3 -3,0 -6,4 -10,10 -3,6 -5,11 -6,15 13,-6 19,-13 19,-22zm-40 40l0 -1c0,-1 0,-1 -2,-2 -2,-1 -3,-1 -4,-1l-4 0c-3,0 -4,1 -4,3l0 1c0,1 0,2 1,2 1,1 2,1 3,1 6,0 9,-1 10,-3z"/>
  <path id="1" class="fil6" d="M126 254c0,2 0,3 -1,3 0,1 -1,1 -3,1 -2,0 -3,0 -3,-1l0 -3c0,-1 1,-1 2,-2 1,0 2,-1 3,-1 1,0 2,1 2,3zm-3 20c0,2 -2,5 -5,8 -3,3 -6,4 -8,4 -2,0 -3,-1 -3,-4 0,-2 0,-4 2,-6l3 -5c0,-1 1,-4 3,-8l7 0c-3,6 -6,12 -8,17l1 1c2,-1 3,-2 4,-4 1,-2 2,-3 3,-4l1 0c0,0 0,1 0,1z"/>
  <path id="2" class="fil6" d="M165 277c0,1 -1,2 -3,4 -1,2 -3,3 -4,4 -1,0 -3,1 -5,1 -3,0 -5,-2 -5,-4 0,-1 1,-4 3,-7 2,-4 3,-7 3,-10l0 -1 0 0c0,0 -1,-1 -1,-1 -1,0 -2,1 -4,3 -1,1 -2,2 -3,4 0,0 -1,3 -3,7 -2,4 -2,6 -2,7 0,1 0,1 1,2l-8 0c0,0 0,0 0,-1 0,-1 1,-5 3,-9 2,-5 3,-8 3,-11l1 -1 -1 0c0,0 0,-1 -1,-1 -1,0 -3,2 -6,6 -1,2 -3,5 -4,8 -2,5 -3,8 -3,9l-9 0 7 -14c0,0 1,-1 2,-3 0,-1 1,-2 1,-3 0,0 -1,-1 -1,-1 0,0 -1,1 -2,2 -1,2 -2,2 -2,2 0,0 0,0 -1,0l0 0c0,-1 2,-3 4,-5 3,-3 4,-4 5,-4 2,0 3,1 3,5 0,0 0,0 0,0 0,0 2,0 4,-2 2,-1 4,-2 5,-2 3,0 5,2 5,5 1,-1 3,-2 4,-3 2,-1 3,-2 5,-2 3,0 4,2 4,5 0,2 -1,4 -2,8 -2,4 -3,6 -3,7 0,0 0,0 0,1 3,0 5,-1 7,-3 1,0 2,-1 3,-2l0 0z"/>
  <path id="3" class="fil6" d="M191 270c0,1 -1,1 -2,2 -1,0 -2,0 -3,0 -1,0 -1,0 -2,0 -1,3 -3,6 -6,9 -3,3 -6,5 -8,5 -4,0 -6,-1 -6,-5 0,-4 2,-8 6,-13 4,-5 8,-8 12,-8 3,0 5,2 5,5 0,1 -1,2 -2,5 1,0 1,0 1,0 1,0 1,0 2,0 1,0 1,0 2,0 0,0 1,0 1,0zm-6 -5c0,-2 -1,-2 -2,-2 -1,0 -2,0 -3,1 -1,1 -1,2 -1,2 0,1 0,2 1,3 1,1 2,1 3,1 0,0 0,0 0,0l0 0c1,0 1,-1 1,-2 1,-1 1,-2 1,-3zm-3 7c-2,-1 -4,-2 -5,-4 -1,1 -2,3 -3,6l0 0c0,0 -1,1 -1,3 -1,1 -1,2 -1,2 0,1 0,2 1,2 3,0 6,-3 9,-9z"/>
  <rect class="fil0" x="340" y="131" width="1.11128" height="60.7368"/>
  <rect class="fil1 str0" x="333" y="131" width="13.1764" height="60.7368"/>
  <rect class="fil0" x="340" y="131" width="1.11128" height="60.7368"/>
  <rect class="fil0" transform="matrix(-0.0390681 -0.0522709 0.619771 -0.463226 342.505 127.129)" width="17.0292" height="78.4963"/>
  <rect class="fil1 str0" transform="matrix(-0.463229 -0.61977 0.61977 -0.463229 345.724 131.174)" width="17.0292" height="78.4963"/>
  <line class="fil1 str0" x1="345" y1="131" x2="336" y2= "122" />
  <path class="fil1 str0" d="M338 121c-4,2 -5,7 -5,10"/>
  <path class="fil1 str0" d="M334 125l11 6m0 0l-12 -3"/>
  <polygon class="fil7 str0" points="247,182 429,182 397,432 279,432 "/>
  <rect class="fil3 str0" x="243" y="173" width="190.001" height="9.75625" rx="65" ry="2"/>
  <polygon class="fil8 str0" points="262,303 251,215 425,215 414,303 "/>
  <path class="fil5" d="M376 292c-5,-1 -8,-2 -11,-2 -4,0 -7,1 -10,4 -2,-3 -4,-4 -5,-5 -3,-1 -5,-2 -7,-2 -4,0 -9,1 -17,4 -7,2 -13,3 -16,3 -6,0 -10,-1 -14,-4 -3,-3 -6,-7 -7,-12 -5,2 -9,4 -11,4 -3,0 -5,-1 -7,-2 -3,-2 -4,-4 -4,-6 0,-5 3,-7 10,-7 4,0 9,1 14,3l7 -11c-4,0 -7,-1 -10,-2 -3,-2 -4,-5 -4,-9 0,-5 2,-9 6,-14 5,-4 9,-7 14,-7 1,0 4,1 9,1 -17,4 -26,11 -26,21 0,3 1,5 3,6 2,2 4,3 6,3 1,0 1,0 2,0 3,-7 7,-14 11,-19 6,-8 12,-12 17,-12 2,0 3,1 4,2 1,2 1,3 1,5 0,5 -3,10 -8,15 -5,3 -10,6 -16,9 -4,8 -7,13 -11,16 1,3 2,5 2,6 1,3 3,5 4,6 3,3 6,5 9,5 4,0 11,-1 20,-4 9,-3 15,-4 20,-4 11,0 19,3 25,9zm-47 -60c0,-2 -1,-4 -3,-4 -3,0 -7,4 -11,12 -3,6 -6,11 -7,15 14,-6 21,-14 21,-23zm-43 43l0 -1c0,-1 -1,-1 -3,-2 -2,-1 -4,-1 -5,-1l-4 0c-3,0 -4,1 -4,3l0 1c0,1 0,2 2,3 1,0 2,1 2,1 6,0 10,-1 12,-4z"/>
  <path id="1" class="fil5" d="M338 246c0,2 -1,3 -1,3 -1,1 -2,1 -4,1 -2,0 -3,0 -3,-1l0 -3c0,-1 1,-2 2,-2 1,-1 2,-1 3,-1 2,0 3,1 3,3zm-4 21c0,3 -2,6 -5,9 -4,3 -7,5 -9,5 -2,0 -3,-1 -3,-5 0,-2 0,-4 2,-6l3 -6c0,-1 2,-4 4,-9l8 0c-4,7 -7,14 -9,19l1 1c1,-1 3,-2 4,-4 2,-2 3,-4 4,-4l0 0c0,0 0,0 0,0z"/>
  <path id="2" class="fil5" d="M380 271c0,1 -1,2 -3,4 -1,2 -3,4 -4,4 -2,1 -4,2 -6,2 -4,0 -5,-2 -5,-5 0,-1 1,-4 3,-8 2,-4 3,-7 3,-10l0 -1 0 0c0,-1 0,-1 -1,-1 -1,0 -2,1 -4,3 -1,1 -2,2 -3,4 -1,0 -2,3 -4,8 -2,4 -2,7 -2,7 0,1 0,2 1,3l-9 0c0,0 0,0 0,-1 0,-2 1,-6 4,-11 2,-5 3,-9 3,-11l1 -1 0 0c-1,-1 -1,-1 -2,-1 -1,0 -3,2 -7,6 -1,2 -3,5 -4,9 -2,5 -3,8 -4,10l-9 0 7 -15c1,-1 1,-2 2,-4 1,-1 1,-2 1,-3 0,-1 0,-1 0,-1 0,0 -1,1 -3,2 -1,2 -2,2 -2,2 0,0 0,0 0,0l0 0c0,-1 1,-3 4,-6 2,-3 4,-4 5,-4 2,0 4,2 4,6 0,0 0,0 0,0 0,0 1,-1 4,-2 2,-2 4,-3 6,-3 3,0 5,2 5,6 1,-1 2,-3 4,-4 2,-1 4,-2 5,-2 4,0 5,2 5,5 0,2 -1,6 -3,10 -2,4 -3,6 -3,7 0,0 0,0 1,1 3,0 5,-1 7,-3 1,0 2,-1 3,-2l0 0z"/>
  <path id="3" class="fil5" d="M408 264c0,0 0,1 -2,1 -1,0 -2,0 -3,0 0,0 -1,0 -1,0 -2,4 -5,7 -7,10 -4,4 -7,6 -10,6 -4,0 -6,-2 -6,-5 0,-5 3,-10 7,-15 4,-6 9,-8 13,-8 3,0 5,1 5,4 0,1 0,3 -2,6 1,0 1,1 2,1 0,0 1,-1 2,-1 0,0 1,0 1,0 1,0 1,0 1,1zm-6 -6c0,-2 -1,-3 -2,-3 -1,0 -2,1 -3,2 -1,0 -2,1 -2,2 0,1 1,2 2,3 1,1 2,1 3,1 0,0 0,0 0,0l0 0c1,0 1,-1 1,-2 1,-2 1,-3 1,-3zm-3 7c-2,0 -4,-2 -5,-4 -1,1 -2,3 -4,6l0 0c0,1 -1,2 -1,3 -1,2 -1,3 -1,4 0,1 0,1 1,1 4,0 7,-3 10,-10z"/>
  <path class="fil6" d="M375 291c-5,-1 -9,-2 -12,-2 -3,0 -6,2 -9,4 -3,-2 -5,-4 -6,-5 -2,-1 -4,-2 -7,-2 -3,0 -9,1 -16,4 -8,2 -13,4 -17,4 -5,0 -10,-2 -13,-5 -4,-3 -6,-7 -8,-12 -4,3 -8,4 -11,4 -2,0 -5,-1 -7,-2 -2,-2 -4,-3 -4,-5 0,-6 4,-8 10,-8 4,0 9,1 14,3l7 -11c-4,0 -7,-1 -9,-2 -3,-2 -5,-5 -5,-8 0,-5 2,-10 7,-15 4,-4 9,-6 14,-6 0,0 3,0 9,0 -18,4 -26,11 -26,21 0,3 1,5 2,7 2,1 4,2 7,2 0,0 1,0 2,0 3,-7 6,-14 10,-19 6,-8 12,-12 17,-12 2,0 3,1 4,2 1,2 2,3 2,5 0,5 -3,10 -9,15 -5,4 -10,7 -15,9 -4,8 -8,14 -11,16 0,3 1,5 2,6 1,3 2,5 3,6 3,4 6,5 9,5 5,0 11,-1 20,-4 9,-2 16,-4 21,-4 10,0 19,3 25,9zm-48 -60c0,-2 -1,-3 -3,-3 -3,0 -6,3 -11,11 -3,6 -5,11 -7,16 14,-7 21,-14 21,-24zm-43 44l0 -2c0,0 -1,-1 -3,-2 -2,-1 -3,-1 -4,-1l-4 0c-3,0 -5,1 -5,3l0 2c0,1 1,1 2,2 1,1 2,1 3,1 6,0 10,-1 11,-3z"/>
  <path id="1" class="fil6" d="M336 245c0,2 0,3 -1,4 0,0 -1,1 -3,1 -2,0 -3,-1 -3,-2l0 -3c0,-1 0,-2 2,-2 1,-1 2,-1 3,-1 1,0 2,1 2,3zm-3 22c0,2 -2,5 -6,8 -3,4 -6,5 -8,5 -3,0 -4,-1 -4,-5 0,-1 1,-3 2,-6l3 -6c1,0 2,-3 4,-8l8 0c-4,7 -7,13 -9,19l1 0c2,-1 3,-2 5,-4 1,-2 2,-4 3,-4l0 0c0,0 1,0 1,1z"/>
  <path id="2" class="fil6" d="M379 270c0,1 -1,2 -3,4 -2,3 -4,4 -5,4 -1,1 -3,2 -6,2 -3,0 -5,-2 -5,-5 0,-1 1,-3 3,-8 3,-4 4,-7 4,-10l0 -1 0 0c-1,-1 -1,-1 -2,-1 0,0 -2,1 -3,3 -2,1 -3,3 -4,4 0,1 -2,3 -3,8 -2,4 -3,7 -3,8 0,0 1,1 2,2l-9 0c0,0 0,0 0,-1 0,-2 1,-5 3,-10 3,-5 4,-9 4,-12l0 -1 0 0c0,-1 -1,-1 -1,-1 -2,0 -4,2 -7,6 -2,3 -3,6 -5,9 -1,6 -3,9 -3,10l-9 0 7 -15c0,-1 1,-2 2,-3 0,-2 1,-3 1,-4 0,0 0,-1 -1,-1 0,0 -1,1 -2,2 -1,2 -2,3 -3,3 0,0 0,-1 0,-1l0 0c0,-1 2,-3 4,-6 3,-2 5,-4 6,-4 2,0 3,2 3,6 0,0 0,0 0,0 0,0 1,0 4,-2 3,-2 5,-2 6,-2 3,0 5,1 5,5 1,-1 3,-2 5,-4 2,-1 3,-1 5,-1 3,0 5,1 5,5 0,2 -1,5 -3,9 -2,4 -4,7 -4,7 0,0 1,1 1,1 3,0 5,-1 8,-3 0,0 1,-1 3,-2l0 0z"/>
  <path id="3" class="fil6" d="M407 263c0,0 -1,1 -2,1 -2,1 -3,1 -3,1 -1,0 -1,0 -2,0 -2,3 -4,6 -7,9 -3,4 -6,6 -9,6 -4,0 -6,-2 -6,-5 0,-4 2,-9 6,-15 5,-5 9,-8 13,-8 4,0 5,1 5,4 0,1 0,4 -1,7 0,0 1,0 1,0 1,0 1,0 2,0 1,-1 1,-1 2,-1 0,0 1,0 1,1zm-7 -6c0,-2 0,-3 -2,-3 0,0 -1,1 -3,2 -1,1 -1,2 -1,3 0,0 0,1 1,2 1,1 2,1 3,1 0,0 0,0 1,0l0 0c0,0 0,0 1,-2 0,-1 0,-2 0,-3zm-2 7c-3,0 -5,-1 -6,-4 -1,1 -2,3 -4,7l0 -1c0,1 0,2 -1,4 0,1 -1,2 -1,3 0,1 1,1 2,1 3,0 6,-3 10,-10z"/>
  <rect class="fil0" x="254" y="171" width="1.11128" height="60.7368"/>
  <rect class="fil9 str0" x="247" y="171" width="13.1764" height="60.7368"/>
  <rect class="fil0" x="254" y="171" width="1.11128" height="60.7368"/>
  <rect class="fil0" transform="matrix(-0.0390681 -0.0522709 0.619771 -0.463226 256.471 167.145)" width="17.0292" height="78.4963"/>
  <rect class="fil1 str0" transform="matrix(-0.463229 -0.61977 0.61977 -0.463229 259.69 171.19)" width="17.0292" height="78.4963"/>
  <line class="fil1 str0" x1="259" y1="171" x2="250" y2= "162" />
  <path class="fil1 str0" d="M252 161c-4,2 -5,7 -5,10"/>
  <path class="fil1 str0" d="M248 165l11 6m0 0l-12 -3"/>
  <polygon class="fil10 str0" points="161,222 343,222 311,472 193,472 "/>
  <rect class="fil3 str0" x="157" y="213" width="190.001" height="9.75625" rx="65" ry="2"/>
  <polygon class="fil11 str0" points="176,343 165,255 339,255 328,343 "/>
  <path class="fil5" d="M290 332c-5,-1 -8,-2 -11,-2 -4,0 -7,1 -10,4 -2,-3 -4,-4 -5,-5 -3,-1 -5,-2 -7,-2 -4,0 -9,1 -17,4 -7,2 -13,3 -16,3 -6,0 -10,-1 -14,-4 -3,-3 -6,-7 -7,-12 -5,2 -9,4 -11,4 -3,0 -5,-1 -7,-2 -3,-2 -4,-4 -4,-6 0,-5 3,-7 10,-7 4,0 8,1 14,3l7 -11c-4,0 -7,-1 -10,-2 -3,-2 -4,-5 -4,-9 0,-5 2,-9 6,-14 5,-4 9,-7 14,-7 1,0 4,1 9,1 -17,4 -26,11 -26,21 0,3 1,5 3,6 2,2 4,3 6,3 1,0 1,0 2,0 3,-7 7,-14 11,-19 6,-8 12,-12 17,-12 2,0 3,1 4,2 1,2 1,3 1,5 0,5 -3,10 -8,15 -5,3 -10,6 -16,9 -4,8 -7,13 -11,16 1,3 2,5 2,6 1,3 2,5 4,6 3,3 6,5 9,5 4,0 11,-1 20,-4 9,-3 15,-4 20,-4 11,0 19,3 25,9zm-47 -60c0,-2 -1,-4 -3,-4 -3,0 -7,4 -11,12 -4,6 -6,11 -7,15 14,-6 21,-14 21,-23zm-43 43l0 -1c0,-1 -1,-1 -3,-2 -2,-1 -4,-1 -5,-1l-4 0c-3,0 -4,1 -4,3l0 1c0,1 0,2 1,3 1,0 2,1 3,1 6,0 10,-1 12,-4z"/>
  <path id="1" class="fil5" d="M252 286c0,2 -1,3 -1,3 -1,1 -2,1 -4,1 -2,0 -3,0 -3,-1l0 -3c0,-1 1,-2 2,-2 1,-1 2,-1 3,-1 2,0 3,1 3,3zm-4 21c0,3 -2,6 -5,9 -4,3 -7,5 -9,5 -2,0 -3,-1 -3,-5 0,-2 0,-4 2,-6l3 -6c0,-1 2,-4 4,-9l8 0c-4,7 -7,14 -9,19l0 1c2,-1 4,-2 5,-4 2,-2 3,-4 4,-4l0 0c0,0 0,0 0,0z"/>
  <path id="2" class="fil5" d="M294 311c0,1 -1,2 -3,4 -2,2 -3,4 -4,4 -2,1 -4,2 -6,2 -4,0 -5,-2 -5,-5 0,-1 1,-4 3,-8 2,-4 3,-7 3,-10l0 -1 0 0c0,-1 0,-1 -1,-1 -1,0 -2,1 -4,3 -1,1 -2,2 -3,4 -1,0 -2,3 -4,8 -2,4 -2,7 -2,7 0,1 0,2 1,3l-9 0c0,0 0,0 0,-1 0,-2 1,-6 4,-11 2,-5 3,-8 3,-11l1 -1 -1 0c0,-1 0,-1 -1,-1 -1,0 -3,2 -7,6 -1,2 -3,5 -4,9 -2,5 -3,9 -4,10l-9 0 7 -15c1,-1 1,-2 2,-4 1,-1 1,-2 1,-3 0,-1 0,-1 0,-1 -1,0 -1,1 -3,2 -1,2 -2,2 -2,2 0,0 0,0 0,0l0 0c0,-1 1,-3 4,-6 2,-3 4,-4 5,-4 2,0 3,2 3,6 0,0 1,0 1,0 0,0 1,-1 4,-2 2,-2 4,-3 6,-3 3,0 5,2 5,6 1,-1 2,-3 4,-4 2,-1 4,-2 5,-2 4,0 5,2 5,5 0,3 -1,6 -3,10 -2,4 -3,6 -3,7 0,0 0,0 1,1 2,0 5,-1 7,-3 1,0 2,-1 3,-2l0 0z"/>
  <path id="3" class="fil5" d="M322 304c0,0 0,1 -2,1 -1,0 -2,0 -3,0 0,0 -1,0 -1,0 -2,4 -5,7 -7,10 -4,4 -7,6 -10,6 -4,0 -6,-2 -6,-5 0,-5 3,-10 7,-15 4,-6 9,-8 13,-8 3,0 5,1 5,4 0,1 0,3 -2,6 1,0 1,1 2,1 0,0 1,-1 2,-1 0,0 1,0 1,0 1,0 1,0 1,1zm-6 -6c0,-2 -1,-3 -2,-3 -1,0 -2,1 -3,2 -1,0 -2,1 -2,2 0,1 1,2 2,3 1,1 2,1 3,1 0,0 0,0 0,0l0 0c1,0 1,-1 1,-2 1,-2 1,-3 1,-3zm-3 7c-2,0 -4,-2 -5,-4 -1,1 -2,3 -4,6l0 0c0,1 -1,2 -1,3 -1,2 -1,3 -1,4 0,1 0,1 1,1 4,0 7,-3 10,-10z"/>
  <path class="fil6" d="M289 332c-5,-2 -9,-2 -12,-2 -3,0 -6,1 -9,3 -3,-2 -5,-4 -6,-5 -2,-1 -4,-2 -7,-2 -4,0 -9,1 -16,4 -8,2 -13,4 -17,4 -5,0 -10,-2 -13,-5 -4,-3 -6,-7 -8,-12 -4,3 -8,4 -11,4 -2,0 -5,-1 -7,-2 -2,-2 -4,-3 -4,-5 0,-6 4,-8 10,-8 4,0 9,1 14,3l7 -11c-4,0 -7,-1 -9,-2 -3,-2 -5,-5 -5,-8 0,-5 2,-10 7,-15 4,-4 9,-6 14,-6 0,0 3,0 9,0 -18,4 -26,11 -26,21 0,3 1,5 2,7 2,1 4,2 7,2 0,0 1,0 2,0 3,-7 6,-14 10,-19 6,-8 12,-12 17,-12 2,0 3,1 4,2 1,2 2,3 2,5 0,5 -3,10 -9,15 -5,4 -10,7 -15,9 -4,8 -8,14 -11,16 0,3 1,5 2,6 1,3 2,5 3,6 3,4 6,5 9,5 5,0 11,-1 20,-4 9,-2 16,-4 21,-4 10,0 19,3 25,10zm-48 -61c0,-2 -1,-3 -3,-3 -3,0 -6,3 -11,11 -3,6 -5,11 -7,16 14,-7 21,-14 21,-24zm-43 44l0 -2c0,0 -1,-1 -3,-2 -2,-1 -3,-1 -4,-1l-4 0c-3,0 -5,1 -5,3l0 2c0,1 1,1 2,2 1,1 2,1 3,1 6,0 10,-1 11,-3z"/>
  <path id="1" class="fil6" d="M250 285c0,2 0,3 -1,4 0,0 -2,1 -3,1 -2,0 -3,-1 -3,-2l0 -3c0,-1 0,-1 2,-2 1,-1 2,-1 3,-1 1,0 2,1 2,3zm-4 22c0,2 -1,5 -5,8 -3,4 -6,5 -8,5 -3,0 -4,-1 -4,-5 0,-1 1,-3 2,-6l3 -5c1,-1 2,-4 4,-9l8 0c-4,7 -7,13 -9,19l1 0c2,-1 3,-2 5,-4 1,-2 2,-4 3,-4l0 0c0,0 0,0 0,1z"/>
  <path id="2" class="fil6" d="M293 310c0,1 -1,2 -3,5 -2,2 -4,3 -5,3 -1,1 -3,2 -6,2 -3,0 -5,-2 -5,-5 0,-1 1,-3 3,-8 3,-4 4,-7 4,-10l0 -1 0 0c-1,-1 -1,-1 -2,-1 0,0 -2,1 -3,3 -2,1 -3,3 -4,4 -1,1 -2,3 -3,8 -2,4 -3,7 -3,8 0,0 1,1 2,2l-9 0c0,0 0,0 0,-1 0,-2 1,-5 3,-10 3,-5 4,-9 4,-12l0 -1 0 0c0,-1 -1,-1 -1,-1 -2,0 -4,2 -7,7 -2,2 -3,5 -5,8 -1,6 -3,9 -3,10l-9 0 7 -15c0,-1 1,-2 2,-3 0,-2 1,-3 1,-4 0,0 0,-1 -1,-1 0,0 -1,1 -2,2 -1,2 -2,3 -3,3 0,0 0,-1 0,-1l0 0c0,-1 1,-3 4,-6 3,-2 5,-4 6,-4 2,0 3,2 3,6 0,0 0,0 0,0 0,0 1,0 4,-2 2,-2 4,-2 6,-2 3,0 5,1 5,5 1,-1 3,-2 5,-4 1,-1 3,-1 5,-1 3,0 5,1 5,5 0,2 -1,5 -3,9 -3,4 -4,7 -4,7 0,0 1,1 1,1 3,0 5,-1 8,-3 0,0 1,-1 3,-2l0 0z"/>
  <path id="3" class="fil6" d="M321 303c0,0 -1,1 -2,1 -2,1 -3,1 -3,1 -1,0 -2,0 -2,0 -2,3 -4,6 -7,9 -3,4 -6,6 -9,6 -4,0 -6,-2 -6,-5 0,-4 2,-9 6,-15 5,-5 9,-8 13,-8 4,0 5,1 5,4 0,2 0,4 -1,7 0,0 1,0 1,0 1,0 1,0 2,0 1,-1 1,-1 2,-1 0,0 1,0 1,1zm-7 -6c0,-2 0,-3 -2,-3 0,0 -2,1 -3,2 -1,1 -1,2 -1,3 0,0 0,1 1,2 1,1 2,1 3,1 0,0 0,0 1,0l0 0c0,0 0,0 1,-2 0,-1 0,-2 0,-3zm-2 7c-3,0 -5,-1 -6,-4 -1,1 -2,3 -4,7l0 -1c0,1 0,2 -1,4 0,1 -1,2 -1,3 0,1 1,1 2,1 3,0 6,-3 10,-10z"/>
 </g>
</svg>
